<?xml version="1.0" encoding="UTF-8"?>
<svg id="Layer_1" data-name="Layer 1" xmlns="http://www.w3.org/2000/svg" viewBox="0 0 655.06 655.11">
  <defs>
    <style>
      .cls-1 {
        fill: none;
        stroke: #6cff00;
        stroke-miterlimit: 10;
        stroke-width: 25.63px;
      }

      .cls-2 {
        fill: #6cff00;
      }
    </style>
  </defs>
  <path class="cls-1" d="m642.24,157.3v340.55c-.18.9-.41,1.77-.56,2.67-1.44,8.77-2.26,17.69-4.41,26.27-14.48,58.21-63.06,103.02-122.2,113.12-5.74.97-11.51,1.59-17.28,2.38H157.29c-.79-.18-1.56-.41-2.36-.51-6.18-.87-12.41-1.41-18.53-2.56-69.85-13.15-123.2-76.59-123.4-147.73-.31-108.66-.18-217.35.03-326.04.03-9.66,1.18-19.43,2.97-28.97C29.1,66.48,92.36,13.24,163.58,13.01c108.87-.36,217.76-.1,326.63-.08,11.61,0,23.07,1.56,34.35,4.23,59.11,14,105.13,63.01,115.28,122.86.97,5.74,1.61,11.51,2.41,17.28Z"/>
  <g>
    <rect class="cls-2" x="260.27" y="280.41" width="146.11" height="89.61"/>
    <rect class="cls-2" x="425.35" y="280.41" width="63.13" height="89.61"/>
    <rect class="cls-2" x="178.03" y="280.41" width="63.13" height="89.61"/>
    <rect class="cls-2" x="342.84" y="173.13" width="145.77" height="89.61"/>
    <rect class="cls-2" x="178.03" y="173.13" width="145.77" height="89.61"/>
    <rect class="cls-2" x="342.84" y="387.69" width="145.77" height="89.61"/>
    <rect class="cls-2" x="178.03" y="387.69" width="145.77" height="89.61"/>
  </g>
</svg>