<?xml version="1.0" encoding="utf-8"?>
<!-- Generator: Adobe Illustrator 28.0.0, SVG Export Plug-In . SVG Version: 6.00 Build 0)  -->
<svg version="1.1" id="Layer_1" xmlns="http://www.w3.org/2000/svg" xmlns:xlink="http://www.w3.org/1999/xlink" x="0px" y="0px"
	 viewBox="0 0 655.1 655.1" style="enable-background:new 0 0 655.1 655.1;" xml:space="preserve">
<style type="text/css">
	.st0{fill:none;stroke:#6CFF00;stroke-width:25.63;stroke-miterlimit:10;}
	.st1{fill:#6CFF00;}
</style>
<path class="st0" d="M642.2,157.3v340.5c-0.2,0.9-0.4,1.8-0.6,2.7c-1.4,8.8-2.3,17.7-4.4,26.3c-14.5,58.2-63.1,103-122.2,113.1
	c-5.7,1-11.5,1.6-17.3,2.4H157.3c-0.8-0.2-1.6-0.4-2.4-0.5c-6.2-0.9-12.4-1.4-18.5-2.6C66.5,626.1,13.2,562.6,13,491.5
	c-0.3-108.7-0.2-217.4,0-326c0-9.7,1.2-19.4,3-29C29.1,66.5,92.4,13.2,163.6,13c108.9-0.4,217.8-0.1,326.6-0.1
	c11.6,0,23.1,1.6,34.3,4.2c59.1,14,105.1,63,115.3,122.9C640.8,145.8,641.4,151.5,642.2,157.3L642.2,157.3z"/>
<path class="st1" d="M611.4,224.4v-2.9c-0.8-0.6-1.9-0.8-2.8-0.6c-0.4-0.4-0.7-1-0.6-1.6c0.4-0.3,1.7,0,1.7-0.5
	c-0.5-0.2,0-0.9-0.8-0.9c-0.5,0.2-0.7,0.7-1.1,0.9c-0.9-0.2-1.9-0.3-2.8-0.3c-0.2,0.1-0.4,0.1-0.5,0.2c-0.6-0.9-1.9-1.2-2.6-1.9
	h-12.2c0.4,0.4,0.8,0.7,1.3,0.9c0.1,0.1,0.2,0.3,0.4,0.4c-1.2,0.4-2.2,1.2-1.4,2.2c0.8-0.3,1.4-1,1.7-1.9c0.9,0.9,1.9,1.6,2.9,2.4
	c0.3,0.1,0.7,0.3,1,0.5c-0.6,0.6-1.9,0.9-4.1,0.7c-0.1,0-0.2,0-0.3,0.1c-0.3-0.3-0.5-0.5-0.8-0.7c0-0.1,0-0.1,0-0.2h-0.3
	c-0.2-0.1-0.3-0.2-0.5-0.2c-1.2-1.8-3.6-2.5-5-4.1h-10.9c-0.3,0.1-0.5,0.2-0.8,0.3c0.1,0.2,0.1,0.3,0.2,0.4
	c-0.7-0.2-1.4-0.4-2.1-0.4c-0.5,0.4-0.5,1.1-1.4,1.2c-0.8-0.2-0.3-1.2-0.8-1.6H553c0.1,0.7-0.1,1.4-0.6,1.9c-0.6-0.1-1.4-0.2-2-0.4
	c-0.1-0.3-0.2-0.5-0.4-0.8c0.1-0.1,0.2-0.3,0.2-0.4l-0.4-0.3h-14.6c0,0,0,0.1,0,0.1l-0.6-0.1H520c0.5,0.7,0.9,1.5,2.1,1.4
	c0.2,0.5,0.6,0.8,1,1.1c-2.6,0.3-5.3,0-6.1-1.2c0.2-0.6,1.4-0.6,1.2-1.4h-3c-0.1,0-0.1,0.1-0.1,0.1l0.2,0.5
	c-0.4-0.3-0.8-0.5-1.2-0.7h-8.2c-0.1,0.6-0.9,0.8-1.3,1.4c0.5,0.5,1.2,0.8,1.9,0.9c-0.1,0.1-0.1,0.2-0.1,0.2c0,0.5,0.7,0.4,0.7,0.9
	c0.2,0.1,0.5,0.2,0.8,0c0.5,0.5,0.9,1.1,1.3,1.6c-1.4,1-3,1.6-4.7,1.9c-0.4-0.6-1.3-0.8-1.9-0.3c0,0-0.1,0.1-0.1,0.1
	c-0.9-0.4-1.9-0.7-2.8-0.7c0.1-0.7-1.4-1.4-0.6-2c2.3,0,2.5,1.1,3.1,2c0.2-0.2,0.4-0.3,0.6-0.3c0,0.1-0.1,0.1-0.1,0.2
	c0.1,0,0.2,0,0.3,0.1v-0.3h-0.2c0.8-0.2,1.5-0.3,2.3-0.6c-0.2-0.6,1-1,0.3-1.4c-1.1-0.1-0.9,0.5-2,0.3c-0.6-0.4-0.5-1.2-1.4-1.4
	c-0.5,0.8-1.4,1.2-2.3,0.9c-0.8-0.8-2.8-1.8-2.8-2.5c0.6-0.3,1.1-0.6,1.6-0.9h-3c-0.5,0.3-0.9,0.8-1.1,1.4v0.1
	c-0.1-0.1-0.2-0.3-0.2-0.4c-0.5-0.2-0.9-0.6-1.2-1.1h-7.2c0.4,0.5,0.7,1,1.6,1c0.1,0.5,0.6,0.6,0.7,1.2c0.8,0.4,1.5,1,2,1.8
	c1.7,0.1,2.2,1.4,3.3,2.1c0.4,0,0.7,0,1.1-0.1c1.1,1.6,2.8,3.9,5.4,3c0,0,0,0.1,0,0.2c-2.4,0.4-4.1,1.2-6.2,1.7
	c1.3,0.3,2.5,1.2,3.1,2.3c-0.1,0.1-0.1,0.1-0.2,0.2c-0.5-0.3-1-0.8-1.3-1.4c-0.9,0.1-2.2-0.3-2.4,0.4c-0.8,0.2-1.5-0.2-2.3,0
	c-0.3,0.1-0.6,0.5-0.9,0.6c-1.1,0.2-2.2-0.3-3.1,0.1c0.1-0.7,2.5-0.1,2.5-0.9c-0.9,0-2.3-0.4-3.1,0c0.8,1.1-0.7,1.1-1.1,1.9
	c0.7,0.3,1.5,0.5,2.2,0.4c0.4,0.2,0.8,0.4,1.2,0.4c0.5,1,1.6,1.4,2,2.6c-0.7,0.1-1.5,0.2-2.3,0.2c0-0.6,1.3-0.4,1.1-1.1
	c-0.6-0.1-0.4-0.7-1.1-0.8c-0.2,0.5-1.2,0.6-2.3,0.6c-0.6-0.1,0.3-1.1-0.9-0.9c-1.1-0.1-0.6,0.6-1.3,0.8l0,0c0,0-0.4,0-0.4-0.1
	s0-0.4-0.1-0.5c0,0-0.1-0.1-0.2,0c0-0.5,0-1.1-0.9-1.1l-0.6,0.1l-0.3-0.1c-0.7-0.3-1.3-1.1-2.1-0.1c-0.2-0.5-0.8-0.4-1.2-0.2
	c-0.2-0.1-0.3-0.3-0.4-0.5c-0.4-1.1,3.3-1.6,1.4-2.5c-0.5,0-0.9,0.2-1.3,0.4c-0.1-0.1-0.2-0.2-0.3-0.2c-1.1-0.7-2.1-1.6-3-2.5h-0.6
	c0-0.1-0.1-0.1-0.1-0.1c-0.1-0.4-0.6-0.3-0.9-0.6c-0.2-0.2-0.5-0.9-0.8-1.3s-1-0.4-1.4-0.8c-0.8-0.7-1.4-1.9-2.5-2
	c-0.3-0.9-1.7-1.1-1.6-1.9c0.2-0.3,0.4-0.5,0.5-0.8c1.1,0.1,2.3,0,3.4-0.3c-0.8-0.3-1.8-0.6-2.7-0.8l0.2-0.4h-9.6
	c-0.5,0.1-0.5,0.6-0.2,0.8c-0.4,0.3-0.8,0.7-1.1,1.1h-0.3v0.3c-0.4,0.4-0.6,0.9-0.8,1.5c-0.2,1.1,1,1.8,1.9,2.4
	c0.8,0.7,1.7,1.3,2.7,1.7c0.1,0.2,0.2,0.3,0.2,0.4c0.4-0.1,0.4,0.2,0.8,0.1c-0.1,0.4,0.1,0.4,0.2,0.7c1.1,0.8,2.3,2,3.4,2.8
	c0.4,0.3,0.9,0.5,1.3,0.8c0.8,0.6,1.4,1.7,2.2,1.9s2-0.3,3.1-0.5h0c0,0.1,0,0.1,0,0.2c-1.2,0.2-2.3,0.5-3.4,0.9
	c1,0.2,0.2,1.5,1.1,1.7c-0.8,0.1-1,0.4-1.5,0.7c-0.2-0.2-0.4-0.4-0.6-0.6c-0.3,0-0.5-0.1-0.8-0.1l-0.1-0.1c0-0.2-0.2-0.3-0.3-0.5
	h-0.2c-0.6-0.6-1-1.5-1.1-2.3c-0.4,0.6-1.1,1.1-0.9,2c-0.6,0.1-1.2,0.4-1.6,0.9c-0.6-0.1-1.2-0.1-1.8,0c-0.3,0.1-0.5,0.4-0.8,0.4
	h-0.2c-0.6-0.3-0.8-0.7-1.8-0.9c-0.3-0.1-0.5-0.1-0.8-0.1c0.3-0.1,0.5-0.1,0.8-0.2c1.7-0.2,3-0.1,3.7-1c0.4,0.6,1.8,0.3,2.3,0
	c0.1-1.4-1-1.6-1.9-2c-1-1.1-2.2-2.1-3.5-2.7c-0.9-1.1-2-2-3.3-2.6c-0.8-1.2-2-2-3.4-2.2c-0.7-1.2,0.5-2,1.2-2.9
	c0.7-0.9,1.2-1.8,1.8-2.6h-9.5c-0.3,0.5-0.5,1-0.6,1.5c-0.8,0.7-1.5,1.5-2,2.4c-0.1-0.1-0.1-0.1-0.1-0.2c-0.5,0.1-0.1,0.3,0,0.4
	c-0.4,0.7-0.9,1.5-1.3,2.2c0.7,0.4,1.1,1.1,2,1.3c0.5,0.7,1.1,1.4,1.8,1.9c0.6,0.6,1.3,1.2,2.1,1.7c1.2,0.9,2.4,1.8,3.6,2.8
	c0.4,0.3,0.8,0.7,1.1,0.9c0.3,0.2,0.4,0,0.5,0.1c0.5,0.3,0.8,0.9,1.2,1.2c-1.8,0.2-3.5,0.4-4.6,0.1c-0.1-0.1-0.2-0.1-0.3-0.1
	c-0.3-0.1-0.5-0.3-0.6-0.5c0.1-0.6,2-0.3,2-0.9c-1.2-1.4-2.8-2.4-4.5-3c-1.3-0.1-1.8,0.1-1.8,0.3c-0.8-0.7-1.6-1.2-2.6-1.7
	c0-0.5-0.6-0.4-0.7-0.9c-0.4,0-0.9-0.2-1.1-0.6l0.2-0.1c-1.1-0.4-0.4-1.8-1.4-2.2c-0.4,0.1-0.8,0.3-1.1,0.6
	c-0.1-0.2-0.3-0.4-0.4-0.6c0-0.2,0.8-0.6,0.4-0.9c1.1-0.8,2-2,2.5-3.3c0.9-0.2,0.7-1.6,1.5-1.8v-0.7h-7.7c-1.2,1.1-2.1,2.4-3.3,3.4
	c0.1,0.4-0.1,0.5-0.1,0.8c-0.4-0.1-0.3,0.2-0.4,0.2v0.8c-0.5,0.2-0.6,0.9-0.9,1.3c-0.7-0.4-1.6-0.6-2.4-0.5
	c-0.4,0.2-0.3,0.7-0.3,1.1c0.7,0,1.4,0.2,2.1,0.5v0.2c-0.3,0-0.4,0.2-0.5,0.3l0.6,0.8c-0.8,0.9-2.4,2-0.7,2.6c1-0.2,2.1-0.3,3.2-0.3
	c0.2,0.1,0.3,0.1,0.5,0.2c0.2,0.6,0.8,1,1.4,1c0.2,0.3,0.4,0.6,0.6,0.8c0,0.1,0,0.2-0.1,0.3c0.4,0,0.7,0.1,1.1,0.2
	c0,0.5,0.3,0.6,0.5,0.9c0,0.8,0.5,1.3-0.2,2.2c1.2,0.4,3,0.5,4.4,0.8c0.2,0.2,0.4,0.3,0.7,0.5c0.2,0.1,0.4,0.2,0.6,0.2
	c0.2,0.2,0.3,0.3,0.3,0.6c-1.8,0.1-4,0.1-5.1,0.6c0.2,0.5,0.5,1,1,1.3c-0.1,0-0.1,0.1-0.1,0.2c-0.8-0.2-1.7,0-2.3,0.6h-1.7
	c0.1-0.2,0.1-0.4,0-0.6c-1.7-0.2-2.9-0.2-5.1-0.3c-0.9,0.2-0.6,1-2,0.9c0.1-0.5-0.1-1-0.4-1.3c1.1,0.1,2.2,0.1,3.3,0.1
	c0.3-0.1,0.3-0.5,0.7-0.6c1.9,0.2,3.8,0.1,5.7-0.2c0-0.7-0.5-1.3-1.1-1.5c0.7,0.1,0.7-0.7-0.1-0.5v0.5c-0.2-0.1-0.4-0.1-0.5-0.1
	c-0.2-0.4-0.4-0.7-0.6-1l0,0c0.2-1-1.1-1.2-2-1.6l0,0c-0.2-0.1-0.3-0.2-0.5-0.2c0-0.6,1.4-0.2,1.4-0.8c0.3-1.1-1.6-1.4-3.1-1.1
	c0.4,0.3,0.6,0.7,0.7,1.1c-0.1-0.1-0.3,0-0.4-0.1c-0.3-0.3-0.7-0.6-1.1-0.9c-0.4-0.4-1-0.6-1.5-0.7c-0.1-0.7-0.9-0.8-1.1-1.5
	c-0.2,0-0.4,0-0.6,0c-0.2-0.4-0.3-0.8-0.2-1.2c-0.8-0.1-1.5-0.2-2.3-0.2c-0.5-0.4-0.7-1.1-1.1-1.6c1.7-0.9,2.1-1.4,4.5-0.6
	c0.1-0.1,0.2-0.2,0.6-0.2c0.1-1.4,0.3-1.9-0.6-2.8c1-0.6,2.6-0.8,3.4-1.6c-0.3-0.3-0.7-0.5-1.1-0.5c-0.7,0.8-1.8,1-2.8,0.8
	c0-0.5-0.5-0.8-0.3-1.4c1.3,0,2.1,0.3,2.3-0.5c-0.8-0.2-1.2-0.9-1.7-1.4h-21.9c0.9,0.6,1.8,1.4,2.6,2.2c2.1,0.8,2.8-1,4.8-0.3
	c-0.4,0.8-0.6,1.5-0.9,2.4c-1.6,0.5-4.6-0.5-6,0.3v1.1c-2.4,0.1-6,1-7.9,0c0.4-0.5,2.3-1.9,0.3-2.2c-0.6,1.3-1.7,2.3-3.1,2.7
	c-0.7-1-3.5-1.8-2-3.1c1.7-0.4,2.3,0.5,4.5,0.3c-0.2-0.8,1.1-0.7,0.9-1.6c-1.9-0.5-3.8-0.8-5.7-1.1c0-0.2,0-0.4-0.1-0.6h-4.6
	c-0.1,0.1-0.1,0.3-0.1,0.5c0,0.5,1.5,0.2,1.4,0.8c-0.5,1-1.5,1.7-2.5,1.9c1-0.1,1.1,0.2,2,0.1c0-0.8,1.6-1,2.8-0.6
	c0.2,1.2-1.8,1.2-2,2.2c0.5,0.7,2.4,2.1,1.4,2.5c-1.4-0.1-1.6-0.9-1.7-1.7c-1-0.7-2.2-1.3-2.5-2.4c-0.5-0.1-1.5,0-1.4-0.5
	c1.2-0.3,1.3-1.3,2-1.9c-0.7-0.2-1.8-0.2-2.5-0.5c0-0.3,0.2-0.4,0.5-0.5h-5.2c-0.1,0.3,0.1,0.6,0.8,0.9h3.7
	c-0.1,0.5,0.3,1.2-0.6,1.3c-1.3-1.7-4.3-0.1-6.2,0.1c-1.1-0.9,0.5-1.6,0.9-2.3h-2.3c-2.1,0.4-4.3,0.6-6.5,0.6
	c-2.4,0.1-4.9,0.8-7.4,0.3c-0.4,0.2-0.2,0.8-0.3,1.3c-3.2,1.2-6.5,1.9-9.9,2.2c-0.7-1-3.2-0.7-3.4-1.6c0,0.1,3.2-2.1,0.6-2.3
	l0.1-0.2l0.1-0.2l0.1-0.1h-9c-0.4,0.5-1,0.8-1.6,0.9c-1.4,0.1-2.9-0.2-4.2-0.9h-7.6c0.2,0.1,0.4,0.2,0.5,0.5c-1,0.5-3.1,0.3-2.8-0.5
	h-90.6c0,0.3,0.2,0.5,0.4,0.6c-0.8-0.3-1.7-0.5-2.6-0.6h-39c0.1,0.3,0.3,0.5,0.5,0.6c1.6-0.1,3,0,3.4,0.6c-0.6,0.2-1.2,0.5-1.7,0.9
	c-1.2,0-1-0.8-2.3-0.8c-1.4,0.3-2.8,0.6-4.2,0.8c-1-1-2.3-1.6-3.7-1.7c0.1-0.2,0.3-0.3,0.5-0.5h-15.3c-0.1,1.7-0.2,3.2-0.3,4.4
	c-0.4,1.6-0.7-0.2-1.3,0.7c-0.5,0.9-0.5,3.5-0.8,3.9c-0.3,0.3-0.6-0.9-0.9-2.1h-0.5c-0.4-1.6-1.1-1.9-1.5-3.9
	c-1.2-1.6-2.9-2.6-4.8-2.9h-8.5c-0.4,0.2-0.7,0.5-1,0.8c-0.5,0.5-1,1.5-1.6,0.7c-0.1-0.5-0.2-1-0.2-1.5h-7c-0.1,0.1-0.2,0.2-0.4,0.3
	c0.1-0.1,0.1-0.2,0.2-0.3h-16c0,0.3,0,0.6,0,0.8c0.4,0,0.8,0,1.2,0.1c-0.2,0.5-0.6,0.8-1,1.1c0,0,0,0.1,0,0.1l-0.2-0.1
	c0,0.6,0,1.1,0.1,1.7c0.2-0.2,0.3-0.4,0.3-0.7c0.1,0.2,0.2,0.4,0.4,0.6c0.1,0,0.1,0,0.2-0.1c0,0.3,0,0.5,0,0.8
	c-0.2,0.2-0.5,0.3-0.4,0.9c0.2,0,0.3,0,0.5,0.1c0,0,0,0.1,0,0.2h0.2v0.2v-0.1l0,0c0,1.2,0,2,0.3,1.7c0.2-0.7-0.1-0.9-0.1-1.6
	l0.1,0.1c0.6,0.1,0.8-0.3,1-0.6c0.4,0.4,0.3,1.2,0.8,1.4c0,0.4-0.4,0.3-0.6,0.4c0.2,0.4,1.1,0.3,1.2-0.2c0.3,0.1,0.5,0.2,0.8,0.4
	l0,0c0.2,0.1,0.5,0.2,0.8,0.3c0.5,1.8,0.7,3.6,0.7,5.4c-0.5,0.6-0.8,1.3-0.8,2.1c0-0.1-0.1-0.1-0.1-0.2c-0.2-0.5-0.5-1-0.8-1.4
	c-0.6-0.8-1.6-1.3-2.6-1.2c-0.8-0.1-1.7-0.1-2.5,0.1c-0.2,0.1-0.2,0.4-0.6,0.7s-0.5,0.2-0.6,0.3c-0.3,0.3-0.4,0.8-0.6,1.1
	c-0.3,0.5-1.2,0.9-0.6,1.6c0,0.1-0.1,0.1-0.1,0.2c-0.2-0.7-0.4-1.2-0.8-0.9c-0.1,0.1-0.2,0.9-0.5,1.4c-0.2,0.3-0.4,0.1-0.5,0.4
	c-0.5,1.4-0.8,4.5-1.8,2.8c-0.1-0.2-0.1-0.9-0.2-1.1c-0.1-0.2-0.1-0.1-0.2-0.1v-0.1c-0.2-0.3-0.4-0.7-0.7-0.9
	c-0.1-1-0.3-1.9-0.5-2.9c-0.8,0.5-1.4-2-2.1-2.8c-0.4,1.2-0.6,2.5-0.6,3.8c-0.4,0-0.8,0.1-1.3,0.1h-0.2c-0.1-1.5,0-3.1,0.5-4.6
	c0-0.6,0-1.1,0-1.6c0.1,0,0.1,0,0.2,0.1c0.3,0.3,0.2,0.7,0.4,1c0.7,0.1,1.2,0.3,1.4,0.8c0.3-0.2,0.7-0.2,1.1-0.1
	c0.2,0.1,0.4,0.1,0.7,0.1c0.6,0,1.1-0.4,1.6-0.2c0.6-0.5,1.3-0.9,2.1-1.3c-0.1,1.5-0.1,2.9,0.1,4.4c0-1.3,0-3.1,0-4.5h0.1
	c0.1-0.3-0.1-0.3-0.1-0.6c0.4-0.9,0.6-2,0.6-3c-0.5-2-2-3.6-4.1-4c-0.7-0.2-1.5,0-2.1,0.4c0.1-0.1,0.1-0.3,0.1-0.4
	c-0.2,0.2-0.3-0.8-0.4,0.4c0,0.1,0.1,0.2,0.1,0.2l-0.1,0.1c-0.2-0.1-0.5-0.1-0.7-0.1c-0.4,0.6-0.9,1.1-1.6,1.4
	c-0.1,0.4-0.2,0.8-0.2,1.1c0-0.4,0-0.6-0.1-0.6c0.4-1.7,0.8-3.4,1-5.1h-2.1v0.8h-0.2v-0.8h-7.2c0,0.1,0.1,0.3,0.2,0.4l0,0
	c-1.1,0.4-2.3,0.5-3.4,0.1c0-0.2,0-0.4,0.1-0.6H86.8c0,0.2,0,0.3,0,0.5c-0.1,0.5-0.2,1.1-0.2,1.6c0,0.2,0.2,0.2,0.3,0.5
	c0.1,0.3,0.2,0.7,0.3,1c-0.1,0.2-0.2,0.3-0.4,0.4c-1.5-0.2-2.3-0.7-4.2-0.7c-0.1-0.6-0.3-1.2-0.7-1.8c-0.8,0.1-0.8-0.7-1.2-1.1
	c-0.2-0.1-0.3-0.2-0.5-0.3c0,0,0-0.1,0-0.1h-4c-0.4,0.2-0.7,0.4-1.1,0.6c-0.1,0.1-0.1,0.4-0.1,0.6c-0.4,0.1-0.9,0.3-1.3,0.5
	c0,0.6-0.1,1.2-0.3,1.8c-0.9-0.1-1.9-0.1-2,0.3c0.4,0.5,1,0.7,1.7,0.8c0,0.4,0.1,0.7,0.3,1c0,0.3,0,0.6,0,0.9
	c-0.6,0.3-1.3,0.5-1.9,0.5c-0.1,0.4,0,0.9,0.3,1.2c0.8-0.1,1.6-0.3,2.3-0.7c0.8,1.3,1.9,2.3,3.2,3c0,0.2,0.1,0.4,0.2,0.7l0.6,0.4
	c-1.3-0.4-3-2.4-4.5-2.3c-1.9,0.2-0.9,1.1-0.3,1.7c-0.6,0-0.6,0.4-0.9,0.6c-0.4-0.1-0.9-0.2-1.3-0.2c0-0.1,0-0.2,0-0.2
	c-0.2-0.5-0.6-0.8-1.1-0.9c-0.2-1,0.8-0.7,0.6-1.6h-0.5c-0.5-0.4,0-0.9-0.1-1.4c0-0.2-0.1-0.4-0.2-0.6c0.3-0.1,0.6-0.2,0.9-0.3
	c0.2-0.4,0.8-1.7-0.3-1.9c-0.5,0.1-1.1,0.3-1.5,0.6v0.1h-0.1c-0.1,0-0.1,0.1-0.2,0.2c0-0.1,0-0.1-0.1-0.2c-0.5-0.2-1-0.2-1.4-0.4
	c-0.1,0-0.4-0.3-0.7-0.5c0.2-0.2,0.4-0.3,0.5-0.6c-0.9-0.8-1-2.1-0.3-3c-0.2,0-0.3-0.2-0.5-0.6h-0.8c-0.1,0.4-0.2,0.8-0.4,1.2
	c0,0.8,0,1.7,0,2.7c-0.3,0.1-0.6,0.1-0.9-0.1c-0.1,0.1-0.2,0.2-0.3,0.3h-0.2c0-0.1,0-0.2,0-0.3c-0.1,0.1-0.2,0.2-0.3,0.3
	c-1.2,0-1.8,1.4-2.9,1.9l0,0c-0.7-0.1-1.3-0.1-1.4,0.4c0,0.5,0.6,0.4,1.1,0.6c0,0.2-0.1,0.4-0.1,0.6c-1.8,0.4-3.5-1.1-5.5-0.4l0-0.1
	l-0.2-0.1v0.6c-0.2,0.4-0.4,0.4-0.6,0c-0.1,0.2-0.2,0.3-0.4,0.5c-0.1-0.1-0.1-0.2-0.2-0.3c-0.9-0.1-1.8-0.1-2.7-0.1
	c-0.9,0.1-1.9,1.1-3,1.2c-0.2,0.3-0.2,0.7-0.1,1.1c-0.2,0.1-0.4,0.3-0.6,0.4c0.2,1-0.6,1.3-0.6,1.9c0,0.4,0.5,0.9,0.1,1.6
	c0.5,0.4,0.7,1.1,0.5,1.7c0.3,0.4,0.7,0.6,1.1,0.8c-0.3,0.8-0.7,1.6-1.4,2.2c-0.4,0-0.8,0-1.2,0v2.7c0,0,0.1,0.1,0.1,0.1h-0.1v10.5
	c0.1,0,0.2,0,0.4,0c0.2,0.1,0.3,0.2,0.4,0.3l-0.8-0.1v20.8c1.2,0,2.3,0,3.5,0.1c0.3,0.4,0.1,0.8-0.3,1.2c-1,0-1-0.5-2-0.5
	c-0.4,0.2-0.8,0.3-1.2,0.2v137c0.4-0.4,1-0.3,1.4,0.1c0,0.1,0.1,0.1,0.1,0.2c0,0.9-0.6,1.7-1.5,1.9v6c0.2,0.1,0.4,0.1,0.6,0
	c1.1-0.4,1.1-2,2.2-2.4c0.9,0,0.9,1.1,1.9,1.1c1.1-2.1-1.2-3.4,0-5c-0.2-0.7-0.6-1.3-1.4-1.3c0.5-1,0.3-2.6,0.7-3.7
	c3.6,0,1.8,6,5.7,5.6c0.8-0.1,0.7-1.2,1.2-1.6c1,0.9,2.8,0,3.6,0.8c0.2,1.4-0.8,2.7-2.2,2.9c-0.1,0-0.3,0-0.4,0
	c1.3,1.7,2.9,3.1,3.1,6.1c-1.8,1.1-3.9-1.1-2.6-2.6c-0.7-0.6-2.3-1.2-3.1-0.8c-0.5,0.4-0.1,1.8-0.2,2.6c-1.6,0.2-2.8,1.8-2.5,3.4
	c0,0.2,0.1,0.4,0.2,0.6c3.2-0.9,3.4,3.1,6.9,2.6c1.2,2.7,1.5,5.2,1.2,9.2c0.2,0.7,1,0.7,1.4,1c-0.4,1.1-0.5,2.2-0.6,3.3h2.4
	c0,0,0-0.1,0-0.1c0-1.5,1.8-2.2,1.7-4.2c2,0.3,3.3-2.5,4.5-0.5c0.4-0.7,0.4-1.8,1.2-2.1c1.1,0.4,1.3,1.8,2.6,1.9
	c1.2-0.6,1.1-2.1,2.6-2.4c1.3-0.3,3.6,0.8,4.8,1.3c-0.8,1.8-3.2,0.2-4.5,1.3c-0.6,1.1-1,2.3-1.9,2.9c0.2,0.7,0.2,1.3,0.2,2h1.2
	c-0.1-0.2-0.2-0.4-0.2-0.6c0.5-0.5,1.1-0.9,1.7-1.3c1.3,0.5,2,1.1,3.3,0.3c0.2,0.4,0.2,1,0.7,1.1c-0.1,0.2-0.2,0.4-0.3,0.6h3
	c0.7-1,1.3-1.8,1.8-1.7c0.4,0.5,0.6,1.1,0.8,1.7H104c-0.1,0-0.1-0.1-0.2-0.1c0-0.8,1.2-0.4,1.9-0.5c0.1,0.2,0,0.5-0.2,0.6h25.1
	c-1-0.8-0.9-3.8,0.4-3.8c0.5,1.2,0.7,2.5,0.5,3.8h5.4c-0.6-0.7-0.6-1.7-0.2-2.5c0.8-0.2,1,0.3,1.4,0.5c0,1-0.2,1.7-0.8,2h124.3
	c-0.2-0.3,0.3-1,0.6-0.4v0.4h26.3c-0.2-0.2-0.3-0.4-0.2-0.6c0.5-0.1,0.5,0.3,0.5,0.6h31.6c0.4-1.1,0.6-2.5-0.8-3
	c0.3-1.3,0.1-3,0.5-4.2c1.7,0.2,2.2,1.6,3.3,2.4c-1.2,0.9-0.8,3-0.7,4.9h31.7c0.1-0.7,0.2-1.5,0.1-2.2c1.2,0.1,1.6,1.1,1.9,2.2h3.4
	c-0.2-1.5,1.4-1,1.7-2c0.9,0.5,0.5,1.4-0.1,2h14.5c0.1-1.4,0.7-2.3,0.5-4.1c-0.4,0-2,0.5-3.1,0c-0.6,1.8,1.3,1.8,0.7,2.6
	c-0.9-0.1-3.2-0.6-3.3-2.4c2.3,0.1,2.2-2.3,4.8-1.9c0.2-0.9-0.3-1.1-0.5-1.6c-0.5,0.3-1.1,0.5-1.7,0.5c-3.2-2.6,0.1-3.5,2.1-6.3
	c0.2-0.3,0-0.8,0.2-1.3c0.8-1.5,1.8-1.5,1.7-4.2c1.1-0.1,0.9,1.3,1.7,1.6c1.9-0.2,2.9-0.2,4.3-0.5c0.5-2.6-2.1-1.9-1.9-4.2
	c-0.1-1.1,0.9,0.2,1.2,0.3c1.2-0.1,2.4-1.5,3.1-1.3c1,0.7,0.9,2.5,2.1,2.9c-0.2,2-1.6,2.8-1.9,4.8c0.9,0.9,2.8,0.8,4.3,1.1
	c-0.2,2.8-3.4,2.3-5,3.4c0.7,1.9-0.1,2.6,0.2,4.8c-0.5,0.2-0.7,0.8-1.4,0.8c0.6,4.4-2.2,4.5-4.8,3.4c-0.5,0.4-0.7,1.1-0.5,1.7h6.4
	c-0.3-1.4-1.2-3-0.2-4.1c1.1-0.3,1.4,0.3,2.1,0.5c0.1-2.4-2.2-2.2-1-4.5c0.9,0.1,1.2-0.5,2.1-0.3c0.6-0.6,0.4-2.2,0.7-3.2
	c0.6-0.5,1.4-0.7,2.1-0.5c0.2-1.4-0.1-2.2-1-2.4c0.9-2.3-1.2-4.4,0-6.1c1.4-0.3,2,1.2,2.9,0c-0.3-0.9-1.1-1.7-0.5-2.9
	c1.2-0.6,2.3,0.4,3.1,1.1c-0.2,0.5-0.4,1.1-1,1.3c1.1,0.8,1.4,2.3,0.6,3.4c-0.2,0.2-0.4,0.4-0.6,0.6c-0.7-4.2-5.6-0.8-2.6,1.8
	c0.9-0.3,0.8-1.8,1.9-1.8c1.2,2-0.3,3.9-1.2,5c0.5,0.6,1.6,0.6,2.1,1.3c-0.7,0.7-0.6,1.9,0.1,2.5c0.2,0.2,0.4,0.3,0.6,0.4
	c-0.4,1.2-5.1,6.1-1.2,5.5c0.8-0.1,3.4-3.5,3.8-5c0-1.1-1.6-0.5-1.7-1.6c1.2-3.1,4.9,0.2,8.4-1c1.2-0.4,1-1.5,2.4-2.1
	c-1.2-0.1-1.6-2.2-1-3.4c2.4,0.9,1.4,5.5,3.8,6.3c-0.1,1.2,0.2,2.4,0.7,3.4c0.1-2.8,1.2-4.5,2.1-6.3c0.8,0.2,0.8,1.2,1.7,1.3
	c-0.8,0.4-0.1,2.5-1,2.9c0.7,0.8,2,1,2.9,1.6c0.2,1-1.3,0.2-1,1.3c0,0.2,0.2,0.3,0.2,0.5c1.6,0,1.4-2,2.1-2.9c1-0.1,2,0.3,2.6,1.1
	c0,3.1-3.5,2.3-3.8,4.5c-0.2,0.6,0,1.2,0.3,1.7h1.5c1-0.5,1.9-1.3,2.4-2.2c0.9-0.1,0.9,0.8,1.7,0.8c1.6-1.6-1.5-2.3-1.2-4.2
	c0.2-1.5,2.1-2.2,3.8-1.3c1.1-0.1,0.4-2.2,1-2.9c1.1-0.3,0.3,1.6,1.4,1.3c0.9,0.2,0.2-1.4,0.7-1.6c0.9,0,1.7,0.2,1.9,1.1
	c0.6-0.1,0.4-1.1,1-1.3c0.2-1.1-1-0.8-1-1.9c2.2,0.1,4,0.9,4.1,3.4c0.1-1.3,2.4-1.3,3.3-0.8c0.3,1.2-0.1,2.5-1.2,3.2
	c0,1,1,1,1.2,1.9c-0.3,1.6-1.2,3.1-2.6,4c0.4,0.2,0.8,0.4,1.1,0.6h17.2l0.3-0.1c-0.4-1.8-2.4,0-3.6-0.3c-1.4-1.2-0.1-2.8,1.2-3.2
	c0.9-0.1,0.7,1.1,1.7,1.1c1.9-0.2,0-3,1.7-3.4c0.1-1-1-0.7-0.7-1.9c0.9,0.4,4.3,0.2,5.2,1.3c0.1,2.2-2.9,1.2-3.8,0.8
	c-0.2,0-0.2,0.3-0.5,0.3c-0.4,1.7,1.1,1.4,1.9,1.9c-0.6,1.2-1.2,2.4-1.8,3.6h6.5c0.4-0.1,0.7-0.1,1.1,0h22c0.6-1.5,0.5-3.7,1.4-4.9
	c0.9,0.4,1.7,0.9,2.4,1.6c-0.1,1,0.3,2.3,0.2,3.3h6.5c-0.5-0.4-1.6-0.3-1.8-1.2c-0.2-1.8,1.3-1.7,1.9-2.6c0.8,0,0.9,0.9,1.7,1
	c0.7-0.2,0.8-1,0.7-2.1c0.7-0.2,1.1-0.9,1.9-1.1c1.5,3.2-1,4.9-3,5.9h4.7c0.4-1,1-2,1.9-2.8c0-0.9-0.7-1.2-0.7-2.1
	c0.5-0.9,1.8-0.8,1.9-2.1c1,0,2.2-0.2,2.4,0.8c0.2,1-1.2,0.8-1.9,1.1c-0.1,0.6-0.3,1.2-0.5,1.8c1.4,1.5,2.3-0.5,3.3-1
	c0.4,0.6,0.8,1.4,1,2.1c1.6-1.3,3.1,0.6,3.8,2.2h8.1c0,0,0-0.1,0-0.1c0.1,0,0.1,0.1,0.2,0.1h4.1c0,0,0-0.1,0-0.1
	c-0.1-1.2,1.3-0.7,1.4-1.6c-2.1-2.4,0.1-6.9,1-9.2c1.5,0.8,3.9,3.9,0.7,4.8c-0.3,1.1-0.9,1.9-1.2,2.9c0.3,1,1.9,0.6,1.9,1.9
	c-0.8,0.1-1.5,0.6-1.9,1.3c0,0,0,0.1,0,0.1h13.8c-0.8-1.7-0.4-4.6-3-4.4c-0.2-1.1,0.9-0.8,1-1.6c0-0.7-0.4-0.8-0.7-1.1
	c-0.6,0-0.5,0.9-0.5,1.6c-1.4-0.2-3.5,0.3-3.8-1.1c1.7,0.3,2.4-0.5,3.3-1c-0.2-1.1,0.1-2.2,0.7-3.2c-0.7-0.7-2.2-0.2-2.2,0.8
	c-1.6-1.4-0.7-4.7,1.7-4.5c0.1,3.6,4.9,2.1,4.5,6.3c0.9,0.2,1.5-0.7,2.2,0c0.2,1.2-0.9,1.2-1.2,1.9c1.5,2-1.7,6.3,2.1,5.8
	c-0.1,0.1-0.1,0.3-0.2,0.4h3.3c0.2-0.6,0.3-1.1,0.5-1.7c-0.3-1-1.8-0.7-2.4-1.3c0.3-0.8,0.7-1.6,1.2-2.4c1.1,0.7,2.1-0.1,3.1-0.3
	c0.7,0.7,0.6,2.3,1,3.4c1.5,0.5,2.1-0.1,2.4-1.6c1.1,0.5,1.9,1.5,2.1,2.6c1.1,0.2,1.4-0.4,2.4-0.3c0.1,0.5,0.3,1,0.7,1.5h18.4
	c-0.1-1.6-0.8-3.1-1.9-4.4l-0.1-0.3l-0.1-0.3c0.5-0.3,0.9-0.8,1.2-1.3c-0.4-0.8-1.4-1.2-2.3-0.8c-0.1,0.1-0.2,0.1-0.4,0.2
	c-0.9-1-1.7-2.2-2.4-3.4c-0.8,0.2-0.4,1.7-1.2,1.9c-1,0.3-1.8-1-3.1,0c-0.5-0.5-0.5-1.6-1.4-1.6c-0.5,0.2-0.1,1.5-0.7,1.6
	c-1.5-0.6-2.9-1.1-4.3-1.9c0.3-1.3,0.6-2.5,1-3.7c1-0.5,1.3,1.7,2.6,1.6v2.1c1.8,0.4,0.7-1.5,0.7-2.6c0-1.6,0.6-3.8,0.5-5
	c-0.3-2.5-2.7-2.8-2.6-4.8c1.4-0.5,1.9,1.8,4.3,1.1c0.9,1.6,4.3,2,4.5-0.5c-0.7-0.9-1.9-1.3-1.4-3.4c0.4,0,0.8-0.2,1-0.5
	c1.1,0.7,1,2.8,2.6,2.9c1.1-1.8,2.5-3.5,4.1-5c0.6,0.2,1.1,0.7,1.2,1.3c-0.7,1.3-2.3,4-1,5.8c-1.1,0.8-2.5-1-3.6-0.3
	c-0.5,0.7,0.7,1.7,0,2.6c-1.4,0.4-1-1.2-2.2-1.1c-0.7,1.9-1.3,3.9-2.9,4.8c0.7,3.7,3.1,5.7,2.2,0c3.2-3,6.4,3,10.3,1.9
	c1.2,0.2,0.9,2,2.6,1.6c0.6-1.6,1-3.4,2.6-4c1,0.3,1,1.8,1.4,2.6c1.1-0.7,1.8,0.2,2.6,0.5c0.9-0.3,0.3-2.3,1.4-2.4
	c0.6,0.7,0.6,1.7,0,2.4c0.2,0.9,1.8,1.2,1.2,2.1c-1.4,0.6-2.8,1-4.3,1.1c0.4,1.4,1.5,2,1.9,3.4c1.4,0.3,3,0.4,3.8-0.5
	c-0.1-3.2,1.4-4.6,3.6-5.3c2.4,1.4,3.9,3.8,6,5.6c2-1-1.4-4.1,0.5-5.8c-0.2-0.9-1.7-0.3-1.7-1.3c1-1.5,1.9-4.4,4.3-3.4
	c-1.3,0.9-1,0.7-1.4,3.2c-0.1,0.4-0.3,0.7-0.5,1.1c0.1,1.8,2.2,3.3,3.1,3.2c0.9-0.1,1.5-1.6,2.5-2.5V225.5c-0.3,0.3-0.7,0.4-1.2,0.4
	c-0.5-0.6-0.6-1,0-1.6C610.8,224.3,611.1,224.3,611.4,224.4z M507.9,217.9c0,0.1-0.1,0.1-0.1,0.2c-0.1-0.1-0.1-0.2,0.1-0.4l0.4,0.1
	C508.3,217.9,508.1,217.9,507.9,217.9z M496.3,221.4c0-0.1-0.1-0.2-0.1-0.4c0.2,0.2,0.3,0.4,0.5,0.6
	C496.5,221.6,496.4,221.5,496.3,221.4z M498.3,220.7c-0.5,0.1-1,0-1.4-0.3c0.4,0,0.3-0.3,0.6-0.3
	C497.4,220.5,498.6,220.2,498.3,220.7z M434.8,232.1l-0.1-0.2c0.1,0,0.1,0,0.2,0l0.1,0.2L434.8,232.1z M123.4,218.8
	c0-0.1,0-0.3,0-0.4C123.6,218.3,123.6,218.9,123.4,218.8z M125,218.6c-0.4,0-0.3-0.5,0-0.6C125.1,218.2,125.2,218.5,125,218.6
	L125,218.6z M125.4,218h-0.2v-0.1h0.2L125.4,218z M46,399.6h-0.5v-0.5H46V399.6z M47.7,352.6c-0.2,0-0.2,0.1-0.2,0.3H47
	c0-0.2-0.1-0.2-0.2-0.3v-0.5c0.2,0.1,0.2-0.1,0.2-0.3h0.5c0,0.2,0.1,0.2,0.2,0.3L47.7,352.6z M47.2,268.5c-0.5,0.5-1.4-0.5,0-0.3
	V268.5z M49.1,404.5c-1.4,0.4-1.3-1-1-1.9C49,402.5,49.2,403.3,49.1,404.5L49.1,404.5z M48.9,253.7H48c0.2-0.6-0.7-0.9,0-1.2h0.9
	C49.6,252.8,48.7,253.1,48.9,253.7z M54.9,418.4c0.1-0.3,0.6-0.2,0.7,0C55.8,419,54.7,419,54.9,418.4L54.9,418.4z M56.1,420
	c-0.1-1,1.3-0.3,1.9-0.5C57.9,420.2,56.5,420.6,56.1,420L56.1,420z M156.3,218.4c1-0.2,2.1-0.2,3.1,0c1.1,1.8-2.8,2-4.5,2.7
	C154.3,220.1,156.2,219.4,156.3,218.4z M152.6,220.2c0.2,0.6,2,0.9,1.4,1.4c-0.7-0.1-1.4,0-2,0.3l0,0c-0.8,0.1-0.9-0.4-1.6-0.6
	c-0.3,0-0.3,0.3-0.6,0.4c-0.4-0.4-0.9-0.1-1.4-0.3C149.9,221.4,151.3,221,152.6,220.2z M149.3,222.3c0.3,0.1,1-0.2,1,0.2
	C150,222.4,149.3,222.7,149.3,222.3z M149.8,223.2l-0.3,0.1c0-0.1,0.1-0.2,0.3-0.2c0,0,0,0,0,0L149.8,223.2z M148.8,223.5
	c-0.2,0-0.5,0-0.7-0.1c0,0,0-0.1,0-0.1c0.3-0.2,0.4-0.6,0.9-0.6C149.1,223.1,148.8,223.1,148.8,223.5
	C148.8,223.4,148.8,223.4,148.8,223.5z M144.9,224c0.3-1.3,1.3-2.3,2.6-2.7c0.2,0,0.5,0.1,0.8,0.1c0,0.1,0.2,0.2,0.1,0.5
	c-0.5,0.5-1.3,0.8-2,0.7c-0.2,0.2-0.2,0.6-0.6,0.7c0,0.3,0.3,0.3,0.3,0.7c0,0.4-0.4,0.2-0.7,0.2h-0.5l0.1-0.1L144.9,224z
	 M140.1,223.7c2.1-0.2,2.4,0.7,4.5,0.5l-0.1,0.1l0.1,0.1c0,1.2-2.5,2-4.8,2.2c0,0,0,0,0-0.1c-0.4-0.2-0.7-0.5-1-0.8
	c-0.5,0.2-1.1,0-1.5-0.3h-0.2C138.1,224.7,139.2,224.2,140.1,223.7z M132.8,227.3c0.1,0.1,0.1,0.1,0.1,0.2c-0.6,0.4-1.4,0.9-0.5,1.7
	c0,0.1,0,0.2-0.1,0.3l-0.1,0.1C130.4,229.6,130.5,226.9,132.8,227.3z M120.9,236.7c0.6,0.5,1.1,1.1,1.6,1.6c0.3,0,0.3-0.4,0.8-0.3
	s0.2,0.5,0.5,0.7c0.9,0,1.1-1.1,2.1-0.8c0.2-0.2,0.4-0.4,0.6-0.6c0.3,0.1,0.2,0.6,0.5,0.7c0.2,0,0.3-0.1,0.5-0.2
	c0.1-0.5-0.2-0.6-0.3-0.9c0.2-0.8,1.1-1.2,1.2-2c0-0.3-0.2-0.5-0.3-0.8c0.1-0.2,0.2-0.3,0.3-0.1c0.1,1.1,0.1,2.1,0,3.2
	c-0.9,0.3-1.4,2.3-1.9,3.9c-0.4-1.4-0.6-0.8-1.1-0.7s-0.7-0.9-0.9-0.7c-0.5,0.4-0.7,3.4-1.2,2.5c-0.3-0.8-0.4-1.6-0.3-2.5
	c-0.5-0.6-1.2-1-2-1.1c0-0.8-0.1-1.5-0.4-2.3C120.5,236.4,120.7,236.5,120.9,236.7z M119.8,235v0.2
	C119.8,235.1,119.7,235.1,119.8,235L119.8,235z M109.2,224.6c0,0.1,0,0.2,0,0.3c0,0-0.1,0.1-0.1,0.1L109.2,224.6z M108.5,225.1
	c-0.1,0-0.3,0-0.4,0C107.5,223.3,109,220.8,108.5,225.1z M108.6,226.3c0,0,0.1-0.1,0.2-0.1c0.4,0,0.8,0.1,1.2,0.2
	c0,0.8,0,1.5,0.1,2.1c-0.3,1.3-1,1.3-1.1,3.5c0,0.2,0,0.5,0,0.7c-0.1,0-0.2,0.1-0.3,0.1v-0.1c-0.1-0.7-0.3-1.5-0.7-2.1
	C108,229.2,108.2,227.8,108.6,226.3z M106.1,237.7c-0.2,0-0.3-0.2-0.5-0.6c0-1,0-2,0.1-2.9c0.2,0.3,0.5,0.4,0.8,0.2
	c0.2-0.1,0.4-0.5,0.4-0.6c0.1-0.6-0.5-0.8-1-1c0-0.5,0.1-1,0.2-1.4c0.2,0,0.4-0.1,0.5-0.2c0-0.2-0.2-0.4-0.4-0.4
	c0.3-1.2,0.6-1.6,1-0.5c0,1.3,0,2.6-0.1,3.8C106.7,235.2,105.6,235.9,106.1,237.7z M105.8,227c0.1-0.2,0.2-0.3,0.4-0.3
	c-0.1,0.4-0.2,0.7-0.3,1.1C105.8,227.5,105.8,227.2,105.8,227z M105.7,219.7c0.9-0.8,1.1,1.7,1.2,4.2c-0.1,0.3-0.2,0.6-0.3,0.9
	c0.1,0,0.2-0.1,0.3-0.1c0.1,0.1,0.1,0.3,0.1,0.4c-0.4,0.2-0.7,0.5-1.2,0.4c-0.2-0.1-0.3-0.2-0.5-0.4
	C105.6,223.7,105.4,220.7,105.7,219.7z M105.1,224.9c-0.1,0-0.2,0-0.2,0c-0.2-0.3-0.3-0.6-0.5-0.9
	C104.8,223.8,105,224.3,105.1,224.9z M104.7,233.5c-0.3-0.1-0.6-0.2-0.8-0.4C104.1,232.3,104.4,232.7,104.7,233.5z M103.7,234.7
	c0.1,0,0.1,0,0.2,0c0.4,0,0.7-0.4,0.8-1c0.1,0.5,0.2,1,0.2,1.5c0,2.6-0.8,1.4-1.2,0C103.7,235.1,103.7,234.9,103.7,234.7z
	 M101.6,222.7h-0.4C101.4,222.4,101.5,222.4,101.6,222.7z M99,221.2c0.5,0.6,0.4,1.4-0.2,1.9c0,0-0.1,0-0.1,0.1
	C98.5,222.8,98,221.4,99,221.2z M97.5,221.2c0.4-0.3,0.4,4-0.1,3.2C97.3,223.3,97.3,222.2,97.5,221.2L97.5,221.2z M97.6,232.2
	c0.4,0.2,0.5,1.1-0.6,0.9C96.6,232.8,96.5,232,97.6,232.2L97.6,232.2z M96.1,218.5L96.1,218.5c0.1,0.1,0,0.2,0,0.2
	C96.1,218.7,96.1,218.6,96.1,218.5z M91.7,225.9c-0.8,0.3-1.7,0.5-2.6,0.3c-0.8-0.2-0.8-0.9-1.1-1.4
	C89.3,224.3,90.8,224.7,91.7,225.9z M91.4,408.1c-0.1,0.2-0.2,0.3-0.2,0.5h-0.5v-0.8C91,407.7,91.1,408.1,91.4,408.1z M88.2,221.9
	L88.2,221.9c0.2,0.2,0.4,0.4,0.6,0.6c0,0,0,0.1,0,0.1c-1.6,0.2-3.6,0.6-4-0.5C85.9,221.7,87.1,221.7,88.2,221.9z M86.5,236.6
	c-0.2,0.1-0.5,0.1-0.8,0.1c-0.3-0.2-0.3-0.5-0.3-0.9c0.1,0.2,0.2,0.4,0.3,0.6C86,236.5,86.2,236.5,86.5,236.6z M85.2,224.3
	c-0.3,0-0.5,0.1-0.8,0.2c-0.1-0.3-0.2-0.6-0.4-0.8C84.8,223.7,85.4,223.8,85.2,224.3z M85,235.4h-0.2v0.2c-0.8,0.1-1.5,0-2.3-0.2
	c-0.1-0.3,0.3-0.3,0.3-0.6c0.5,0.1,1.2,0.2,1.6,0.3C84.7,235.2,84.9,235.3,85,235.4z M84.7,227.7L84.7,227.7z M83.8,227.8
	c0.2,0.2,0.4-0.1,0.7,0c0.1,0.4-0.1,0.6-0.3,0.7c-0.3-0.5-0.8-0.9-1.4-1.1c0.3,0,0.5,0,0.8,0C83.7,227.6,83.8,227.7,83.8,227.8z
	 M82.9,223.7c0.2,0,0.2,0.1,0.3,0.1c0,0.2-0.2,0.2-0.4,0.2C82.8,223.9,82.8,223.8,82.9,223.7z M83,224.7l0.1,0.3
	c-0.2,0.1-0.4,0.3-0.6,0.5c-0.1,0-0.2,0-0.3-0.1C82.3,225,82.4,224.6,83,224.7L83,224.7z M81.4,226.8h0.2v0.2h-0.2V226.8z
	 M80.1,226.7c0.4-0.1,0.7,0.1,0.9,0.4h-0.9V226.7z M78.7,227c0.1,0.1,0.1,0.3,0.1,0.4c-0.2-0.1-0.7,0.2-0.6-0.2
	C78.4,227.3,78.4,227,78.7,227L78.7,227z M75.5,229.6c0.5,0.5,1.1,0.8,1.8,1.1c-1,0.3-1.9-0.7-3-0.6c-0.2,0-0.3,0.1-0.5,0.2
	c-0.1-0.1-0.2-0.1-0.3-0.2C74.2,229.8,74.8,229.7,75.5,229.6z M67.7,230.4c0.2,0.2,0,0.8,0.2,1.1c0.7,0.2,0.9-0.4,1.1-1
	c0.3,0,0.6,0,0.9,0c0,0.1,0,0.1,0.1,0.2l0.1-0.2c0.7-0.1,1.4,0,2.1,0.2c-0.2,0.2-0.5,0.4-0.7,0.6c-0.5,0.1-1.1,0.2-1.7,0.3
	c-0.1-0.1-0.1-0.2-0.2-0.4c-0.3,0.1-0.6,0.3-0.9,0.5c-0.4,0-0.9,0-1.3,0c-0.1-0.3-0.5-0.1-0.9-0.2v0.1c-0.4,0-0.7-0.2-1-0.4
	C66.2,230.8,66.9,230.2,67.7,230.4z M66.9,237.8c0.1-0.2,0.1-0.5,0-0.7c0.1-0.2,0.1-0.4,0.2-0.5l0.3,0.1l0.3-0.1
	c0.1,0.8,1,1.1,1.4,1.7c-0.2,0.6-0.8,0.7-1.3,0.6c0.1-0.1,0.1-0.2,0.1-0.3C67.8,237.9,67.2,238,66.9,237.8z M69.6,235.4
	c-0.6,0.4-1.3,0.7-2,0.8l-0.3-0.1l-0.3,0.1c-1.4-1.3,0-2.9,2-2.7c0.3,0,0.6,0.1,0.8,0.2c-0.2,0.2-0.3,0.4-0.4,0.6
	C69.5,234.8,69.5,235.1,69.6,235.4L69.6,235.4z M70.7,239.8c-0.7,0.1-1.4,0-2-0.2C68.6,239.1,70.6,239.5,70.7,239.8z M65.6,232.6
	h0.6v0.3h-0.6V232.6z M68,390.9c-0.5,0.4-2.2,0.4-2.4-0.3C65.6,389.4,68.2,389.6,68,390.9L68,390.9z M66.5,418.7
	c0.2,0.2,0.1,0.7,0.5,0.8c0,0.8-0.6,1.4-1.4,1.4c-0.1,0-0.2,0-0.3,0c-0.1-0.2-0.2-0.5-0.5-0.5C64.9,419.1,65.4,418.6,66.5,418.7
	L66.5,418.7z M64.5,258.6c-3.3-0.3-5,4.2-6.5,1.1c0.6-0.2,1.8,0,2-0.5c0.1-1.8,1.9-2.7,4.3-3.3C65,256.4,65.5,257.9,64.5,258.6z
	 M63.7,387.5c-0.1,0.4-0.4,0.4-0.5,0.8c-0.3-0.1-0.4-0.5-0.7-0.5c0.1-0.3,0.4-0.4,0.5-0.8C63.3,387,63.3,387.4,63.7,387.5z
	 M57.7,234.9v-0.6c0.7,0,1.4,0,1.4,0.3C58.5,234.7,58.4,235,57.7,234.9z M64.5,247.5l-0.1,0.2l0.1,0.2c0,1-0.7,0-1.1,0
	c-1.1-0.1-3.1,0.5-3.1-0.3c0.4,0,0.3-0.3,0.6-0.5c0.4,0,0.8,0.1,1.2,0.1c0.1,0.4,0.3,0.6,0.7,0.6c0.4,0,0.5-0.1,0.6-0.4
	C63.7,247.4,64.1,247.4,64.5,247.5z M59.9,226.8c0,0.1,0,0.3,0,0.4c0.3,0.4,0.7,0.8,0.5,1.6c0.7,0,0.9,0.4,1,1.1
	c0.6,0.1,1.3,0.3,1.8,0.6c-1,0.2-1.4,0.8-2.5,1c-0.9-0.2-1-0.8-1.4-1.2c-0.7,0.5-1.5,0.5-2.3,0.2c-0.1-0.2-0.1-0.4-0.1-0.6
	c0.1-0.3,0.6-0.1,0.7-0.3c0-0.7-0.2-1.1-0.9-1.1c0-0.3,0-0.5,0.1-0.8C57.9,227.7,59,227.4,59.9,226.8z M57.4,255.1
	c0.3,0.8-2.8,0.9-2.8,0.2C54.8,254.9,56.8,254.9,57.4,255.1z M56.1,233.1c0.2-0.2,0.4-0.3,0.6-0.5h0.4
	C56.8,232.9,56.5,233.1,56.1,233.1z M56.5,225.2c0.5,0.2,1.5,0.2,1.7,0.6c-0.8,0.2-1,0.8-1.4,1.2v0c-0.2-0.2-0.4,0-0.5,0.1
	c-0.3-0.5-0.8-0.9-1.2-1.3C55.6,225.7,56.1,225.5,56.5,225.2z M49.7,235.2c0.4,0,0.9-0.1,1.4-0.1c0,0.2-0.1,0.3-0.1,0.6
	c0.2,0.2,0.6,0.4,0.9,0.3c0.1-0.3,0.2-0.6,0.2-0.9c0.7,0,1.4,0.2,2,0.4c-0.1,0.3-0.1,0.6,0.1,0.8c0.2-0.1,0.4-0.1,0.5-0.1
	c0-0.1,0-0.2,0.1-0.3c0.1,0.1,0.2,0.2,0.3,0.4C53.3,236.4,49.6,236.9,49.7,235.2L49.7,235.2z M52.3,257.1c-0.4,0-0.5,0.3-0.8,0.3
	c-0.1-0.2-0.5-0.3-0.6-0.5c0.4,0,0.5-0.3,0.9-0.3C51.8,256.9,52.2,257,52.3,257.1L52.3,257.1z M50.8,357.6h0.7
	c0.5,0.6,0.1,1.5-0.2,1.9C50.6,359.1,50.4,358.3,50.8,357.6C50.7,357.7,50.8,357.6,50.8,357.6z M52.2,389.9
	c-1.3-1.1,0.1-4.2,1.4-2.4C53.9,389,53.3,389.7,52.2,389.9z M53.7,237.8c0.2,0,0.4-0.1,0.6-0.3c0.6-0.1,1.2,0,1.7,0.4
	c0,0.1,0.1,0.1,0.1,0.1c0.1,0.1,0.1,0.2,0.1,0.3c-0.4,0-0.3,0.3-0.6,0.5C54.4,238.7,53.7,238.4,53.7,237.8z M54.4,367.4
	c-0.1-1.5,3.3-4.1,4.5-2.6c0.9,0.1,0.9-0.8,1.7-0.8c0.3,0.7,0.4,1.4,0.2,2.1c-1.4,0.3-2.9,0.4-4.3,0.3
	C55.8,366.7,55.5,368.4,54.4,367.4L54.4,367.4z M59.4,368.5v0.5C58.2,369.2,58.9,367.6,59.4,368.5L59.4,368.5z M58.2,401.8
	c-0.6,0.2-1.2-0.1-1.4-0.7c0,0,0,0,0-0.1C57,398.9,59.6,400.5,58.2,401.8L58.2,401.8z M57.4,407.6c-0.7-1.1-0.9-2.9-1.4-4.2
	c0.4-0.5,1.4-0.2,2.1-0.3c0.4,1.4,2.1,1.3,1.9,3.4C59.4,407.3,58.4,407.7,57.4,407.6L57.4,407.6z M60.8,395.5h-0.7
	c-0.6-0.6,0.2-1.1,0-2.1h0.7C60.6,394.3,61.4,394.8,60.8,395.5L60.8,395.5z M61,405.5c0.3-0.9,2.3-1.1,2.9-0.3
	C63.4,406.4,62,405.7,61,405.5L61,405.5z M63.2,410.5c-0.5-0.3-0.7-1.2,0.2-1.1C63.5,410,63.3,410.1,63.2,410.5L63.2,410.5z
	 M63.2,413.1c-0.7,0-0.6-1.2-0.2-1.6C63.6,411.5,63.5,412.8,63.2,413.1L63.2,413.1z M61.5,424.5c-0.1-2.8,3-2,4.5-1.9
	C65.8,424.5,63,424.8,61.5,424.5L61.5,424.5z M64.4,431.9c-0.2-2.3,1.9-2.1,2.4-3.7c1.1,0,1,1.4,1.2,2.4
	C66.7,430.9,66.1,432,64.4,431.9L64.4,431.9z M68.2,426V425c0.6,0,0.7,0.4,1.2,0.5C69.4,426.1,68.8,426.1,68.2,426L68.2,426z
	 M67.5,419.7c-0.3-3.3,2.5-1.2,2.4,0.5C69,420.4,68.2,420.2,67.5,419.7L67.5,419.7z M68.5,383.2c1.3-5.3,2.7,2.4,5.5,1.9
	c0.9,1.1,0.5,3.6-0.2,4.5c-2.2-0.9-3.7-3.1-3.6-5.6C70,383.3,69,383.6,68.5,383.2L68.5,383.2z M70.4,403.8c0-1.3,1.7-0.4,2.6-0.5
	c0.3-0.1,0.9-1.7,1,0l-0.1,0.3l0.1,0.3c-1.2,0.1-1.9,0.7-3.1,0.8C70.6,404.4,70.7,403.9,70.4,403.8L70.4,403.8z M71.3,412.8
	c0.2-0.8,1.6-1.2,1.7,0C72.2,413.2,72.2,412.9,71.3,412.8L71.3,412.8z M74.7,420.2c-0.3,0.9-0.2,2.2-1.7,1.8
	c-0.5-0.7-0.2-1.7,0.5-2.2c0.3-0.2,0.8-0.3,1.1-0.2l-0.1,0.3L74.7,420.2z M75.4,429h-0.5v-0.5h0.5L75.4,429z M74.9,420.2L75,420
	l-0.1-0.3c0.8-0.5,2.5-2.4,2.9-0.3c-0.3,1.1-1.1,1.6-1.2,2.9l-0.2-0.1l-0.2,0.1C76,421.3,75.9,420.3,74.9,420.2L74.9,420.2z
	 M77.8,427.4c-1.7,0.4-2.8-2.3-1.7-4.5l0.2,0.1l0.2-0.1C78.5,423.3,80,426.8,77.8,427.4L77.8,427.4z M77.5,417.1
	c0.3-0.4,1-0.3,1.7-0.3C79.1,417.3,77.4,418.1,77.5,417.1L77.5,417.1z M79.4,233.1c-0.2-0.3-0.7-0.3-0.8-0.7
	c0.1-0.4,0.5-0.3,0.6-0.7c-0.8,0.1-1.5-0.3-1.8-1c0.5,0.2,1,0.4,1.6,0.5c-0.3-0.7-0.3-1.5,0.2-2.1l0.9,0.7c0.4,0,0.2-0.4,0.4-0.6
	c0.3,0,0.6-0.1,0.8-0.2c2.3,0.9,1.1,3.4-0.7,4.3c-0.4,0-0.8,0-1.2,0C79.5,233.1,79.4,233.1,79.4,233.1z M80.6,235.4
	c-0.1,0.1-0.2,0.2-0.3,0.2c0-0.2,0-0.4-0.1-0.5C80.4,235.2,80.5,235.3,80.6,235.4L80.6,235.4z M86.6,435.6c-0.7-1.3-0.8-2.8-0.5-4.2
	c-1.2,0.6-2.2,1.5-2.9,2.6c-0.6-0.1-1.2-0.4-1.7-0.8c0.2-0.7,0.8-0.8,1.2-1.3c-0.1-2.8-3.6-1.9-3.1-5.3c1.7-0.3,2.2-2,3.3-2.9
	c0.8,0,0.8,0.9,1.4,1.1c0.5-0.2,0.7-0.8,0.7-1.6c0.9,0.2,2,0.2,2.4,1.1c-0.5,1.4-2.8,0.8-2.4,3.2c0.1,0.9,1.6,0.4,2.4,0.5
	C89.3,429.6,90.4,435.5,86.6,435.6L86.6,435.6z M91.2,423.9v0.3h0.2c-0.3,0.7-1.2,0.8-1.9,1.1c0-0.5-0.3-0.6-0.2-1.1
	C89.6,423.8,90.4,424,91.2,423.9L91.2,423.9z M89.4,437.7c0.7-0.5,1.1-1.3,1.2-2.1h0.8C91.6,437.2,90.7,437.6,89.4,437.7z
	 M90.1,431.1c0.5-0.6,1.3-0.1,1.7,0.3C91.8,432.8,89.9,433,90.1,431.1L90.1,431.1z M91.6,423.9l0.1-0.1l-0.1-0.1
	c-0.1-0.5,0-1.1,0.2-1.6c0.8-0.2,0.7,0.4,1.2,0.5C92.9,423.4,92.5,424,91.6,423.9L91.6,423.9z M93.1,231.8c-0.1-0.3-0.2-0.5-0.2-0.8
	c-0.2,0-0.1-0.3-0.3-0.2c-0.1-0.6-0.3-1.1-0.7-1.5C92.1,225.6,93.4,227.6,93.1,231.8z M93.3,433.1c0.2-1,1-0.2,1.7-0.3
	C94.9,433.7,93.6,433.5,93.3,433.1L93.3,433.1z M93.8,235.1c0.1-0.1,0.3-0.2,0.4-0.2c0.1,0.2,0.4,0.3,0.3,0.6h-0.4
	C94,235.4,93.9,235.3,93.8,235.1L93.8,235.1z M94,222.7c-0.1-0.1-0.1-0.2-0.2-0.3c0.2-0.1,0.5-0.3,0.7-0.4c0.5,0.1,0.8,0.2,0.9,0.6
	C94.9,222.7,94.4,222.7,94,222.7z M95.9,224.5c0.1-0.1,0.2-0.3,0.1-0.4c0,0,0-0.1-0.1-0.1h-0.1l0,0c0-1.7,1-2.6,0.9,0
	C96.5,224.6,96.1,225.5,95.9,224.5z M96.5,235.6v-0.5c0.6-0.2,2.6-0.3,2.5,0.3C98.9,236,96.9,235.8,96.5,235.6z M99,425
	c-0.5-0.3-0.7-1.2,0.2-1.1C99.3,424.5,99.1,424.6,99,425L99,425z M99.4,234.6c-0.5,0.2-0.6-1-0.7-2.8c0.3,0.2,0.7,0.4,1,0.6
	C99.6,233,99.6,234.2,99.4,234.6z M99.3,221c-0.3-0.7,1.2-1,2-0.6C101.5,221.1,100,221.3,99.3,221z M100.3,236.8
	c-0.2-1-0.2-2.7-0.3-4.1c0.2,0.1,0.3,0.1,0.5,0.2c0.3,0.1,0.6,0.2,1,0.2c0.4,0,0.7-0.4,1-0.6c0.1,0.5,0.2,1,0.4,1.4
	c0,1.4,0,2.9-0.1,4.3c3.5,0.4,2.4,4.2,1.4,5.5l0,0c0-0.5-0.6-0.9-1.3-1c0.2-0.8,0.2-1.7,0-2.6c-0.2-0.3-0.3-0.6-0.6-0.8
	c-0.2-0.4-0.5-0.8-0.7-1.1h0.2C101.3,237.3,100.9,235.9,100.3,236.8L100.3,236.8z M102.7,250.9c0.6,0,0.4-0.4,1.1-0.3
	C105.3,251.1,102.8,252.1,102.7,250.9z M101.1,434.5c0-0.1,0.5-0.5,0.7-0.3C102.3,434.7,100.8,435.5,101.1,434.5z M101.9,429.8
	c-0.9,0.2-0.8-1.2-0.5-1.6C102.3,427.9,102.2,429.4,101.9,429.8L101.9,429.8z M100.9,424.8V424c0.4-0.3,2.1-0.6,2.2,0.3
	C103.1,425.2,101.4,425.2,100.9,424.8L100.9,424.8z M103.3,262.3c-0.4-0.6-0.4-1.4,0-2C104.7,260.4,104.9,262.3,103.3,262.3z
	 M105,419.4c-0.9-1.7-0.3-5.1-0.5-7.7c0.7-0.8,1.7-2.1,2.9-1.6C108.3,412.7,109.3,420.4,105,419.4z M107.1,398.6
	c-0.7,0.2-0.5-0.5-1-0.5C106.3,396,108.4,397.7,107.1,398.6z M106.6,378.8c1.4,0,1.2,3.3,0,3.4C106.3,381.1,106.3,379.9,106.6,378.8
	z M161.8,352.2c-1.3,2.7-3.2,5.1-5.6,6.8c-2.4,1.7-5.2,3-8.1,3.6c-3.1,0.7-6.4,1.1-9.6,1h-31.8c-1.3,0-2.4-1-2.4-2.4c0,0,0,0,0,0
	v-68.8c0-1.3,1-2.4,2.4-2.4c0,0,0,0,0,0H137c3.1,0,6.2,0.3,9.2,1.1c2.8,0.6,5.4,1.8,7.8,3.5c2.3,1.6,4.1,3.8,5.4,6.3
	c1.5,2.9,2.2,6.2,2.1,9.5c0.1,2.8-0.7,5.5-2.3,7.8c-1.3,2-3,3.8-4.9,5.2c-1.2,0.9-1.1,1.6,0.2,2.3c1.1,0.6,2.2,1.4,3.2,2.2
	c1.1,0.9,2.2,2,3,3.2c0.9,1.4,1.7,2.8,2.2,4.4c0.6,1.9,0.9,3.8,0.8,5.7C164,345.1,163.3,348.8,161.8,352.2L161.8,352.2z
	 M321.5,405.7c0.4-0.1,0.4,0.2,0.7,0.3c0.5,0.8,0.3,2.7-0.7,2.6C320.9,408,320.7,406.3,321.5,405.7z M300.5,217.3
	c0.6,0.5,1.3,1.1-0.6,1.1C299.7,218,299.7,217.5,300.5,217.3z M295.7,219.5c0.4,0.2,0.4,0.6-0.3,0.6
	C295.1,219.9,295,219.5,295.7,219.5z M294.3,220.4c0.6,0.1,0.3,0.9-0.3,0.8C293.8,221.1,293.3,220.2,294.3,220.4z M288.1,227.3v0.3
	C287.5,228.1,286.7,227.1,288.1,227.3z M268.2,235.4c-0.5,0.2-0.9,0.2-1.4,0.2C266.3,234.9,268.3,235,268.2,235.4z M261.4,236
	c-0.1,0.5,0.3,1.2-0.6,1.2C260.4,237,260.2,235.9,261.4,236z M248.7,241.8c0.4,0.2,0.4,0.9-0.6,0.8
	C247.5,242.3,248.1,241.9,248.7,241.8z M248.9,259.3c0.9,0.7-1.4,1.1-1.4,0.2C248,259.3,248.5,259.3,248.9,259.3L248.9,259.3z
	 M239.2,233.6l0.1-0.1c2.3-0.3,5.5,0.3,5.1,2c-3.2,0.8-3.7-1.3-5.4-1.9L239.2,233.6z M244.2,247.3v0.5h-0.9v-0.5L244.2,247.3z
	 M242.4,240.7c-0.8,0.2-1.7,0.2-2.6,0C239.4,240.1,242.9,239.9,242.4,240.7z M240.2,236.3C240.9,235,242.3,236.9,240.2,236.3z
	 M233.6,256.8c0.8-0.2,1.6-0.1,1.7,0.5c-0.6,0.1-1.1,0.1-1.7,0V256.8z M236.2,261.7c0.3,0.2,0.4,0.5,0.3,0.8c-0.6,0.2-1.4,0.2-2,0
	C234.7,262,235.1,261.7,236.2,261.7L236.2,261.7z M230.8,226.3c0.7,0,1.4,0,1.4,0.5c-0.7,0.1-1.2,0.3-1.7,0
	C230.5,226.6,230.7,226.5,230.8,226.3z M233.4,259.7c0,1-3.6,1.1-3.1-0.2C231.2,259,232.2,259.5,233.4,259.7z M231.7,257.8
	c0,0.8-1.4,0.3-2.3,0.3C229.4,257.6,231.1,257.5,231.7,257.8z M228.8,225.9c-0.4,0.2-1.7,0.3-1.7-0.2
	C227.5,225.5,228.8,225.4,228.8,225.9z M220.9,225.7c-0.1-0.6,0-1.1,0.9-1.2c1.2,0.8,2.6,1.2,4,1.1
	C225.7,227.2,222.1,225.8,220.9,225.7L220.9,225.7z M225.1,240.3v0.5h-0.9C224.2,240.4,224.5,240.2,225.1,240.3L225.1,240.3z
	 M222.6,245.9c0-0.2,0.1-0.3,0.3-0.5c0.5,0,0.6,0.2,1.1,0.2C224.2,246.1,223,246.1,222.6,245.9L222.6,245.9z M222,248.6h-0.6
	c0-0.2-0.2-0.2-0.3-0.3C221.6,248.3,222.2,248.2,222,248.6z M224.3,220.4c1.8-0.2,1.3,1.4,0.3,1.4
	C224.1,221.5,224.4,220.9,224.3,220.4z M220.6,217.7c0.7-0.2,1.5-0.2,2.3,0C223.1,218.8,220.2,219,220.6,217.7z M222,219.5
	c0.2,0.7-2.1,0.5-2.3,0.1C220.5,219.3,221.3,219.2,222,219.5z M219.5,238.1c-0.7,0-1.2,0.3-1.4-0.2
	C218.4,237.7,219.4,237.7,219.5,238.1z M217.8,218.1c-0.4,0.2-1.7,0.3-1.7-0.2C216.4,217.7,217.8,217.6,217.8,218.1L217.8,218.1z
	 M217.8,225.7c-0.1,0.5-0.2,1-1.1,1.1c-0.2-0.5-1.1-0.7-1.1-1.2C216.2,225.3,217.1,225.4,217.8,225.7L217.8,225.7z M215.8,234.2v0.6
	c-0.4,0-0.8,0-1.1-0.2C214.6,234.2,215,234.1,215.8,234.2L215.8,234.2z M213.2,224.2c0.2-0.1,1.8-0.3,2,0c-0.7,0.2-0.4,1-1.4,1.1
	C213.2,225.1,213.1,224.7,213.2,224.2L213.2,224.2z M214.4,239.8c-0.4,0.1-0.7,0.2-1.1,0.2v-0.5
	C213.9,239.4,214.3,239.5,214.4,239.8z M210.4,247.9c-0.4-0.2-0.4-0.9,0.6-0.8C211.6,247.5,211,247.8,210.4,247.9L210.4,247.9z
	 M210.4,223.4C210.1,222.5,211.6,223.3,210.4,223.4z M210.7,225.6c0,0.1,0.2,0.2,0.3,0.3c-0.3,0-0.3,0.1-0.6,0.2
	c0-0.2-0.2-0.2-0.3-0.3C210.4,225.7,210.4,225.6,210.7,225.6L210.7,225.6z M209.3,224.2c-1,0.1-0.8,0.9-2,0.9
	c-0.4-0.5-0.8-1.1,0-1.4C208.1,223.7,209,223.8,209.3,224.2L209.3,224.2z M209.6,249c-0.5,1.2-2.2,1.8-4.2,2.2
	c-0.4-0.2-0.3-0.7-0.3-1.1C206.5,249.7,207.2,248.4,209.6,249L209.6,249z M202.5,217.4c2.9,0.1,0.2,2.8,1.7,3.4
	c1.1,0.1,2.1-0.7,3.1-0.1c-1,0.2-0.4,1.2-0.9,1.7c-0.9,0.3-1.9,0.5-2.8,0.5c0.4-1-1.6-0.7-2-1.2c-0.2-0.6,0.3-0.8,0.3-1.3
	c-0.5-0.3-1.8-0.2-1.7-0.8C200.7,218.7,201.9,218.3,202.5,217.4z M198.8,223.8c1.4-0.3,3.1-0.5,4.5-0.8
	C203.5,224.5,199.7,225.2,198.8,223.8z M202.5,230.2v-0.4C203.3,229.5,203.3,230.5,202.5,230.2L202.5,230.2z M199.1,238
	c3.8-0.2,1.1,3.4-1.1,1.7C198.3,239.2,198.6,238.6,199.1,238L199.1,238z M199.9,228.2c0.2,0.4,0.6,1.1,0,1.4h-0.9
	C198.8,229.2,198.7,228.3,199.9,228.2L199.9,228.2z M202.2,251.7C201.1,253.2,199.1,250.9,202.2,251.7z M194.5,218.7
	c0.9-0.3,4.5-0.7,4.5,0.3c-0.9,0.5-2.8,0.4-4.2,0.6C194.5,219.4,194.5,219.1,194.5,218.7L194.5,218.7z M196.8,227.3
	c-1.1,0.1-1.6-0.2-1.4-0.8c0.7,0.1,0.6-0.3,1.4-0.2c0,0.1,0,0.2,0.3,0.2C197.3,226.9,196.7,226.9,196.8,227.3L196.8,227.3z
	 M194.5,227.7c1.3-0.1,2.4,0,2.3,0.8C195.4,228.8,193.8,228.7,194.5,227.7L194.5,227.7z M194,247.3c-0.7,0.7-1.6,1.2-2.6,1.4
	c-0.6-0.5-0.2-1.4,0.3-1.7C192.5,246.9,193.2,247,194,247.3L194,247.3z M189.7,240.9c0-0.8,1.2-1,1.4-1.7c0.8-0.1,1.5,0,2.3,0.3
	C193.1,240.5,191.8,240.9,189.7,240.9L189.7,240.9z M192.3,223.7c0.4,0.5,0,0.8-1.1,0.8C190.7,224,191.1,223.7,192.3,223.7
	L192.3,223.7z M191.4,220.1c0.7,0,1.1,0.2,1.1,0.6c-0.5,0.2-0.9,0.2-1.4,0.1C191,220.6,191.2,220.2,191.4,220.1z M188.9,219.8
	l0.1,0.2l0.2,0.1c-0.2,1.2,2.1,1.2,2,2.4C188.1,224.5,186.2,220.4,188.9,219.8z M188.3,246.6c0.1-1.1-2.2-0.9-2.3-1.9
	C187.7,244.2,190.6,246.1,188.3,246.6L188.3,246.6z M182.1,240.8c3.6-0.1,5.8,3.3,1.4,3.8C182.3,243.6,179.9,242,182.1,240.8
	L182.1,240.8z M178.7,219.8c-0.6,0.3-1.3,0.4-2,0.3C175.7,219.3,178.4,219,178.7,219.8L178.7,219.8z M170.7,218.7c0.5-0.3,1,0,1.7,0
	c0,0.5-0.7,0.6-1.1,0.8C171.2,219.2,170.5,219.2,170.7,218.7L170.7,218.7z M173,415.2c-1.8-2.2,0.2-4.9,1.2-6.3
	C177.9,409.6,176.1,415.3,173,415.2L173,415.2z M176.3,408.6c0.1-1.7,2-1.3,1.9-3.2C180.2,406.1,177.7,409.4,176.3,408.6
	L176.3,408.6z M180.6,417.9c-0.2-1.2-1.2-1.5-1.2-2.9c1.7,0,2.8,0.7,3.1,2.4C182,417.8,181.3,418,180.6,417.9L180.6,417.9z
	 M181.1,404.7c-0.6-0.9-0.6-2-0.2-2.9c0.9,0.6,1.7,1.4,2.1,2.4C182.5,404.6,181.8,404.8,181.1,404.7L181.1,404.7z M183.5,437.2
	c-0.6-1.6,0.7-1.8,1.9-1.3C185.6,437.1,184.6,437.3,183.5,437.2L183.5,437.2z M188,436.4c-1-0.1-0.9-1.7-0.7-2.4h0.7
	C188.5,434.5,188.2,435.7,188,436.4L188,436.4z M187.3,419.7c-0.4-0.9-0.7-1.9-1-2.9C188.2,413.9,190.5,420,187.3,419.7L187.3,419.7
	z M189.9,396.7C187.3,397.9,189.1,394,189.9,396.7z M190.2,433.7v-0.8C190.9,432.5,190.9,434.1,190.2,433.7L190.2,433.7z
	 M192.3,399.4c0-0.7-0.1-1.5,0.2-1.9c1.7,0.6,3.2,1.6,3.6,3.7C194.2,402.3,193.6,400,192.3,399.4L192.3,399.4z M197.3,404.4
	c-0.8,0.2-0.9-0.9-0.5-1.3C197.4,403.3,197.8,403.9,197.3,404.4L197.3,404.4z M199.2,417.3v-0.8c0.5-0.1,0.6,0.2,1,0.3
	C200.2,417.3,199.8,417.4,199.2,417.3L199.2,417.3z M201.4,426.3c-0.6,0.1-1-0.1-1-0.8c0.3-0.2,0.6-0.3,1-0.3V426.3z M203.3,420
	c0.2-0.8,0.6-0.3,1.2-0.3C204.5,420.4,203.6,420.3,203.3,420L203.3,420z M205.9,402.5c0-0.2,0.2-0.3,0.2-0.5h0.5
	C206.8,402.6,206.3,402.5,205.9,402.5L205.9,402.5z M208.3,407c-0.4,0-0.5,0.3-0.9,0.3c-0.2-0.2-0.2-0.5-0.2-0.8
	C207.5,406.1,208.5,406.1,208.3,407L208.3,407z M209.3,416c-0.5,0-0.8-0.2-0.7-0.8h0.7V416z M212.9,385.9c0.7,0,1.9-0.8,1.9,0.5
	C214.3,386.9,212.9,386.7,212.9,385.9L212.9,385.9z M213.6,383.5c-0.4-2.2,2.6-1.9,2.6-0.3C215.3,383.6,214.3,384.3,213.6,383.5
	L213.6,383.5z M216.4,388v-0.8c0.4-0.2,1-0.2,1.4,0C217.8,388.2,217.1,388.3,216.4,388z M217.1,378.5c0.5-0.4,1.2-0.4,1.7,0
	c0.1,0.5,0,0.9-0.2,1.3C217.7,379.8,217.3,379.3,217.1,378.5L217.1,378.5z M219.3,385.4c-1.5-0.2-2.9-2.9-1.2-4.8
	c2.1,0,3.3,1,4.8-0.3c0.4-1.7-1-2.6-0.7-3.4c1.6,0.6,1.7-0.4,2.4-1.3c1,0.2,1.3,1.2,1.7,2.1c-1.6,0.4-2.5,1.7-2.1,4.2
	C222.3,382.3,221.5,385.7,219.3,385.4L219.3,385.4z M225.3,403.4v0.8h-0.7v-0.8H225.3z M221.7,415.2c0.3-0.3,1.9-0.5,2.1,0
	C224.3,416.5,221.3,416.3,221.7,415.2L221.7,415.2z M221.9,422.6C223.7,421.6,222.6,424.9,221.9,422.6z M221.2,427.4l-0.1-0.1
	l-0.1-0.1c1.4-1,1.8-4.4,4.5-3.2C225.8,426.8,223.1,427.8,221.2,427.4L221.2,427.4z M226.7,420.5c-1,0.1-1.5-0.3-1.4-1.3
	C226.2,418.4,227.3,419.6,226.7,420.5L226.7,420.5z M227,378.8c0.2-0.2,0.2-0.5,0.2-0.8c0.6-0.1,0.6,0.5,0.7,1.1
	C227.4,379.1,227.3,378.8,227,378.8L227,378.8z M229.1,413.4c-0.5-0.2-1-0.8-0.5-1.3C229.4,411.9,229.5,413,229.1,413.4L229.1,413.4
	z M229.3,383.8c-0.4,0.1-0.9,0-1.2-0.3C228.1,381.9,230.1,382.5,229.3,383.8L229.3,383.8z M219.6,363.7c-0.8,0-1.5-0.2-2.2-0.5
	c-0.7-0.3-1.3-0.8-1.8-1.4c-2.1-2.8-4.2-5.7-6.4-8.5c-2.1-2.9-4.2-5.8-6.2-8.7c-0.5-0.6-1-1-1.7-1.4c-0.6-0.3-1.4-0.5-2.1-0.5h-2.2
	c-1.3,0-2.4,1.1-2.4,2.4c0,0,0,0,0,0v16.3c0,1.3-1.1,2.4-2.4,2.4c0,0,0,0,0,0h-15.1c-1.3,0-2.4-1.1-2.4-2.4c0,0,0,0,0,0v-68.7
	c0-1.3,1-2.4,2.4-2.4c0,0,0,0,0,0h31.2c3.7,0,7.3,0.7,10.8,2c3.1,1.2,6,3.1,8.4,5.5c2.3,2.4,4.2,5.2,5.4,8.3c1.4,3.4,2,7,2,10.6
	c0,2.1-0.3,4.3-0.8,6.4c-0.5,2.1-1.2,4.1-2.2,6c-0.9,1.8-2,3.5-3.3,5.1c-1.2,1.5-2.7,2.7-4.3,3.8c-0.5,0.4-0.8,0.9-1,1.5
	c-0.2,0.6,0,1.2,0.4,1.6c2.5,3.3,5.2,6.8,8,10.4c2.8,3.6,5.3,6.8,7.5,9.7c0.4,0.5,0.5,1.2,0.3,1.8c-0.1,0.6-0.7,1-1.3,1L219.6,363.7
	z M239.8,423.2c-1,0.3-0.8-1.7-0.5-2.1C240.1,421.1,239.8,422.3,239.8,423.2L239.8,423.2z M240.4,263.4c-0.4-0.5,1.3-1,0.9-2
	c-1.7-0.7-3.2-0.1-5.7-0.2c-2-1.1-0.3-2.7,1.4-2.8c2.6-0.2,3.6,1.8,5.7,2c-0.4,1.5,0.6,2.3,2.6,2.5c-0.4,0.7-1.2,1.2-2,1.3
	C242.5,263.4,241.4,263.1,240.4,263.4z M244.4,423.9c0.4-0.1,0.9,0,1.2,0.3C245.6,424.9,244,425.1,244.4,423.9z M244.2,238.4
	c-0.1-0.6,0.6-0.8,1.7-0.8C246.5,238.2,245.2,238.9,244.2,238.4L244.2,238.4z M246.2,262.3c0.4-0.1,0.7-0.2,1.1-0.2
	c-0.1,0.3-0.1,0.7-0.9,0.6C246.4,262.6,246.3,262.4,246.2,262.3L246.2,262.3z M282.9,427.6v-0.8c0.5-0.5,1.9-0.4,2.1,0.3
	C285,428.1,283.3,428.1,282.9,427.6L282.9,427.6z M285.7,415.2c1-0.2,0.5,1.4,1.2,1.6C286.1,417.7,285.3,416.4,285.7,415.2
	L285.7,415.2z M309.1,435.3c-1.9,0.4-1.4-1.8-0.7-2.6C309.3,433.2,309.6,434.4,309.1,435.3L309.1,435.3z M311.1,333.3
	c0.1,4.4-0.7,8.8-2.2,13c-1.4,3.7-3.6,7.1-6.5,9.9c-2.9,2.8-6.3,5-10.1,6.4c-8.5,3-17.8,3-26.3,0c-3.8-1.4-7.2-3.6-10.1-6.4
	c-2.9-2.8-5.1-6.2-6.5-9.9c-1.6-4.1-2.4-8.6-2.3-13v-40.6c0-0.6,0.2-1.3,0.7-1.7c0.4-0.5,1.1-0.7,1.7-0.7h15.1
	c0.6,0,1.3,0.2,1.7,0.7c0.5,0.5,0.7,1.1,0.7,1.7v40.7c-0.1,2.2,0.4,4.4,1.3,6.5c0.7,1.6,1.8,2.9,3.1,4c1.2,0.9,2.5,1.6,4,2.1
	c2.5,0.8,5.2,0.8,7.7,0c1.4-0.4,2.8-1.1,3.9-2.1c1.3-1.1,2.4-2.5,3.1-4c0.9-2,1.3-4.3,1.3-6.5v-40.7c0-0.6,0.2-1.3,0.7-1.7
	c0.4-0.5,1.1-0.7,1.7-0.7h15.1c0.6,0,1.2,0.2,1.7,0.7c0.5,0.4,0.7,1.1,0.7,1.7V333.3z M312.4,233.8v-0.5c0.6-0.2,2.6-0.3,2.5,0.3
	C314.7,234.1,313,234.1,312.4,233.8z M315.8,240.7c-0.4-0.7,0.5-1.5,1.4-0.9C316.4,239.9,317.1,240.8,315.8,240.7L315.8,240.7z
	 M318.6,219.9C319.4,218.6,320.8,220.5,318.6,219.9z M319.5,227.2c0,0.2,0,0.5-0.6,0.5C318.9,227.5,319.2,227.3,319.5,227.2
	L319.5,227.2z M322.4,429.2c-0.7,0.6-1.7,0.9-2.6,0.8c-2.2-2.4,0.3-7.1,2.4-4.8C322.8,426,322.8,427.8,322.4,429.2L322.4,429.2z
	 M526.7,226.7c-0.3-0.3-0.6-0.6-0.9-0.9c-0.4,0.1-0.9-0.1-1.1-0.5C525.9,225.3,526.7,225.9,526.7,226.7z M526.1,222.6
	c-0.5,0.1-0.9,0.1-1.4,0C524.2,221.8,526.6,221.8,526.1,222.6z M522.1,224.5c-0.7-0.3-0.6-0.9,0.6-0.9
	C523.1,223.8,523.2,224.6,522.1,224.5L522.1,224.5z M522.7,221.5c-0.5,0.3-1.3,0.5-1.8,0.8c-0.6-0.5-1.3-0.9-1.9-1.4
	c0-0.2,0-0.4,0-0.5C520.3,220.6,521.5,220.9,522.7,221.5L522.7,221.5z M521.2,244.6l0.2,0c-0.1,0.2-0.2,0.4-0.3,0.6
	C521.1,245,521.1,245,521.2,244.6L521.2,244.6z M518.5,241.9c0.2-0.3,0.4-0.5,0.7-0.7c0-0.2,0.1-0.3,0.1-0.5
	c0.7,0.1,1.3,0.4,1.9,0.8C520.4,242,519.5,242.1,518.5,241.9L518.5,241.9z M518.7,223.5L518.7,223.5c1.4,0.3,1.5,0.9,1.2,1.4
	c-0.8,0.1-1.7,0.2-2.7,0.3C517.5,224.5,518,223.9,518.7,223.5L518.7,223.5z M510.9,223c0.1,0.1,0.2,0.3,0.3,0.4H511
	C510.8,223.4,510.7,223.2,510.9,223L510.9,223z M511,227.6c1.4-0.1,3.8,0.9,4.2-0.1c-1-0.1-1.9-0.3-2.8-0.6c0-0.8-0.6-1.4,0.6-1.7
	c0.8,0.3,1.7,0.7,2.4,1.2c-0.1,1.3,1.8,1.4,2.2,2.4c0.2,0,0.5,0,0.7,0.1l0.7,0.7c-0.9,0.3-2.7,0.1-2.3,1.1c0.3,0,0.3,0.1,0.6,0.1
	c1.1-0.2,2.2-0.3,3.3-0.3c0.2,0.3,0.3,0.6,0.5,0.9l0.2,0.1c-1.8,0.3-3.5,0.5-5.3,0.5c-0.1-0.1-0.2-0.2-0.3-0.3
	c0.2-0.2,0.9-0.3,0.8-0.7c-2-0.2,0.2-1.9-2-2c-1.1,0-0.9,0.6-1.9,0.6l-0.2-0.1c-0.3-0.8-1.1-1.1-1.7-1.5
	C510.7,227.8,510.9,227.7,511,227.6L511,227.6z M515.6,248.8c0.9-0.1,1.3,0.1,1.1,0.6C516,250,514.7,249.3,515.6,248.8L515.6,248.8z
	 M513.9,247.6c-0.2-0.4,0.2-0.6,0.3-0.9c0.5,0.1,0.9-0.1,1.2-0.4c0.6,0.4,1.5,0.5,1,1.5C515.6,247.8,514.8,247.7,513.9,247.6
	L513.9,247.6z M515.9,245.5c0.1-0.2,0.1-0.3,0.1-0.5c0.3,0.1,0.6,0,0.8-0.2c0.2-0.6-0.3-0.4-0.3-0.8c0.3,0,0.6,0,0.9-0.1
	c0.1,0.4,0.5,0.6,0.6,1.1C517.2,245.2,516.6,245.4,515.9,245.5L515.9,245.5z M512.5,247.6c-3,1-1.7-1.6-0.6-2.2
	c0.3-0.1,0.7-0.1,1-0.1c0.1,0.2,0.2,0.3,0.4,0.4c0.1,0.2,0.2,0.4,0.1,0.7h0.1c-0.5-0.1-1,0-1.4,0.3
	C512,247.2,512.7,247.1,512.5,247.6L512.5,247.6z M507.9,252c1-0.2,2.5-0.2,2.5-0.9c-0.9-0.6-1.4-1.7-1.4-2.8c1.7,0.1,1.3,1.4,4,0.9
	c2.3,1.4,0.3,2.3-0.6,3.6c-0.3,0.4-0.1,1-0.3,1.1c-0.9,0.7-3.3,1.4-4.5,0.5c0.9,0.1,0.8-0.4,1.1-0.6
	C508.3,253.2,507.7,252.9,507.9,252L507.9,252z M507.4,254.8v0.6c-0.6,0.1-1.1,0.1-1.7,0C505.3,254.7,506.7,254.5,507.4,254.8z
	 M504.6,241.8c1.1-0.1,1.7,0.1,1.7,0.6c-0.6,0.2-1.4,0.2-2,0C504.2,242.2,504.6,242.1,504.6,241.8L504.6,241.8z M503.7,238.2
	c0.5,0.3,0.5,1.3-0.9,1.1C502.9,238.8,502.6,238.1,503.7,238.2L503.7,238.2z M503.2,233.2c1,0,1,0.8,0,0.8V233.2z M502.9,236.8
	c0.5,0,0.9,0.2,0.8,0.5c-0.4,0.3-0.8,0.4-1.3,0.3C502.6,237.4,502.8,237.1,502.9,236.8z M502.3,244.3c0.5,0.5,1.1,0.9,1.1,1.7
	c-1.3,0.7-3,0.1-3.7-1.2c0,0,0,0,0-0.1C500.5,244.5,501.4,244.3,502.3,244.3L502.3,244.3z M500.6,239.4c0.2,0,0.4,0,0.6,0
	c0.2,0.9-0.6,1.1-1.4,0.9C500,240,500.3,239.7,500.6,239.4L500.6,239.4z M495.2,238.4c0.2,0,0.4,0,0.6,0.1c0.2,0.2,0.3,0.3,0.5,0.5
	c0.2,0.5-0.1,1.4,0,2c-1.1,0.3-1.8-0.2-3.1-0.2C495,240.3,495.2,239.5,495.2,238.4L495.2,238.4z M493.8,242.1
	c1.8,0.4,1.8,1.7,4.2,1.7c-1.2,1.5-4.2-0.1-5.1-0.6C493.1,242.8,493.4,242.4,493.8,242.1L493.8,242.1z M490,239.4h-0.2
	c-0.1-0.5-0.6-0.7-0.9-1C489.4,238.7,489.8,239,490,239.4L490,239.4z M487.3,248.8c1.4-0.7,1.9-2.4,2.8-3.7c0.1,0.7,0.2,1.4,0.8,1.8
	c1.3-0.1,1.5-0.8,2.5-1.1c1,0,1.3,0.4,2.3,0.5c1,0,0.4-1,1.7-0.9c1.3,1.5-2.7,1.3-3.4,2.2c0.9,0.2,0.1,1.3,1.1,1.4
	c1.5-0.9,3.7-0.6,5.4-1.2c0.2,0.6,0.5,1.1,0.9,1.6c-1.2,0.2-1.6,0.9-2.8,1.1c-1.4-0.2-1.9-0.9-3.7-0.9c0,1-2.1,0.9-2.8,1.6
	c1.4,0.4,2.7,0.9,4,1.4c1.4,0,2.4-0.4,3.1,0.2c-0.4,0.6-0.5,1.5-0.3,2.2h-3.7c-1.7-2-7-2.2-5.4-5.6c-0.8-0.2-1.7-0.2-2.5-0.1
	L487.3,248.8z M500.6,255.9c0.5,0.2,0.2,0.6-0.3,0.8C500.5,256.5,500,255.9,500.6,255.9L500.6,255.9z M487.3,249.5v-0.2
	c1,0.2,1.5,1,0.8,1.5c-0.6,0-1.1-0.3-1.5-0.6C486.8,250,487.1,249.7,487.3,249.5L487.3,249.5z M485.7,251.5c0.5-0.1,1.1-0.1,1.6,0
	c0.6,1.6-1.9,2.1-2.3,1L485.7,251.5z M485,233.7c-0.1,0.2-0.1,0.5-0.3,0.7l0,0c-0.2-0.2-0.5-0.1-0.8-0.2c-0.2-0.1-0.3-0.2-0.4-0.4
	C484.2,233.6,484.7,233.5,485,233.7L485,233.7z M479.1,241.7c0.1-0.6-0.5-0.9-0.3-1.6l0.6-0.1c0.8,0.5,1.5,1.1,2.2,1.8
	c0.7,0.1,1.2,0.4,1.3,0.8c0.6,1.8-1.8,2.6-2,4c-0.7-0.4-0.7-1.2-0.6-2c-0.6-0.2-1.3-0.3-1.9-0.4c0.2-0.1,0.3-0.3,0.3-0.5
	c0-0.7-0.6-1-1.4-1c-0.2-0.2-0.3-0.4-0.5-0.6C477.6,241.9,479,242.2,479.1,241.7L479.1,241.7z M480.4,247c-0.2,0.3-0.5,0.5-0.8,0.4
	c-0.1,0.1-0.2,0.3-0.2,0.4c-0.5-0.1-0.9-0.2-1.4-0.2v-1.3C478.7,246.7,479.6,246.9,480.4,247L480.4,247z M477.4,245.4
	c-0.1,0.1-0.2,0.2-0.3,0.3H477C477.1,245.6,477.2,245.5,477.4,245.4L477.4,245.4z M478,239L478,239l0.5,0.4
	c-0.3,0.5-1.6,0.7-2.2,0.6C475.9,239.2,477.5,239.4,478,239L478,239z M476,252.6h-0.9c-0.7-0.8-0.8-2-0.3-3
	C477.9,249.8,475.1,252,476,252.6L476,252.6z M475.4,256.1v0.3h-0.6v-0.3L475.4,256.1L475.4,256.1z M475.1,248.2
	c0.2-0.1,0.4-0.2,0.5-0.4l0,0c0.3,0.2,0.3,0.6,0.6,0.8c-0.5,0.4-1.1,0.6-1.7,0.8c0.1-0.1,0.3-0.3,0.4-0.4
	C474.9,248.6,475.2,248.6,475.1,248.2L475.1,248.2z M475.5,241.2c0.2,0.1,0.3,0.2,0.4,0.4h-0.2C475.7,241.4,475.6,241.2,475.5,241.2
	L475.5,241.2z M476.9,238L476.9,238c-2,0.5-4.7-0.4-3.2-1.3C475.1,236.9,475.7,237.6,476.9,238L476.9,238z M475.2,230.3
	c0.1,0,0.2-0.1,0.2-0.1c0.3,0.2,0.5,0.5,0.5,0.9c-0.4,0.2-0.9,0.4-1.3,0.5c-0.4,0-0.8,0-1.2,0.1h-0.1h-0.5c-0.3-0.3-0.6-0.6-0.8-0.9
	C473.1,230.7,474.2,230.5,475.2,230.3L475.2,230.3z M469.2,235.1v0.5H469l-0.6-0.5C468.6,235.1,468.9,235.1,469.2,235.1L469.2,235.1
	z M466.2,243.3l0.5,0.3c-0.2-0.1-0.4-0.1-0.6-0.2L466.2,243.3z M465.4,245.4c1.4,0,1.1,0.8,1.1,1.6h0.5c0,0.1,0,0.3-0.1,0.4
	l-0.1,0.1c-0.5-0.3-1.1-0.5-1.8-0.6C465.2,246.2,464.6,245.8,465.4,245.4z M464.6,248.7h-1.4C462.9,248,465,247.9,464.6,248.7
	L464.6,248.7z M464,250.9c0,0,0,0.1-0.1,0.1l-0.2-0.1L464,250.9z M462,241.9c0.9,0,1.4,0.2,1.4,0.6c-0.2,0-0.3,0.1-0.3,0.3H462
	c-0.3-0.1-0.4-0.4-0.3-0.7C461.7,242,461.9,241.8,462,241.9L462,241.9z M462.9,249.2c-0.5,0.4-1.1,0.6-1.8,0.5
	c0.4-0.3,0.7-0.7,0.8-1.2C462.3,248.7,462.6,248.9,462.9,249.2L462.9,249.2z M460.3,238.8c0.4,0.4,0.9,0.8,1.4,1.1
	c-0.9,0.2-1.8,0.2-2.7,0C459.2,239.4,459.7,239,460.3,238.8z M458.4,240.6c-0.4,0-0.4,0.2-0.8,0.2l-0.1-0.2
	C457.4,240.3,458.5,240.3,458.4,240.6z M450.8,250c0.1,1.1-2.9,0.8-3.1,0C448.7,249.7,449.7,249.7,450.8,250L450.8,250z M446.8,245
	c-0.2,0-0.4,0.1-0.5,0.2c-0.2-0.1-0.3-0.2-0.5-0.4c-0.4-0.2-0.8-0.1-0.8-0.6c-0.3,0.1-0.4-0.2-0.8-0.1c-0.5-0.5-1-1-1.5-1.5
	c0.4-0.1,0.8-0.2,1.2-0.2C446.2,242.6,445.1,244.2,446.8,245L446.8,245z M443.8,406.2c-0.1,1-0.4,2.1-1,2.9c-0.8,0-1.6-0.2-2.1-0.8
	C440.9,406.7,442.1,405,443.8,406.2L443.8,406.2z M439.8,235.9c0.6-0.1,1-0.3,1.1-0.7c0.9-0.1,1.9-0.2,2.8-0.1
	c0.5,0.3,0.9,0.7,1.1,1.3c-0.8,0-1.6,0.1-2.3,0.2c-0.1-0.1-0.3-0.1-0.5-0.2c-2.2,1-0.8,2.1,0.8,2.3c0.1,0.2,0.3,0.3,0.5,0.4
	c0.3,0.1,0.6,0.2,0.9,0.2c0.4,0.6,0.9,1.1,1.4,1.6c-0.9,0.4-2,0.6-3,0.3c-0.8-0.7,0.2-1.2,0.6-1.7c-1-0.7-1.8,0.2-3.4,0
	c-1.5-1,1-2.2-0.1-3.6L439.8,235.9z M441.2,388.3c0.4,0.3,0.6,0.8,0.3,1.2c0,0,0,0.1-0.1,0.1c-0.6,0-0.2-0.9-0.3-1.3L441.2,388.3z
	 M441.2,240.4c-0.2,0.1-0.4,0.3-0.5,0.5c-0.4-0.2-0.8-0.4-1.2-0.5c0-0.4-0.4-0.4-0.6-0.7C439.9,239.8,440.9,240,441.2,240.4
	L441.2,240.4z M437.4,248.2c0.3,0.5,1.4,0.5,1.4,1.1C437.2,250.3,435.6,248.8,437.4,248.2z M432.9,247.1
	C436.6,246.9,433.2,248.8,432.9,247.1z M432.9,250.3c-1,0.2-2.7,0.5-2.8-0.3C430.7,249.6,432.7,249.5,432.9,250.3L432.9,250.3z
	 M432,252.8c-0.4,0.1-0.8,0.2-1.1,0.2C430.4,252.5,432.1,252.5,432,252.8z M428,240.9c1,0.7,2,1.3,3.1,1.7c0,0.1,0.1,0.2,0.1,0.3
	h0.5l0.7,0.3c0,0,0,0,0,0.1c-0.9,1-3.2,0.2-4.8,0C428,242.3,425.9,241.1,428,240.9L428,240.9z M426.3,244.8c0.2,0.1,0.8,1.2-0.3,1.1
	C425.6,245.6,425.7,244.9,426.3,244.8z M424.6,239.5c1.1-0.2,1.1,0.9,0,0.8C424.6,239.9,424.1,239.8,424.6,239.5L424.6,239.5z
	 M423.6,234.9c0.1,0,0.3,0,0.3,0.1c0,0.1,0,0.3-0.1,0.3c-0.1,0-0.1,0-0.2,0C423.4,235.1,423.6,235.2,423.6,234.9L423.6,234.9z
	 M422.7,235.1c0.2,0.2,0.1,0.8,0.3,0.9s0.3-0.2,0.7-0.1c0,0.4,0.1,0.7,0.2,1.1c-0.4-0.4-1-0.6-1.5-1.1c-0.3-0.3,0-0.6-0.3-0.8
	c-2.4-1.7-6.4-2.2-2.5-3.8c0.2,0,0.5,0,0.7,0c0,0.3,0,0.5,0,0.8C421.5,232.7,421.6,234.5,422.7,235.1L422.7,235.1z M420.4,228.2
	c0.7,0.5-1.6,0.5-0.9,1.6c0.7-0.1,1.5-0.2,2.2-0.1c0,0.2-0.1,0.3-0.2,0.5c-0.4,0.1-0.8,0.2-1.1,0.5c-1.5-0.3-2-1.1-4-1
	C416.6,228.6,419.4,228.3,420.4,228.2z M413,230.7c1.3-0.3,2.7-0.3,4,0c0.3,0.4-1.1,1.1-2,1.4C414.7,231.5,412.9,231.6,413,230.7
	L413,230.7z M414.7,234.6c-0.3,0.8-2.8,0.6-2.3-0.5C413.4,233.9,414.8,233.9,414.7,234.6L414.7,234.6z M414.2,226.5
	c0.7-0.4,1.6-0.4,2.3,0C416.6,227.5,414.1,227.4,414.2,226.5L414.2,226.5z M412.8,218.4c3.3-0.2,4.8,0.6,7.4,0.8
	c0.5,0.8,0.6,1.7,2.5,1.7c0.2,0.7-0.1,1.5-0.9,1.7c-1.2-0.1-2.3-0.6-3.1-1.4c-2.1-0.6-4.7-0.1-6.5,0.3c0.8,0.8,4,0.3,4.8,1.1h-3.7
	c-0.2,0.6-0.8,0.9-1.4,0.9c-0.5-0.3-0.2-0.9-0.3-1.4c-0.6-0.2-1.6-0.2-2-0.5C411.4,221,411.2,219.2,412.8,218.4L412.8,218.4z
	 M411.1,223.7v0.6c-0.7,0-1.4,0-1.4-0.3C410.2,223.9,410.1,223.5,411.1,223.7L411.1,223.7z M409.9,228.8c0.6-0.2,1.6-0.1,2.3-0.3
	c2.7,2.1-5.1,1.8-4.2,4.4c-0.3,0-0.6,0.1-0.9,0.2c-0.7-0.2-1.3-0.6-1.7-1.2C406.8,230.8,409.9,230.7,409.9,228.8z M406.7,402.2
	c-0.1-2.2,1.9-3,2.9-1.3C409.2,401.9,407.9,403.1,406.7,402.2L406.7,402.2z M409.8,411.8c0,0.3,0,0.5,0.2,0.5c0,0.7-0.4,1.1-1.2,1.1
	c-0.3-0.5-0.3-1.1,0-1.6H409.8z M408.8,244.3c-0.2-0.5-1-0.7-1.1-1.2c0.4-0.2,1-0.1,1.4-0.3c0.5,0.3,0.8,0.8,0.9,1.4
	C409.4,244.1,409.3,244.3,408.8,244.3L408.8,244.3z M398.9,238.5c-0.7,0.8-1.6,1.4-2.5,1.9C393.6,239.5,395.9,237.4,398.9,238.5
	L398.9,238.5z M395.2,233c1-0.6,2.2-0.8,3.4-0.5C398.4,233.7,395.3,235,395.2,233L395.2,233z M398.3,241c-0.2,0.6,0.5,0.7,0.3,1.2
	c-0.4,0-0.5,0.3-0.9,0.3C397.3,242.1,396.6,241.1,398.3,241L398.3,241z M398.6,240.6c1.3-0.5,2.6-0.8,4-0.9
	c-0.5-0.6-0.6-1.4-1.7-1.7c-4.2,0.5-4.4-1.2-3.4-2.5c1.7-2.1,9.5-2.1,11,0.2c0.5,0.7,0.1,1.5,0.3,2.8c-0.5,0.3-1.8,0.1-1.7,0.6
	c0.1,0.6,1.1,0.9,0.9,1.7c-0.7,0.4-1.4,0-2.3,0c-0.9,0.3-0.3,1.5-0.9,2C402.6,242.1,401,241.1,398.6,240.6L398.6,240.6z
	 M403.7,230.2c0.9,0,1.8,0.6,1.1,1.1C403.4,231.4,403.2,230.8,403.7,230.2L403.7,230.2z M403.7,227.2c1.2-0.6,3.7,0.8,2,1.2
	C405.3,227.9,403.3,228.3,403.7,227.2L403.7,227.2z M405.4,222.4c0.3,0.9-1.8,1.3-1.1,1.9c0.5-0.1,1.1-0.3,0.6-0.6
	c0.9-0.1,1.9,0,2.8,0.2c-1.5,1.1-3,2.9-5.4,3c-0.3-0.4,0.5-0.9,0-0.9c-2-0.1-2.1-1.3-2.8-2.2C403.1,224.3,402.4,221.2,405.4,222.4z
	 M399.7,227.3c-0.4,0.9-1.3,1.5-2.3,1.4c0.2-1,0-1.9-1.1-2.2C398.5,226.2,398.2,227.2,399.7,227.3L399.7,227.3z M394.6,229.8
	c1.1,0.2,2.3,0.2,3.4-0.1c0.6,0.2,1.1,0.4,1.7,0.6c0.1-0.4,0.6-0.7,1.4-0.8c0.6,0.1,1.2,0.3,1.7,0.8c-0.4,0.3-0.9,0.6-1.4,0.8
	c0.2,0.3,0.7,0.4,0.6,0.9c-1.6,0.8-2.6-0.8-4.2-0.9c-0.5,0.2-1.1,0.3-1.7,0.3C395.1,231.1,393.7,230.5,394.6,229.8L394.6,229.8z
	 M392.1,229v0.5h-0.9C391.2,229.1,391.4,229,392.1,229L392.1,229z M395.2,236.3c-1.2,0.5-1.7,1.5-3.7,1.6c0.1-0.5-0.6-0.5-0.6-0.9
	C392.1,236.8,394.1,235.1,395.2,236.3L395.2,236.3z M393.5,243.5c-1.6,0-1.1-1.1,0-1.2C393.7,242.7,394,243.2,393.5,243.5
	L393.5,243.5z M390.4,241.2c-1.2,0.1-0.7-0.9-2-0.8c-0.5,0.4-1.1,0.7-1.7,0.8c-1.1-0.8,0.4-2.1,1.4-2.7
	C389.4,239.1,391.2,240,390.4,241.2L390.4,241.2z M386.7,233.5c0.9,0.5,1.8,1.2,2.5,2C386.6,236.4,385.7,234.7,386.7,233.5
	L386.7,233.5z M385.3,236.8c0.8-0.2,1.7-0.2,2.5,0c0,1-1.5,1.2-2.5,1.6C384.7,238,385,237.2,385.3,236.8z M378.7,229.9h0.6v0.3h-0.6
	V229.9z M377,242.9c1.6-0.1,1.1,1,2.3,1.2c-0.8,0.1-1.5,0-2.3-0.2V242.9z M371.7,222.7c1.6,0.6-1.3,1.5-1.4,0.3
	C370.8,223,370.7,222.6,371.7,222.7z M374.5,245.7c-0.2,0.5,0.5,0.5,0.3,0.9c-1.7,0.8-3.8,0.2-4.8-1.4
	C371.3,244.9,373.1,245.6,374.5,245.7L374.5,245.7z M366.3,220.4h0.6v0.3h-0.6V220.4z M362.9,238.1c-0.7,0.3-1.5,0.3-2.3,0
	C360.6,237.3,363,237.2,362.9,238.1z M360.3,219c-0.3,0.1-0.6,0-0.9-0.2C359.1,218.2,360.9,218.7,360.3,219z M358.9,222
	c0.4,0.2,0.4,0.9-0.6,0.8C357.9,222.5,357.9,221.8,358.9,222L358.9,222z M357.8,223.7c0.5,0,0.6-0.2,1.1-0.2c0.9,0.4,0.6,1.5,0,1.9
	l-0.3,0.1l-0.3,0.1C358.1,225,357,224.3,357.8,223.7L357.8,223.7z M356.4,226.5c0.6-0.4,1.3-0.6,2-0.6l0.3-0.1l0.3-0.1
	c2,1.1-0.6,3.7,1.7,4.5c-1.4,0.5-2,1.3-4,1.4c-0.4-0.7-0.3-1.7-0.6-2.5C358.7,228.7,356.6,227,356.4,226.5L356.4,226.5z M356.4,232
	c1.1-0.1,2.1,0.1,3.1,0.5c0.4,0.8,0.5,1.9-0.3,2.4C356.7,236.2,353.7,233.4,356.4,232L356.4,232z M359.2,246.2
	c-0.4,0-0.4,0.2-0.9,0.2c-0.5-0.2-0.7-0.8-0.5-1.2c0.1-0.2,0.3-0.4,0.5-0.5C359.6,244.6,359.7,245.8,359.2,246.2L359.2,246.2z
	 M347.3,222.4c-2,0.1-1.9,1.3-3.1,1.9C342.4,222.9,346,220.8,347.3,222.4z M342.7,230.4c-0.8-0.5-1.5-1.8,0.9-1.6
	C344.3,229.4,343.6,230.2,342.7,230.4L342.7,230.4z M342.5,217.7h0.9c0,0.4-0.2,0.5-0.9,0.5V217.7z M336.2,218.2
	c1.8,0,2.3,0.7,3.7,0.9c0.5-0.2,1.1-0.4,1.7-0.5c0,0.4,0.5,0.7,0.6,1.1c-1.5,0.7-3.5,3.5-5.4,1.6c-1.8,0.1-2.9-0.2-3.4-0.8
	C334.5,220,335.5,219.2,336.2,218.2z M333.1,224.8c0.8-0.2,1.5-0.2,2.3,0c-0.1,0.3-0.1,0.7-0.9,0.6
	C334.3,225,332.9,225.4,333.1,224.8z M323.4,419.7c0.5-0.5,1.3-0.6,1.8-0.1c0,0,0.1,0.1,0.1,0.1C325.4,421.1,323.4,421,323.4,419.7z
	 M335.1,406.8c-1.2,0.3-2.7,1.4-3.8,0.8c0.6-1.8,2.2-4.3,4.1-2.4C335.5,406,334.9,406,335.1,406.8z M339.1,433.5h-0.5V433h0.5V433.5
	z M337.2,411.6v-1.9c0.4-0.4,1.2-0.2,1.9-0.3C338.2,409.8,338.6,411.6,337.2,411.6L337.2,411.6z M344.2,419.2c0.9,0.7,2.1,1,2.1,2.6
	c-0.5,0.5-1.6,0.2-2.1,0C343.9,421.2,343.7,419.8,344.2,419.2L344.2,419.2z M345.4,427.4c-0.8-1.9,0-4.9,2.1-3.4
	C346.9,425.2,346.2,426.3,345.4,427.4L345.4,427.4z M346.5,419c-0.9-1-2.1-3.1-1.2-4.5c0.7,0.2,1,0.8,1.4,1.3
	c1.1,0.1,0.6-1.4,1.7-1.3C349.1,416.5,347.7,418,346.5,419L346.5,419z M349.9,435.1c-0.5,0.1-0.8-0.2-0.7-0.8h0.7V435.1z
	 M348.9,421.6c-0.1-0.8,0.5-0.8,0.5-1.6c1.7,0.2,2.1,1.8,3.1,2.6C351.6,424.7,349.9,421.9,348.9,421.6L348.9,421.6z M351,410.5
	c0.5,0.5,0.2,1.5,0,2.1C350.1,412.4,349.7,410.4,351,410.5L351,410.5z M355.1,414.7c-1.4,0-0.8-1.8-0.5-2.6c0.3,0.1,0.4,0.5,0.7,0.5
	C355.5,413.6,355,413.7,355.1,414.7L355.1,414.7z M355.6,419c-2.5,2-4.5-1.6-2.1-3.2C354.3,416.7,355,417.8,355.6,419L355.6,419z
	 M355.3,429c-1,0.5-2.2,0.1-2.9-0.8C352.6,425,355.3,427.1,355.3,429L355.3,429z M357.5,434.2c-0.7-0.1-1.2-0.6-1.2-1.3
	c-0.4,0.4-0.9,0.8-1.4,1.1c-0.9-0.5-1.9-0.6-2.9-0.3c-0.8-1.2,0.4-2.3,1.2-2.6c0.8-0.1,0.9,0.4,1.4,0.5c1.4-0.2,2.2-3,3.6-1.6
	c0.1,0.8-0.3,1-0.5,1.6c0.5,0.4,0.9,0.8,1.2,1.3C358.6,433.5,358.3,434.2,357.5,434.2L357.5,434.2z M354.4,424.2
	c-0.9-2.1-0.6-5,2.9-4.2c1-0.5,1-1.8,1.4-2.9c-1.2-0.2-2.4-0.8-3.4-1.6c2-0.9,3.4-2.6,5.2-3.7c0.5,0.9,0,2.8,0.7,3.4
	c0.7,0,1.4-0.6,1.9,0c0.2,1.5-0.6,1.8-0.7,2.9c-0.1,1.1,1,0.6,1.4,1.1c-0.2,2.2,0.1,3.6-0.2,4.8
	C362.4,427.8,355.8,427.8,354.4,424.2L354.4,424.2z M363,411.2c0.2-0.9,0.7-1.3,1-2.1c0.4,0,0.5,0.3,1,0.3c0,0.8-0.3,1.7-0.7,2.4
	C363.9,411.5,363.3,411.5,363,411.2L363,411.2z M359.6,432.9c-0.4-0.9-0.2-2,1-1.9c0.4,0.6,0.2,1.3-0.4,1.7
	C360.1,432.8,359.9,432.9,359.6,432.9L359.6,432.9z M366.8,435.8c-0.5-0.3-1.4-0.2-1.9-0.5c0-3.1-2.6-3.3-3.8-5
	c0.2-0.9,0.7-1.6,1.4-2.1c0.2,0.2,0.5,0.3,0.7,0.3C362.6,432.7,369.1,432.3,366.8,435.8L366.8,435.8z M368.9,425.5
	c0,1.2-1.1,1.2-1.9,0.8C366.6,424.6,368.7,424.2,368.9,425.5L368.9,425.5z M370.8,432.1c-1.1,0.4-2.3,0.4-3.3,0
	c-0.1-1.5,1.4-1.3,1.7-2.4C370,430.2,371.2,431.4,370.8,432.1L370.8,432.1z M374.7,414.1c0,0.8,1,3.3-0.5,4c0,1.1,1.2,1,1.2,2.1
	c-1.3,0.1-0.9,2.1-2.6,1.8c0.1-2.8-0.8-5.9-2.4-5.8c-2.4,0.2-0.6,4.7-1.9,6.1c-1.2-1-2.4-1.9-3.8-2.6c0.5-0.5-0.1-2.4,0.5-2.9
	c1-0.3,0.7,1,1.4,1.1c0.9-0.6,2.2-0.8,2.4-2.1c0.1-1.2-1.4-0.6-1.4-1.6c0.4-1.3,1-2.4,2.4-2.6c0.1,0.2,0.2,0.5,0.5,0.5
	c0.2,1.4-1.2,1.2-1.2,2.4c2.9,1.4,3-4.3,6.9-3.4c0.4,1.1,0.8,2.3,1,3.4C376.5,415.1,375,415.2,374.7,414.1L374.7,414.1z
	 M374.2,401.7c-1.8-1.3-0.4-4.5,2.1-2.6C377,401,375.6,402.7,374.2,401.7L374.2,401.7z M376.3,404.1c-0.8,0.1-0.9-0.7-0.5-1.1
	C376.3,403.1,376.4,403.5,376.3,404.1L376.3,404.1z M373.9,403.6c-0.1,0.4-0.4,0.4-0.5,0.8c-0.4-0.1-0.5-0.4-0.5-1
	C373.5,403.2,373.7,403.5,373.9,403.6L373.9,403.6z M376.6,406.5c0,2-1.6,2.3-1.7,4.2c-0.5-0.4-0.9-0.9-1.4-1.3
	c-0.6,0.5-1.9,1.7-2.6,0.5c-0.1-1,1-0.6,1.4-1.1C373.2,407.6,374.6,404.9,376.6,406.5L376.6,406.5z M377.3,417.3
	c-0.4-0.5,0-0.7,0-1.3C378.3,415.8,378.3,417.6,377.3,417.3L377.3,417.3z M378.7,408.3c-0.5-0.5-0.6-1.3-0.2-1.9
	C379.4,406.3,379,408.1,378.7,408.3L378.7,408.3z M380.2,414.9c-1.8-0.3,0-2.4-0.2-4c1.4-0.4,3.3-1.8,4.1,0
	C382.5,412,381.2,413.4,380.2,414.9L380.2,414.9z M384.2,399c-0.1,1.3-1.8,1.2-2.4,0.5C382,398.2,383.4,398.7,384.2,399L384.2,399z
	 M382.5,394.5c0.5-0.1,0.6,0.2,1,0.3C383.6,395.3,382.2,395.3,382.5,394.5L382.5,394.5z M384.2,404.3
	C384.5,401.5,387.4,404.7,384.2,404.3z M384.9,412.8v-1.9c0.8,0.7,2.6,0.3,2.6,1.9C387.1,413.7,385.5,413.4,384.9,412.8L384.9,412.8
	z M389.2,400.6c0,1-1,1-1.2,1.9C386.6,401.6,387.9,399.1,389.2,400.6L389.2,400.6z M387.6,416.5c0-0.3,0-0.5-0.2-0.5
	c0.4-1.9,1.8-2.6,3.1-3.4c0.6,0.4-0.3,2.2,0.7,3.2C391,417,388.7,417.1,387.6,416.5L387.6,416.5z M393.6,412.3
	c-1.2,0.2-2.3-1.3-2.6-3.2c0.8-0.4,1.5-0.2,2.4,0c0.7-0.2,0.5-1.4,1-1.9c0.9-0.1,1.1,0.5,1.7,0.8C394.6,409.3,395.5,412,393.6,412.3
	L393.6,412.3z M394.5,403c0-0.5-0.6-0.3-0.5-1.1c0.6-0.3,1.4-0.2,1.9,0.3C396,403.1,395.1,402.9,394.5,403L394.5,403z M396.7,399.6
	c0.2-1.4,2.7-1.8,2.6,0C398.5,400,397.5,400,396.7,399.6L396.7,399.6z M405,415.2c0.4-0.1,0.4,0.3,0.7,0.3
	C405.8,416,404.7,415.9,405,415.2L405,415.2z M405.7,363.6h-15.1c-0.6,0-1.3-0.2-1.7-0.7c-0.5-0.5-0.7-1.1-0.7-1.7v-32.3
	c0-0.7-0.3-1-0.9-1.1c-0.6-0.1-1.2,0.2-1.5,0.7l-16.9,27.2c-0.3,0.5-1,0.9-1.6,0.8c-0.7,0-1.3-0.3-1.7-0.8l-16.9-27.2
	c-0.3-0.5-0.8-0.8-1.4-0.7c-0.6,0.1-0.9,0.4-0.9,1.1v32.3c0,0.6-0.2,1.3-0.7,1.7c-0.4,0.5-1.1,0.7-1.7,0.7h-15.1
	c-1.3,0-2.4-1.1-2.4-2.4c0,0,0,0,0,0v-68.6c0-1.3,1-2.4,2.4-2.4c0,0,0,0,0,0h14c0.7,0,1.5,0.2,2.1,0.6c0.6,0.3,1.2,0.8,1.6,1.4
	l19.3,28.3c0.3,0.5,0.8,0.8,1.4,0.8c0.6,0,1.1-0.3,1.3-0.8l19.3-28.3c0.5-0.6,1-1.1,1.7-1.4c0.6-0.4,1.4-0.6,2.1-0.6h14
	c1.3,0,2.4,1.1,2.4,2.4c0,0,0,0,0,0v68.6c0,0.6-0.2,1.3-0.7,1.7C407,363.4,406.4,363.7,405.7,363.6L405.7,363.6z M408.1,418.9
	c-1-0.4-1.7-1.3-1.9-2.4c0.8-0.5,1.9-0.3,2.6,0.3C408.7,417.6,408.8,418.7,408.1,418.9L408.1,418.9z M409.5,422
	c-0.5-0.1-1.1-0.2-1-1.1c0.4-0.4,1-0.4,1.4,0C410.2,421.8,409.6,421.6,409.5,422L409.5,422z M409.8,401.7h1.2
	C411.4,403.2,409.5,403,409.8,401.7L409.8,401.7z M410.3,398c1-1.4,3.5,1.3,1.9,2.9C410.6,401,411.6,398.3,410.3,398L410.3,398z
	 M411.7,422.6c-0.6-1.2-0.3-1.6,0-2.9c0.9,0.3,1.7,0.6,2.6,0.8v1.4C413.6,422.4,412.6,422.6,411.7,422.6L411.7,422.6z M414.8,424.7
	c-0.4-0.1-1.2,0.3-1-0.5c0.3-0.2,0.6-0.3,1-0.3V424.7z M413.6,415.4c-0.1,1,0.2,2.5-0.2,3.2c-1.9,0.1-2.3-1.5-2.6-3.2
	c2.4-0.3,2.2-2.5,1.4-4.8c0.7-0.6,1.8-0.9,2.1-1.9c0.8,0.6,1.5,1.3,2.1,2.1C416,413,415.2,414.7,413.6,415.4L413.6,415.4z
	 M413.8,406.7c0.1-1,1.7-0.2,1.9-1.1c0.5,0.5-0.3,1.7-1.4,1.9C414.1,407.3,414.2,406.8,413.8,406.7L413.8,406.7z M412.6,404.6
	c0,1.2,0.2,2.7-1,2.6c-0.7-0.6-0.2-1.2-0.2-2.4c2.3-0.8,2.5-3.9,4.1-5.6C418.6,400.9,414.8,404.6,412.6,404.6L412.6,404.6z
	 M415,241.2c0,0.7,1.6,0.6,1.4,1.4c-0.2,0-0.4,0.1-0.6,0.3c-1.1,0-2.2-0.6-2.8-1.6c0-0.6,1.8-0.2,1.7-0.9s-1.8-0.9-2.8-1.2
	c-0.9,0-0.5,0.8-1.7,0.6c-0.6-0.3,0.1-1.4-0.6-1.7c1.6-0.4,3.1-0.9,4.5-1.6c1.6,0.8-0.5,3.5,2.3,3.6c1.8,0.1,2.9-1.8,2.8-3.4
	c2-0.2,1.6,1,3.1,1.1c0,0.7-1.4,0.6-1.4,1.2c1.8,0.4,0.5,1.9,0.6,2.4c0.3-0.6,2.1-0.5,2.8-0.1c-0.3,0.7-0.6,1.4-1.1,2
	C418.5,243.7,418.5,240.4,415,241.2z M421,248.7c1.6-0.6,3.3,0.4,2.5,1.6C420.4,251.4,418.8,249.5,421,248.7L421,248.7z
	 M419.5,247.8c-0.1-0.4,0.1-0.6,0.6-0.6c0.1,0.2,0.5,0.3,0.6,0.5C420.3,247.8,419.9,247.8,419.5,247.8z M423.5,247.3
	c0.1,0.4-0.1,0.6-0.6,0.6C422.5,247.7,422.6,247.2,423.5,247.3L423.5,247.3z M418.7,244.5c-0.5-0.3-1.8-0.1-1.7-0.6
	c0.9-0.7,2.4,0,3.1,0.3c0.6-0.2,1-0.6,1.7-0.8c0.1,1.2,2,1.3,2,2.5C421.4,246.9,419.8,245.3,418.7,244.5L418.7,244.5z M417.7,429.3
	c-0.8,0.2-1.1-0.1-1-1.1h1V429.3z M418.5,350.1c0.5-1.2,1.3-2.3,2.2-3.2c0.9-0.9,2-1.7,3.3-2.2c1.3-0.5,2.6-0.8,4-0.8
	c2.7,0,5.4,1.1,7.3,3c0.9,0.9,1.7,2,2.2,3.2c0.5,1.2,0.8,2.6,0.8,3.9c0,5.7-4.6,10.3-10.3,10.3c0,0,0,0,0,0c-1.4,0-2.7-0.3-4-0.8
	c-1.2-0.5-2.3-1.3-3.3-2.2c-0.9-0.9-1.7-2.1-2.2-3.3c-0.5-1.3-0.8-2.6-0.8-4C417.7,352.7,418,351.4,418.5,350.1L418.5,350.1z
	 M430.1,397c-0.6,0.3-1.4,0.2-1.9-0.3C427.6,393.2,430.7,393.8,430.1,397L430.1,397z M419.6,400.2c-0.4-1.7-0.4-3.4,0.2-5h0.7
	C419.8,396.1,422.2,399.9,419.6,400.2L419.6,400.2z M420.8,402c-0.2,0.4-0.2,1-0.5,1.3c-1.7,0.1-1.9-1.4-2.1-2.9
	C419.3,400.5,420.2,401.1,420.8,402L420.8,402z M419.6,389.4v-0.5h0.5v0.5L419.6,389.4z M418.2,406c1.6-0.3,1.6,1.2,3.4,0.8
	c0.4,0.8,0.7,1.8,0,2.4c-1-0.1-1.7-0.4-1.7-1.6c-0.7,0-1.6,0.1-1.9-0.3C417.9,406.9,417.9,406.4,418.2,406L418.2,406z M422.7,418.2
	l-0.2-0.1l-0.2,0.1c-0.4-0.6-1.7-0.2-1.4-1.6c0.7-0.3,1.6,0.2,1.8,0.9C422.7,417.7,422.7,417.9,422.7,418.2L422.7,418.2z M423,418.9
	l-0.4-0.1l-0.1,0.4c-0.2,0-0.2-0.3-0.2-0.5l0.4,0.1l0.1-0.4C422.9,418.4,422.9,418.7,423,418.9L423,418.9z M421.5,419.7
	c-1.1,0.6-1.6,1.9-2.9,2.4C417.3,420.5,419.8,418.8,421.5,419.7L421.5,419.7z M419.6,428.2c-0.4-1.1-1.4-1.5-1.7-2.6
	c0.6-0.6,1.5-0.9,2.4-0.8c0.3,1.1,1.1,1.9,2.1,2.4C422.1,428.1,420.9,428.2,419.6,428.2L419.6,428.2z M424.9,427.4
	c-0.4-2.3-1.9-3.4-3.8-4c0.5-1.2,0.3-3.2,1.7-3.4v-0.5l0.2,0.1l0.2-0.1c1.6,0.3,1.4-1.3,1.9-2.1v0.3h0.2c0.5,1,0.1,3.1,0.7,4
	c-0.7,0.7-2.6,0-2.4,1.6c2.7,0.1,4.2,1.3,4.5,4C427.6,427.9,426.2,426.2,424.9,427.4L424.9,427.4z M427.7,420.3
	c0.9-1.9-0.6-2.1-0.5-3.2c0.4-3.4,5-2.8,5.3-0.3C432.7,418.6,429.7,421.8,427.7,420.3L427.7,420.3z M433.2,404.7
	c-1.1,1.3-0.4,4.5-1.2,6.1c-1.1,0.5-2.3,1-2.4,2.6c-1,0.1-1.9,0-2.9-0.3c-1.2,0.5-0.3,3.4-1.4,4l-0.1-0.1l-0.1-0.1
	c-0.7-0.1-1.4-0.3-2.1-0.5c-0.2-1.2,0.3-1.6,0.2-2.6c-0.1-0.9-1.4-0.4-2.1-0.5c-0.8,0.3-0.4,1.9-1.7,1.6c-0.1-1.3,0.4-2.4-0.2-4
	c1.6-0.6,3.6-1,5-1.9c-0.1-1.6-0.2-3.3,1-3.7c-1-1.2-2,0.1-2.9,0.5v-2.1c2.8-0.1,2.8-3.4,4.5-4.8c0.3,0.7,0.4,1.7,1,2.1
	c1.7-0.2,1.5-2.6,3.1-2.9c0.5,0.8,0.3,1.9-0.5,2.4c-0.1,0.1-0.3,0.2-0.5,0.2c0.1,0.9,2,0.6,2.4,0.3c-1.3-5.8,3.1-6.1,4.5-9.5h3.1
	c-0.2,1.2-0.1,2.5,0.2,3.7c-0.6,1-1.5,0.2-2.6,0.3c-1.1,0.9-2.2,1.7-3.3,2.4c0.6,1.1,2.4,0.9,2.4,2.6c1.5,0,2-1.2,3.1-1.6
	c1.1,0.3,1.4,1.5,2.4,1.9c-0.3,0.9-0.6,1.7-0.7,2.6c-1.5-1.2-3.2-0.6-4.5-2.1c-0.9,0.2-0.2,2-1,2.4c0.6,1.5,3.9,1.2,2.9,3.7
	c-1,0.1-0.5-1.5-1.4-1.6c-0.9-0.1-1.1,0.8-1.9,0.8C434.4,406.1,434.3,404.9,433.2,404.7L433.2,404.7z M436.1,423.2h-0.5v-0.5h0.5
	V423.2z M436.8,419.2c0-1.9-0.2-3.2-1.7-4c1.1,0,1.7-0.8,2.6-0.3C437.5,416.5,438.3,419.2,436.8,419.2L436.8,419.2z M438,423.4
	c-0.2-0.2-0.2-0.5-0.2-0.8c0.5-0.5,0.9-0.1,1.4,0C438.9,423.1,438.7,423.5,438,423.4L438,423.4z M435.6,412.8
	c-0.4-0.5-0.6-1.2-0.7-1.9c0.8-0.9,3.3-3.7,4.3-1.1C437.1,410,437.1,412.2,435.6,412.8z M441.8,417.3c-1.2,0-1.4,1.1-2.4,1.3
	C438.8,416.3,442.1,414,441.8,417.3L441.8,417.3z M441.8,421.5c-0.1-1.2,1.8-1.4,2.1-0.5C444.2,422.2,442.2,421.9,441.8,421.5
	L441.8,421.5z M443.5,427.9v-1.3C444.3,426.5,444.3,427.9,443.5,427.9L443.5,427.9z M443.9,419.4c-1,0.2-0.7-1-0.7-1.9
	C444.4,417.2,444.4,418.9,443.9,419.4L443.9,419.4z M444.7,413.3c0-0.5-0.3-0.6-0.2-1.1c0.5-0.4,1.2-0.4,1.7,0
	C446.1,413.2,445.5,413.5,444.7,413.3L444.7,413.3z M447,391.4c-0.6,0.6-1.8,0.2-1.4-1c0.4-0.2,1-0.2,1.4,0V391.4z M448.2,393.3
	c-0.3-0.4-0.2-1.2-1-1.1c1.1-1.6,3.1-0.4,3.8,0.8c0.1,0.2,0,1.2,0.2,1.9c0.8,2.1,2.4,3.8,0.5,6.1c-2.3-0.8-1.9,1.4-3.3,1.6
	c-0.1-1.1,0.3-3.8,1.2-4.8c0-1.3-1.3-1.2-2.1-1.6C447.4,395.1,447.6,394.1,448.2,393.3L448.2,393.3z M449.7,428.9
	c-0.4,0.4-1.4,0.4-1.2-0.5C448.8,428,449.8,428,449.7,428.9L449.7,428.9z M452.1,432.4c-0.8,0.2-0.7-0.4-1.2-0.5
	c0-0.6,0.4-1,0.9-1.1c0.1,0,0.2,0,0.3,0C452.4,431.2,452.4,431.9,452.1,432.4L452.1,432.4z M452.5,409.9c-0.1-1,0.6-1.1,0.7-1.9
	c-0.2-1-1.8-0.3-2.4-0.8c-0.9-1-2-5.4,0.5-3.7c0.2,0.8-0.4,0.8-0.2,1.6s1.1,0.5,1.7,0.3c0.1-0.8-0.4-0.9-0.2-1.9
	c0.8,0,1.2-0.4,2.1-0.3c0.6,2.2-1.2,1.8-1.2,3.4c0.7,0.6,1.9,0.5,2.4,1.3c0,0.8-0.5,1.2-0.5,2.1
	C454.5,410.6,453.4,410.5,452.5,409.9L452.5,409.9z M454.9,400.4c0.1,0.8-0.2,1.2-1,1C453.2,400.8,454.3,399.6,454.9,400.4
	L454.9,400.4z M455.9,416.5c-2.8-1.3,0.4-4.9,2.9-2.9C458.2,415.1,456.2,414.9,455.9,416.5L455.9,416.5z M459.4,400.7
	c0.7,0.1,0.8,0.9,1.2,1.3c1.3-0.5,2.6-2.9,4.3-1.3v1.6c-1.2,0.3-1.9,1.3-2.6,2.1c-0.7,0-1.2-0.5-1.2-1.2c0,0,0-0.1,0-0.1
	c-1.1,0.4-2.2,0.2-3.1-0.5C458,401.4,458.5,400.8,459.4,400.7z M459.2,398c0.2-0.2,0.2-0.5,0.2-0.8c0.7-0.1,1.3,0,1.2,0.8
	C460.1,398.1,459.7,398.6,459.2,398L459.2,398z M458.7,408.6c-0.2-0.4-0.2-0.9,0-1.3c1.3,0.1,3.1-0.4,2.9,1.3
	C460.7,409,459.6,409,458.7,408.6L458.7,408.6z M456.8,437.7c0-0.6,1-0.1,1.4-0.3C458.2,438,457.2,437.5,456.8,437.7L456.8,437.7z
	 M461.6,436.6c-0.7,0.6-2,0.1-2.6-0.3C459.1,435,462,434.3,461.6,436.6L461.6,436.6z M460.8,434c-0.6-1.4,0.1-3.1,1.7-2.9
	c0.3,0.5,0.2,1.5,0.5,2.1C462.5,433.8,461.7,434.1,460.8,434L460.8,434z M463,413.4c-0.2-0.7,0-1.5,0.5-2.1
	C464.4,411.5,464.6,413.8,463,413.4L463,413.4z M464.7,433.2c-0.6-0.6-0.8-1.6-0.5-2.4c1-0.6,2.3-0.2,2.9,0.8
	C466.9,432.8,466.3,433.5,464.7,433.2L464.7,433.2z M467.5,415.2C465,412.7,470.4,413.1,467.5,415.2z M467.3,436.1
	c-0.3-0.5-0.8-1.7-0.2-2.4c1,0,1.8,0.1,2.1,0.8C468.9,435.3,468.2,435.9,467.3,436.1L467.3,436.1z M469.9,426.3
	c-0.2-0.2-0.2-0.5-0.2-0.8c0.3-0.2,0.6-0.3,1-0.3C470.7,426,470.6,426.4,469.9,426.3L469.9,426.3z M472.8,406.2
	c0.6,0.1,1.1,0.3,1.7,0.5c-0.2,0.8,0.4,0.8,0.2,1.6c-0.4,0.4-1.2,0.2-1.9,0.3C472.4,407.8,472.5,407,472.8,406.2L472.8,406.2z
	 M474.7,422.1c-0.5-0.5-0.6-1.3-1-1.8c0-0.3,3.2,0,3.6,1C477.3,422.5,475.7,422,474.7,422.1L474.7,422.1z M478.8,400.9
	c-0.2,0.1-0.4,0.2-0.5,0.5c-0.9-0.6-1.3-1.7-3.1-1.3C473.9,396.9,478.7,398.9,478.8,400.9L478.8,400.9z M478,419.4
	c0.3,0.1,0.5,0.5,0.5,0.8C477.7,420.5,477.7,419.8,478,419.4L478,419.4z M478.8,408.8h-1c-0.4-0.8-0.4-1.8,0-2.6
	C479.1,406,479.2,408.1,478.8,408.8L478.8,408.8z M479.7,427.6h-0.5v-0.5h0.5V427.6z M480.9,400.1c-0.3-0.1-0.2-0.7-0.2-1.1
	C481.4,399.3,481,399.5,480.9,400.1L480.9,400.1z M486.9,399.1C485.9,401.9,484.7,397.2,486.9,399.1z M486.7,394.8
	c0.3-0.3,0.8-0.4,1.2-0.3c0,0.7,0.1,1.5-0.2,1.9C487.1,396,486.8,395.5,486.7,394.8L486.7,394.8z M487.7,422.1
	C485.7,420.9,489.1,420.4,487.7,422.1z M490.5,400.9c-1,0.1-1.2,1-1.9,1.3v-1.6c0.5-0.4,1.5-0.3,1.4-1.3
	C490.6,399.4,490.5,400.3,490.5,400.9L490.5,400.9z M491.2,384.3c0.4-0.1,0.4,0.2,0.7,0.3C492,385.1,490.8,385,491.2,384.3
	L491.2,384.3z M491.2,392.2c0.7-1.2,1-2.8,3.1-2.4c0.5,0.9,0.6,1.9,0.5,2.9c-0.6,0.9-1.8,1.2-2.8,0.6
	C491.7,393.1,491.3,392.7,491.2,392.2L491.2,392.2z M494.8,395.4c0-1.2,0.9-2.1,2.1-2.1c0.1,0,0.2,0,0.3,0
	C497.2,394.8,496.1,396.2,494.8,395.4L494.8,395.4z M497.2,410.7v0.8c-0.5,0.1-0.6-0.2-1-0.3C496.3,410.8,496.6,410.7,497.2,410.7
	L497.2,410.7z M494.6,398.3c-0.4,0.1-0.9,0-1.2-0.3c0-0.7,0.4-0.8,0.5-1.3C494.7,396.6,494.6,397.5,494.6,398.3L494.6,398.3z
	 M497,419.7c-0.9-0.2-1.2-1-2.1-1.1c0.7-1.3,1.1-2.6,1.4-4C498.7,414.3,497.6,418.8,497,419.7L497,419.7z M496.4,401
	c0.1-1,1.6-0.4,2.1-0.3C498.4,401.3,496.9,401.4,496.4,401z M503.3,407c-0.5-0.2,0-1.5-0.5-1.6c0.6-0.9,0.8,1.1,1.4,1.1
	C504.1,406.8,503.8,407,503.3,407L503.3,407z M503.1,392.5c1-0.2,1.4,2.3,0.5,2.6C502.5,395.1,502.9,393.2,503.1,392.5L503.1,392.5z
	 M504.8,429.5c-1.2,0.2-0.8-2.3-0.5-2.9c0.9-0.2,1.1,0.3,1.7,0.5C505.7,427.9,505.3,428.7,504.8,429.5L504.8,429.5z M505.8,402.8
	c-0.2-1.3-0.3-2.8-1.7-2.9c-0.5-2.3,1-2.5,1.7-3.4C506.6,397.8,507.8,402.1,505.8,402.8L505.8,402.8z M508.2,415
	c2.1-1.5,3.7,0.9,2.1,2.6h-1.7C508.1,417.2,508.1,416.1,508.2,415L508.2,415z M519.9,406c0.2,1.3-0.6,1.9-1.2,1c0-0.6,0.4-1,0.9-1.1
	C519.7,406,519.8,406,519.9,406L519.9,406z M521.5,405.4h-1.2C518.3,402.2,523.5,402.4,521.5,405.4L521.5,405.4z M518.9,409.4
	c0.2,1.3-2.1,0.8-2.6,0.5C516.3,408.7,518.4,408.5,518.9,409.4L518.9,409.4z M516.8,403.1c-1-0.3-1-1.7-1.9-2.1
	c0.3-0.9,1.2-1.1,2.2-1.3C517.5,400.3,517.9,402.8,516.8,403.1L516.8,403.1z M512.7,389.4c0.2-0.8,0.5-1.5,1-2.1
	C516.4,387.8,514.2,392.2,512.7,389.4L512.7,389.4z M514.4,407.1c-0.5,0.6-1,1.2-1.4,1.9c-1-1.2-2.8-1.4-4.5-1.9
	c-0.2-1.2,0.4-1.7,0.5-2.6C511.8,403.2,513.3,404.8,514.4,407.1L514.4,407.1z M508.9,430.3c0.2-0.5,0.6-0.8,1-1.1
	c0.8-0.1,0.6,0.7,1.2,0.8C510.7,431,509.5,430.9,508.9,430.3L508.9,430.3z M511,421.8c-0.1-0.6,0.2-0.7,0.2-1.1
	c0.4,0.1,0.5,0.5,0.5,1.1H511z M511.5,433.4c0-1,0.6-1.3,0.7-2.1c1.3-0.1,1,1.5,2.1,1.6C514.1,433.9,512.3,433.8,511.5,433.4
	L511.5,433.4z M512.7,418.6c0.3-1.2,2-0.8,1.9-2.4c1.4,0.1,2.1,1,2.4,2.4C515.9,419.3,513.9,418.8,512.7,418.6L512.7,418.6z
	 M514.8,414.9c0-1.5-1.5-1.4-1.9-2.4c1.3-2.7,2.5,1.1,4.1,1.3C516.5,414.6,515.7,415,514.8,414.9L514.8,414.9z M517.2,427.4
	c0.3-1.5,1.5-0.8,2.4-0.3C519.4,428.1,517.7,428.2,517.2,427.4L517.2,427.4z M521,413.1c-0.6,0.3-0.9,1-1.9,0.8
	c-0.1-0.4-0.3-0.7-0.5-1c0.3-1.2,1.4-1.5,2.4-1.9V413.1z M522.2,425c-1.2-0.1-0.9-1.1-0.7-2.1h1C522.4,423.6,522.6,424.6,522.2,425
	L522.2,425z M521.3,416.5c0.6-0.6,1.7-0.1,2.1,0.3C523.1,417.9,521.2,418.3,521.3,416.5L521.3,416.5z M524.7,362.7
	c-0.5,0.7-1.3,1.1-2.2,1h-17.2c-0.7,0-1.5-0.2-2.1-0.6c-0.6-0.4-1.1-0.9-1.5-1.6l-2.7-6c-0.4-0.6-0.9-1.2-1.5-1.6
	c-0.6-0.4-1.3-0.6-2-0.6h-21.1c-0.7,0-1.5,0.2-2.1,0.6c-0.6,0.4-1.1,0.9-1.4,1.6l-2.8,6c-0.3,0.6-0.8,1.2-1.4,1.6
	c-0.6,0.4-1.3,0.7-2,0.6h-17.2c-0.4,0-0.7-0.1-1.1-0.2c-0.3-0.1-0.7-0.3-0.9-0.6c-0.2-0.3-0.4-0.6-0.5-1c-0.1-0.5,0.1-1,0.3-1.4
	l29.1-68c0.3-0.6,0.8-1.2,1.4-1.6c0.6-0.4,1.3-0.6,2.1-0.6h14.1c0.7,0,1.4,0.2,2,0.6c0.6,0.4,1.1,0.9,1.4,1.6l29.3,68.4
	C525.1,361.4,525,362.1,524.7,362.7L524.7,362.7z M521.8,250.9c0.4-0.2,0.8-0.2,1.2-0.1c0,0,0,0.1-0.1,0.2h-1
	C521.9,251,521.9,250.9,521.8,250.9z M527.3,409.9c-0.8,0.1-1.9,0.7-1.7-0.8C526.3,409.2,527.4,408.9,527.3,409.9L527.3,409.9z
	 M528.6,249.3c-2.1,0.9-3.5-0.5-5.1-0.8c-0.5,0.2-0.6,0.7-1.4,0.8c-0.6,0-1.1-0.2-1.5-0.6c2.4,0.2,3.9-0.8,6.1-0.5
	c0.1-0.1,0.2-0.2,0.3-0.3c0.5,0.2,1,0.4,1.6,0.4L528.6,249.3z M537,435.8c0.1,1.2-1.3,0.7-1.9,0.5C535.3,435.5,536.6,435,537,435.8z
	 M574.8,432.9l-0.1,0.3l0.1,0.3c-0.6,0.6-2.3,0.8-2.9,0c0.2-0.9,1.1-1.4,2-1.1C574.2,432.4,574.5,432.6,574.8,432.9L574.8,432.9z
	 M563.2,217.6c0.7,0,0.9,0.2,1.4,0.3c-0.1,0.1-0.1,0.3-0.2,0.4c-0.5-0.1-1-0.1-1.5,0C562.9,218,563,217.7,563.2,217.6z M565.8,225.7
	c-0.2,0.3-0.3,0.6-0.6,0.8l-0.3,0.1l-0.3,0.1c-0.9-0.9,0-2-1.1-2.8h0.1C564.3,224.5,565,225.1,565.8,225.7z M559.9,221.1
	c0.2,0.2,0.5,0.5,0.7,0.7s0.3,0.3,0.5,0.4c-0.6-0.1-1.2-0.5-1.6-1L559.9,221.1z M560.7,258.9c-0.4,0-0.4,0.2-0.8,0.1
	C559.4,258.7,560.8,258.6,560.7,258.9z M555.9,220.1c0.3-0.8-1.9-0.8-0.8-1.6c1.1,0.4,2.3,0.6,3.5,0.8c0,0,0,0,0,0.1
	c0.3,0.4,0.5,0.7,0.8,1c-0.1,0.2-0.1,0.3,0,0.5c-1.8,0.2-1.4-0.9-3.4-0.6c0.3,0.6-1.3,0.8-1.4,0.3c0.6,0,0.4-0.4,1.1-0.3l0.1,0.1
	l0.1-0.1l0.1-0.1L555.9,220.1z M557.4,248.7c-0.1,0.2-0.1,0.5-0.2,0.7c-0.1,0-0.1,0-0.2,0c-0.1,0-0.2,0-0.4-0.1v-0.9
	C556.9,248.4,557.2,248.5,557.4,248.7z M555.2,252c-0.1,0.3-0.4,0.6-0.8,0.7C554.6,252.4,554.9,252.1,555.2,252L555.2,252z
	 M554.7,250.3C552.1,251.4,553.5,248.6,554.7,250.3z M553.2,229.3c0.2,0.1,0.3,0.9,1,0.6c0,0.1,0.1,0.2,0.1,0.3
	c-0.2,0.1-0.5,0.1-0.8,0.2c-0.3-0.3-0.6-0.6-0.7-1C553,229.3,553.1,229.2,553.2,229.3L553.2,229.3z M552.8,408.6
	c-1,0.2-0.8-1.4-0.5-1.9C553.2,406.9,553,408,552.8,408.6L552.8,408.6z M547.1,220.8c-0.1,0-0.1,0.1-0.2,0.1
	c-0.7,0.1-1.3,0.1-1.8,0.2c0.1-0.4,0.2-0.8,0.3-1.3C546.1,219.9,546.7,220.2,547.1,220.8z M546.3,219.2c-0.4,0.2-0.8,0.4-1.2,0.4
	c0-0.1,0-0.1,0-0.2C545.5,219.3,545.9,219.2,546.3,219.2L546.3,219.2z M544,244.5h1.1c0.5,0.5,0.4,1.7-1.1,1.6
	C543.5,245.6,543.5,244.9,544,244.5L544,244.5z M544.3,248.9c-0.2,0.3-0.3,0.6-0.3,0.9c-0.3,0.1-0.6,0.3-0.9,0.6
	c-1.5,0.4-3.2,0.3-2.2-0.8C542,249.8,543.2,249.6,544.3,248.9L544.3,248.9z M538.1,217.5c0.4,0.7,1.1,1.2,1.9,1.3
	c0.4,0.4,0.8,1.1,1.2,1.3c-1.2,0.5-2.5,0.7-3.8,0.6c-0.4-0.8,1.6-0.2,1.1-1.1c-1-0.5-1.3,0.3-2.3,0.3
	C536.6,219.1,537.7,218.2,538.1,217.5z M539.2,237.7v0.1h-0.1C539.2,237.8,539.2,237.7,539.2,237.7z M533.7,217.9c0,0.1,0,0.2,0,0.3
	c-0.2-0.1-0.4-0.2-0.7-0.3C533.3,217.8,533.5,217.8,533.7,217.9z M531.2,222.1h1.1C532.6,222.7,531,222.7,531.2,222.1z M531.5,228.4
	c0.8,0,1.6,0.4,2.3,0.9c-0.4,0.4-1.4,0.5-2.5,0.5C530.6,229.4,531.1,228.7,531.5,228.4z M532.6,241.1c0.5,0.4,0.1,0.6-0.5,0.6
	C532.2,241.5,532.4,241.3,532.6,241.1z M534.2,414.7c-0.8,0.2-0.9-0.9-0.5-1.3C534.5,413.2,534.6,414.3,534.2,414.7L534.2,414.7z
	 M536.3,401.2v-0.8C537,400,537,401.6,536.3,401.2L536.3,401.2z M535,363.7c-0.7,0-1.3-0.2-1.8-0.7c-0.4-0.5-0.7-1.1-0.6-1.7v-68.6
	c0-0.6,0.2-1.2,0.6-1.7c0.5-0.5,1.1-0.7,1.8-0.7h15.1c1.3,0,2.4,1.1,2.4,2.4c0,0,0,0,0,0v68.6c0,1.3-1,2.4-2.4,2.4c0,0,0,0,0,0
	L535,363.7z M549.7,414.7c0.5,0.2,0.8,0.8,0.7,1.3C549.4,416.7,548.9,415.3,549.7,414.7L549.7,414.7z M549.7,410.7
	c0.2,0,0.2,0.3,0.5,0.3C550,411.6,549,411.2,549.7,410.7L549.7,410.7z M548,418.6c-0.5,1.2-1.6,0.5-2.4,0c-0.1-0.5,0-1.1,0.2-1.6
	C546.6,417.6,548,417.3,548,418.6L548,418.6z M544.7,414.4h-0.5c-0.1-0.4,0.2-0.4,0.2-0.8C544.9,413.8,544.9,414,544.7,414.4
	L544.7,414.4z M542.5,414.4c-0.3,0.3-0.8,0.4-1.2,0.3c-0.3-0.8-0.1-0.9,0.2-1.6C542.2,413.2,542.6,413.6,542.5,414.4L542.5,414.4z
	 M537.3,405.7c-0.1-0.7,0.1-1.5,0.5-2.1c0.5,0.2,0.9,0.5,1.4,0.8c0.8-0.4,1.2-1.9,2.4-1C541.8,406.1,539.1,406.8,537.3,405.7
	L537.3,405.7z M557.3,423.7c-0.9,0.2-0.2-1.1-0.7-1.3c-0.7,0.1-1.9-0.3-1.9,0.5c-0.2,1.3,1.5,0.4,1.9,1c0.2,1.2-1.2,0.6-1.4,1.3
	c-0.7,0-0.3-1.2-0.7-1.6c-2.2,0.4-1.8-2.1-3.1-2.6c-0.2,0.1-0.2,0.3-0.5,0.3c1.4,1.4,0.7,4,0.2,5c1.2,0.8,1.9-0.9,2.9-0.8
	c2.8,0.2,2.3,3.7,1.4,6.6c-1.3-0.8-2.8-1.2-4.3-1.1c-0.7-1.1-1.8-1.9-3.1-2.1c-0.2-1,0.6-0.9,0.7-1.6c-4.8-0.2-5.5-4.9-7.6-7.9
	c-0.8-0.1-1.4-0.6-2.4-0.5c-0.3-0.6-0.9-1-0.7-2.1c0.2-0.2,0.4-0.5,0.5-0.8c1.7,0.1,4.1-0.5,4.8,0.8c-0.1,1.1-0.3,2.2-0.7,3.2
	c1.7,0.5,2.1,2.4,3.3,3.4c1.5-1.8,3.3-3.4,5.2-4.8c1.1,0.1,1.1,1.4,1.9,1.9c1.8,0.2,1.8-1.7,3.3-1.9c-0.3-0.6-0.8-1-1.2-1.6
	c0.3-0.8,0.7-1.6,1.2-2.4c2.4,2.4-1.7,5.4,2.6,6.6C558.4,422,558.8,423.8,557.3,423.7L557.3,423.7z M554.9,412.8v-0.5h0.7v0.5H554.9
	z M559.2,407c-1.6-0.2-3.5,0.9-4.5-0.3c0.9-1.6,3.4,0.2,4.5-1.1c-0.2-5.7,5.1-0.5,2.4,2.1c-0.4-0.8-0.2-2.3-1.7-1.9
	C559.2,405.7,559.6,406.8,559.2,407L559.2,407z M561.1,407.8c0,0.7-0.5,1.3-1,0.8C560.1,407.9,560.5,407.7,561.1,407.8L561.1,407.8z
	 M560.1,418.9c-0.4-0.8-0.4-1.8,0-2.6C561.3,416,561.3,419.2,560.1,418.9L560.1,418.9z M563,421.8c-0.9,0.2-1.5,0.3-2.2-0.3
	c0-0.6,0.5-1.1,1.1-1.1c0.6,0,1.1,0.5,1.1,1.1C563.1,421.6,563.1,421.7,563,421.8L563,421.8z M563.5,255.8c-0.8,0.1-1.7,0-2.4-0.3
	c0.2-0.2,0.4-0.3,0.7-0.5c0-0.5,0.2-1,0.6-1.4c0.6,0,1.2,0.2,1.8,0.5C564.2,254.7,564,255.4,563.5,255.8z M564.1,252.5
	c1.5-0.5,2.7,0.3,2.8,1.1c0,0.1-0.1,0.1-0.2,0.1C565.7,253.8,564,253.3,564.1,252.5L564.1,252.5z M564.1,238.7h0.1H564.1
	L564.1,238.7z M565.8,243.1c0.4-0.1,0.8-0.2,1.1-0.2v0.5C566.3,243.4,565.8,243.4,565.8,243.1L565.8,243.1z M567.4,413.4
	c-0.8,0.2-0.7-0.4-1.2-0.5c0-0.7,0.5-1.2,1.2-1.3C567.7,412.1,567.7,412.8,567.4,413.4L567.4,413.4z M566.1,249.2L566.1,249.2
	c0.6-0.3,2.3-0.2,2.5,0.2C568,249.4,566.2,249.7,566.1,249.2L566.1,249.2z M569.7,230.9c-1-0.1-1.4-0.5-2.3-0.6
	c0.1-0.6,0-1.1-0.8-1.2c-0.4,0.1-0.8,0.2-1.2,0.5c-0.9-0.5-1-1.9-2.6-1.7v-0.1c0.6-0.1,1.2-0.3,1.8-0.5v-0.2l0.3,0.1l0.3-0.1
	c1.3,0.3,2.5,0.7,3.8,1.2l0.4,0.4c0.2,0.1,0.4,0.3,0.6,0.4C570.4,229.6,570.4,230.2,569.7,230.9L569.7,230.9z M595.3,226.4
	c0.5,0,1,0.1,1.4,0.4c-1,0-1.3,0.4-2,0.6c-0.1-0.1-0.1-0.2-0.2-0.3C594.7,227,595,226.7,595.3,226.4L595.3,226.4z M593.5,233.7
	c-1,0.3-2.5,0.7-2.8-0.1C591.3,233.1,593.3,233.1,593.5,233.7L593.5,233.7z M590.8,394.1c0.7,1.6,1.8,4.1,1.7,5.8
	c-2-0.5-1.9-3.3-2.4-5.6C590.4,394.4,590.7,394.4,590.8,394.1L590.8,394.1z M592.7,412.9c-1.6,0.3-3.1-0.6-3.6-2.1
	c0.4-0.4,1.4-0.2,2.2-0.3C591.4,411.6,592.5,411.7,592.7,412.9L592.7,412.9z M586.9,238.6c1.2-0.1,2.4-0.1,3.5,0.1
	c-0.3,0.8-1.1,1.4-2.8,1.4c0.1-0.6-0.6-0.7-1.2-0.9C586.6,239.1,586.8,238.8,586.9,238.6z M580.8,226.6c0.3,0.3,1,0.3,1.4,0.5
	c0.6-0.3,1.2-0.6,1.8-0.7c0.4,0.2,0.8,0.5,1.1,0.8c-1.1,1.4-2.9,2-4.6,1.5c0.1-0.3,0.3-0.7,0.4-1l-1-0.8
	C580.2,226.8,580.5,226.7,580.8,226.6z M585.6,244.5c0.1,0.1,0.3,0.2,0.4,0.3c-0.6,0.7-1.2,1.5-1.7,2.3c0,0.1-0.1,0.1-0.1,0.2
	c-1.1,0.2-2.3,0.2-3.4-0.1c0.5-0.5,0.9-1.1,1.2-1.7v-0.1C583.3,245.3,584.5,245,585.6,244.5z M582.3,231.5c-0.2,0.3-0.4,0.5-0.6,0.8
	c-0.3-0.1-0.6-0.3-0.9-0.5C581.3,231.6,581.8,231.5,582.3,231.5z M577.1,251.8l-0.1-0.1c0.1-0.3,0.2-0.6,0.2-0.9
	c0.4,0.1,0.5-0.1,0.8-0.1c0.1-0.2,0.2-0.4,0.4-0.5C578,250.8,577.6,251.4,577.1,251.8z M577.2,233.7c0,0,0.1-0.1,0.1-0.1l0.1,0.1
	L577.2,233.7z M577.9,225.4c-0.4-0.6-0.9-1.1-1.5-1.5l0.2-0.1c-0.2-0.1-0.4-0.1-0.5-0.1c-0.5-0.3-1-0.7-1.4-1
	c0.2-0.1,0.3-0.4,0.2-0.6c-0.4,0-0.7,0-1.1-0.1c-0.2-0.1-0.3-0.3-0.4-0.4c-0.4,0.1-0.4-0.2-0.8-0.1c-0.1-0.3-0.2-0.6-0.4-0.8
	c-0.4-0.1-0.7-0.3-0.9-0.6c0.2-0.1,0.4-0.2,0.6-0.4c-0.2-1,1-1.3,1.7-1.7c0.4,0.3,0.9,0.6,1.3,0.9c-0.8,0.8,0.4,2.5,2.3,1.8
	c-0.1-0.1-0.2-0.3-0.3-0.5c0.4,0.7,0.9,1.4,1.6,1.9c-0.2,0.5-0.5,0.9-1,1.1c0.8,0.7,2.8,0.8,2.5,2
	C579.2,225.3,578.5,225.4,577.9,225.4L577.9,225.4z M579.9,240.4c1.1-0.1,2.2-0.3,3.2-0.6c0.6,0.9-1.1,1.8-3.2,1
	C579.9,240.8,579.9,240.6,579.9,240.4L579.9,240.4z M580.5,395.1H580v-0.5h0.5V395.1z M581.7,418.3c-2.4-0.7-0.3-2.7,0.7-4.2
	c1.6,0.2,1.2,2.6,2.9,2.6C584.4,417.5,582.5,418.6,581.7,418.3L581.7,418.3z M585.3,411.2c0-1.3-0.3-1.6,0.2-2.4
	c0.8,0.5,1,1.8,1.4,2.6C586.3,411.5,585.6,411.6,585.3,411.2L585.3,411.2z M586.3,257.1c0.2-0.1,0.4,0,0.6,0.1c-0.1,0-0.3,0-0.4,0.1
	L586.3,257.1z M586.7,414.6c-0.7-1.2,0.4-2.3,1.7-2.1C588.6,414.1,587.8,414.6,586.7,414.6L586.7,414.6z M588.4,241.8
	c-0.2,0.3-0.5,0.6-0.7,0.9c-0.7,0.4-1.5,0.2-2-0.4c0.5-0.6,2.2-0.6,2.3-1.4c0.3,0,0.5,0,0.8,0l-0.2,0.2
	C588.4,241.2,588.5,241.5,588.4,241.8z M588.6,420c0.2-0.4,0.8-0.4,1.2-0.5C590,420.4,589,420.4,588.6,420L588.6,420z M595.1,418.7
	c-1.8-0.7-3.1,1.4-5,0.5c-0.7-1.9-0.3-4.1,1-4.5c1.5-0.5,3.6,2,5,2.1C595.8,417.5,595.5,418.1,595.1,418.7L595.1,418.7z
	 M594.4,405.5h1c0.2,1,0.7,1.2,0,1.9C594,407.3,594.1,406.5,594.4,405.5L594.4,405.5z M594.4,246.5h1.4
	C598.2,248.3,592,248.4,594.4,246.5z M595.8,239.4c0.5-0.2,1.1-0.2,1.6-0.1C596.8,239.3,596.3,239.3,595.8,239.4L595.8,239.4z
	 M606.8,409.1c0.5,0.1,0.5,0.7,0.2,1.1C606.4,410.1,606.4,409.5,606.8,409.1L606.8,409.1z M604.2,231.5l0.2-0.3
	c2,0.6,0.2,1.9-1.4,2.5c0.4-0.4,0.7-0.9,1-1.3C604,232,604.2,231.9,604.2,231.5z M602.4,397.8c-0.5,1-1.4,1.9-2.4,2.4
	c-0.1-0.2-0.2-0.5-0.5-0.5C599.8,398.1,601.6,395.5,602.4,397.8z M600.5,421.8c-0.5,0-0.8-0.2-0.7-0.8h0.7V421.8z M601,413.9
	c0.5-0.5,1.1-0.1,1.7,0C602.7,415.5,601,415.5,601,413.9L601,413.9z M604.3,416.3c-0.6,0-0.7-0.4-1.2-0.5v-1.1
	c0.5-0.4,1.2-0.4,1.7,0C605,415.6,604.6,415.8,604.3,416.3L604.3,416.3z M600,407.3c1.2-1.5,1.2-3.9,1.2-6.1
	c2.5,0.8,2.1-3.1,5.2-1.9c-0.4,0.9-0.3,2.3-0.7,3.2C602.3,402.2,603.8,408.8,600,407.3L600,407.3z M605.5,414.1
	c0.4-0.6,1.2-1.5,1.9-0.8C607.5,415.1,606.4,414.6,605.5,414.1L605.5,414.1z M607.7,412.8c-0.2-0.7,0.5-0.5,0.5-1.1
	c0.3,0.1,0.2,0.7,0.2,1.1H607.7z M606.7,403.3c0.5,0.1,1.6-0.3,1.7,0.3C608.5,405,606.6,404.3,606.7,403.3L606.7,403.3z
	 M610.9,241.1c0.3,0.3,0.2,0.7-0.6,0.7C610.6,241.6,610.8,241.4,610.9,241.1L610.9,241.1z M610.5,419.1c0.8-0.2,0.8,0.9,0.5,1.3
	C610.2,420.7,610.2,419.6,610.5,419.1L610.5,419.1z"/>
</svg>
