<?xml version="1.0" encoding="UTF-8"?>
<svg id="Layer_1" data-name="Layer 1" xmlns="http://www.w3.org/2000/svg" viewBox="0 0 655.06 655.11">
  <defs>
    <style>
      .cls-1 {
        fill: none;
        stroke: #6cff00;
        stroke-miterlimit: 10;
        stroke-width: 25.63px;
      }

      .cls-2 {
        fill: #6cff00;
      }
    </style>
  </defs>
  <path class="cls-1" d="m642.24,157.3v340.55c-.18.9-.41,1.77-.56,2.67-1.44,8.77-2.26,17.69-4.41,26.27-14.48,58.21-63.06,103.02-122.2,113.12-5.74.97-11.51,1.59-17.28,2.38H157.29c-.79-.18-1.56-.41-2.36-.51-6.18-.87-12.41-1.41-18.53-2.56-69.85-13.15-123.2-76.59-123.4-147.73-.31-108.66-.18-217.35.03-326.04.03-9.66,1.18-19.43,2.97-28.97C29.1,66.48,92.36,13.24,163.58,13.01c108.87-.36,217.76-.1,326.63-.08,11.61,0,23.07,1.56,34.35,4.23,59.11,14,105.13,63.01,115.28,122.86.97,5.74,1.61,11.51,2.41,17.28Z"/>
  <path class="cls-2" d="m531.69,324.57c-.04,11.74-8.33,21.64-20.04,23.94-11.32,2.22-22.91-4.07-27.2-14.94-.68-1.71-1.43-2.24-3.22-2.2-6.25.11-12.51.04-18.76.04-.6,0-1.19.08-2,.11-1.05,18.55-5.73,36.11-14.2,52.9,1.83,1.07,3.62,2.11,5.43,3.15,4.29,2.49,8.63,4.94,12.88,7.48,1.21.73,1.96.75,3.13-.17,15.05-11.89,36.45-3.69,39.71,15.15,2.2,12.7-6.4,25.26-19.08,27.86-13.09,2.67-26-5.27-28.84-18.08-.75-3.32-.3-6.86-.51-10.3-.04-.66-.34-1.62-.83-1.92-6.2-3.69-12.47-7.27-18.91-11-10.29,15.6-23.17,28.52-38.82,38.81,3.73,6.46,7.35,12.81,11.1,19.06.28.49,1.49.73,2.2.64,13.02-1.64,24.45,5.75,27.69,17.93,3,11.25-2.22,22.94-12.58,28.22-10.23,5.22-22.77,2.6-30.08-6.29-7.27-8.83-7.48-21.74-.32-30.71,1.13-1.41,1.21-2.34.3-3.86-3.54-5.88-6.89-11.83-10.1-17.35-8.8,3.15-17.26,6.74-26.05,9.12-8.76,2.35-17.84,3.47-27.24,5.22,0,.09-.08.75-.08,1.41,0,6.33.06,12.66-.04,18.99-.02,1.54.47,2.17,1.92,2.71,10.7,4.16,17.07,15.15,15.43,26.37-1.64,11.1-10.72,19.82-21.83,20.93-12.09,1.21-23.36-6.69-26.32-18.46-3-11.83,3.3-24.26,14.71-28.73,1.79-.7,2.17-1.54,2.15-3.26-.09-6.1-.04-12.21-.04-18.31v-2.39c-18.72-1.04-36.26-5.75-53.01-14.2-1.56,2.67-3.11,5.33-4.63,7.99-2,3.45-3.94,6.93-6.01,10.34-.73,1.21-.7,1.96.19,3.13,6.37,8.31,7.52,17.37,2.75,26.69-4.78,9.34-12.88,13.68-23.32,13.26-13.53-.51-23.81-12.6-22.87-26.56.89-13.04,12.9-23.58,25.92-22.27,3.52.36,5.14-.64,6.67-3.6,2.79-5.41,6.01-10.59,9.14-16.03-15.56-10.27-28.43-23.09-38.77-38.77-2.52,1.43-4.99,2.83-7.44,4.24-3.58,2.05-7.14,4.2-10.76,6.2-1.34.73-1.83,1.39-1.6,3.11,1.79,12.96-6.01,24.55-18.33,27.56-12.11,2.96-24.45-3.54-28.88-15.24-3.86-10.23-.38-21.89,8.51-28.43,8.72-6.42,20.85-6.31,29.44.43,1.58,1.22,2.6,1.26,4.28.26,5.78-3.52,11.68-6.82,17.09-9.95-3.15-8.85-6.74-17.33-9.12-26.13-2.35-8.76-3.47-17.84-5.18-27.16.3.08-.04-.08-.38-.08-6.78-.02-13.56.04-20.34-.06-1.62-.04-1.96.83-2.43,2.02-6.22,15.64-25.79,20.57-38.64,9.8-7.78-6.52-10.74-17.26-7.38-26.82,3.37-9.66,12.26-16.18,22.42-16.46,10.36-.28,19.69,5.71,23.45,15.26.7,1.77,1.54,2.32,3.39,2.3,6.25-.13,12.51-.08,18.76-.04,1.19,0,1.94-.09,2.03-1.62,1.04-17.74,5.67-34.55,13.56-50.47.13-.26.21-.55.4-1-6.65-3.84-13.28-7.67-19.93-11.51-5.39,4.71-11.49,6.99-18.55,6.57-12.06-.7-22.02-10.49-22.85-22.53-.87-12.47,7.48-23.57,19.5-25.96,17.07-3.37,31.57,10.59,29.18,28.11-.13,1.05-.19,1.75.92,2.37,6.1,3.43,12.15,6.97,18.22,10.45.17.11.41.13.73.23,10.21-15.47,23.06-28.33,38.69-38.64-3.01-5.24-5.97-10.38-8.93-15.5-.34-.6-.79-1.15-1.02-1.77-.79-2.3-2.24-2.67-4.62-2.41-14.54,1.58-26.84-9.21-27.22-23.68-.38-14.39,11.45-26,25.98-25.07,9.66.6,16.86,5.5,20.83,14.35,3.97,8.82,2.81,17.33-2.9,25.17-.45.62-.94,1.19-1.51,1.9,3.82,6.61,7.65,13.24,11.53,19.97,16.69-8.4,34.21-13.15,52.91-14.18.04-.85.11-1.58.11-2.32.02-6.25-.04-12.51.04-18.76,0-1.45-.32-2.19-1.85-2.77-11.25-4.35-17.58-15.94-15.24-27.65,2.35-11.83,12.56-19.93,24.87-19.74,11.51.19,21.47,8.97,23.45,20.66,1.88,11.19-4.54,22.51-15.28,26.67-1.51.58-2.05,1.24-2.02,2.86.09,6.25.04,12.51.04,18.76,0,.68.06,1.34.11,2.26,18.54,1.05,36.09,5.71,52.76,14.15.34-.49.72-.92,1-1.41,3.28-5.67,6.52-11.36,9.85-16.99.7-1.17.6-1.88-.24-2.92-6.67-8.27-7.4-19.35-2-28.31,5.29-8.78,15.56-13.28,25.83-11.3,9.95,1.9,17.59,9.89,19.36,20.23,2.86,16.58-11.64,30.69-28.76,27.99-.3-.06-.58-.11-1.17-.23-3.79,6.57-7.63,13.19-11.59,20.02,15.58,10.27,28.48,23.15,38.81,38.82,6.5-3.75,12.88-7.4,19.21-11.17.43-.26.58-1.39.49-2.07-1.71-13.19,6.05-24.98,18.52-27.95,11.19-2.67,22.72,2.77,27.82,13.13,5.01,10.21,2.28,22.62-6.57,29.84-8.83,7.16-21.57,7.29-30.57.32-.58-.47-1.17-.94-1.86-1.49-6.25,3.6-12.51,7.21-18.76,10.83-.38.21-.72.51-1.17.81,4.52,9.04,8.33,18.31,10.38,28.14,1.56,7.5,2.52,15.13,3.54,22.74.23,1.68.72,2.09,2.32,2.07,6.33-.09,12.66-.08,18.99,0,1.51.02,2.2-.4,2.77-1.86,4.28-11.08,15.84-17.52,27.22-15.31,11.92,2.32,20.19,12.28,20.16,24.32Z"/>
</svg>