<?xml version="1.0" encoding="utf-8"?>
<!-- Generator: Adobe Illustrator 28.0.0, SVG Export Plug-In . SVG Version: 6.00 Build 0)  -->
<svg version="1.1" id="Layer_1" xmlns="http://www.w3.org/2000/svg" xmlns:xlink="http://www.w3.org/1999/xlink" x="0px" y="0px"
	 viewBox="0 0 655.1 655.1" style="enable-background:new 0 0 655.1 655.1;" xml:space="preserve">
<style type="text/css">
	.st0{fill:none;stroke:#6CFF00;stroke-width:25.63;stroke-miterlimit:10;}
	.st1{fill:#6CFF00;}
	.st2{fill:#FFFFFF;}
</style>
<path class="st0" d="M642.2,157.3v340.5c-0.2,0.9-0.4,1.8-0.6,2.7c-1.4,8.8-2.3,17.7-4.4,26.3c-14.5,58.2-63.1,103-122.2,113.1
	c-5.7,1-11.5,1.6-17.3,2.4H157.3c-0.8-0.2-1.6-0.4-2.4-0.5c-6.2-0.9-12.4-1.4-18.5-2.6C66.5,626.1,13.2,562.6,13,491.5
	c-0.3-108.7-0.2-217.4,0-326c0-9.7,1.2-19.4,3-29C29.1,66.5,92.4,13.2,163.6,13c108.9-0.4,217.8-0.1,326.6-0.1
	c11.6,0,23.1,1.6,34.3,4.2c59.1,14,105.1,63,115.3,122.9C640.8,145.8,641.4,151.5,642.2,157.3L642.2,157.3z"/>
<path class="st1" d="M341.4,401.1c0,1,0,2,0,3c0,9.7,0,19.3,0,29c0,2,0.4,4,0.8,5.9c0.3,1.8-0.8,3.9,0.8,5.6c0.1,0.1,0,0.5,0,0.8
	c-0.6,4.1,0.9,8.1,0.8,12.2c0,1.5,0.6,2.9,0.7,4.4c0.1,1.6-0.4,3.3,0.1,4.7c0.9,2.3,0.5,4.5,0.7,6.8c0.1,1.3,0.5,2.7,0.8,4
	c0.2,1.3-0.6,2.9,0.7,4c0.1,0.1,0.1,0.5,0,0.8c-0.6,3.9,0.9,7.6,0.8,11.4c0,1.7,0.5,3.4,0.7,5.2c0.2,1.6-0.6,3.3,0.8,4.8
	c0.1,0.1,0,0.5,0,0.8c0.3,3.9,0.2,7.9,0.9,11.8c0.6,3.3,0.5,6.6,0.7,9.9c0.2,2,0.7,4.1,1.6,6c0.7,1.5,0.6,2.9,0.7,4.3
	c-3.4,1.7-6.8,3.4-10.2,5.1c-1.2-0.5-2.4-0.9-3.8-1.5c-1.1,2.2-2.2,4.5-3.5,6.7c-0.6,1-1.5,2.2-3.1,1.9c-4.7,2.5-10.2,3-15,5.3
	c-0.5,0.3-1.3,0.3-1.9,0.1c-2.2-0.5-4.4-1-6.7-0.8c-1.4-1.5-3.2-0.5-4.9-0.9c-0.4-0.7-0.8-1.6-1.2-2.3c0.1-2.1,1.4-3.3,2.7-4.6
	c6.4-6,12.8-12.1,19.3-18.2c-0.3-0.5-0.8-0.9-0.8-1.3c0.2-4.3-1.7-8.4-1.6-12.7c-1-1.5-0.8-3.1-0.8-4.8c0.1-1.5-0.7-2.9-0.9-4.4
	c-0.5-3.4-1.5-6.8-1.4-10.3c-1.4-1.2-0.5-3-1.4-4.5c-0.7-1.3,0.2-3.5-0.5-4.8c-0.9-1.5,0.5-3.5-1.2-4.6c0-1.8-0.1-3.4-0.7-5.2
	c-0.7-2.2-0.5-4.7-0.9-7.1c-0.3-1.7-0.8-3.4-0.9-5.1c-0.1-0.7-0.5-1.4-0.6-2.1c-0.1-1.5,0.1-2.9-0.7-4.4c-0.7-1.3,0.1-2.8-0.7-4.4
	c-0.7-1.4-0.2-3.4-0.8-5.1c-0.7-2.1-0.1-4.7-1-6.6c-1-2.2,0.2-4.6-1.4-6.5c0.2-4.8-2-9.2-2.5-13.9c-0.2-2.2-0.7-4.6-1.5-6.8
	c-0.7-2.1-0.7-4.3-1.4-6.5c-0.5-1.4-0.4-3.2-0.9-4.7c-0.5-1.7-0.4-3.5-0.9-5.1c-0.8-2.4-0.9-4.9-1.6-7.2c-0.7-2.3-1.1-4.5-1.6-6.8
	c-0.5-2.7-1.1-5.3-1.6-8c-0.4-2.5-0.9-5.1-1.6-7.6c-1.2-4.1-1.2-8.5-3-12.5c-0.4-0.9-0.1-2-0.1-2.6c-1.2-2.8-4-0.3-5.4-2.9
	c0.2-0.9-0.8-2.4,0.7-3.8c0.3-0.2,0-1,0-1.5c0-1,0-2.1,0-3.1c0.3-13.6,0.5-27.2,0.8-40.8c1.6-7.2,0.4-14.4,0.8-21.6
	c0-0.9-0.3-1.8,0.6-2.5c0.1-0.1,0.2-0.5,0.1-0.7c-0.5-3.2-0.5-6.6-1.1-9.8c-0.3-1.7-0.3-3.3-0.4-4.9c-0.1-1.7-0.1-3.3-1.3-5
	c-0.1,0.9-0.2,1.6-0.3,2.3c-0.3,4.9-0.1,9.8-0.9,14.5c-0.6,3.3-0.1,6.7-0.7,9.9c-0.8,3.8-0.1,7.7-0.8,11.4c-0.6,3.1,0,6.2-0.7,9.1
	c-1,4.2-0.1,8.5-0.8,12.6c-0.5,2.8-0.5,5.5-0.7,8.3c-0.1,1.3-0.8,2.5-1.3,4c3.2,5.4,1.9,11.7,2.2,18c-1,0-2,0-3.2,0
	c-1.7-3.6-2.1-7.6-3.3-11.5c-0.9,0.5-1.8,1.1-2.8,1.6c0,1.9,0,3.7,0,5.7c0.7,1.2,1.3,2.7,2.3,3.9c1.1,1.3,2.5,2.6,4.1,3.3
	c1.6,0.7,2.5,2.1,3.7,3c0,1,0,1.7,0,2.5c-0.3,0.1-0.5,0.3-0.7,0.3c-0.3,0.1-0.5,0-0.8,0c-4.2,0.5-7.8-0.7-11.3-3
	c-1.5-0.9-2.4-1.7-2.9-3.5c-1.1-3.3-2.9-6.4-4.5-9.9c0-2.7,0-5.8,0-9.2c-0.6-0.3-1.3-0.7-1.8-1c0.9-8.6-1.1-16.6-0.6-24.8
	c-1.3-4.3-0.1-8.8-0.9-13c-0.9-4.8-0.4-9.5-0.6-14.2c-0.1-2.1-1.1-4.1-0.8-6.3c0.3-2.4-0.1-4.7,0.7-7.2c0.7-2.1-0.6-4.6,0.9-6.7
	c0.1-0.2,0-0.5,0-0.8c0.3-3.3,0.3-6.6,0.9-9.8c0.3-1.5,0.6-2.9,0.7-4.4c0.1-1.4-0.3-2.7,0.4-4.1c0.6-1.3,0.2-3,0.3-4.6
	c0.1-1.5,1-2.8,0.8-4.4c-0.2-1.4-0.3-2.8,0.7-4c0.1-0.2,0-0.5,0-0.8c0.2-1.9-0.2-3.7,0.7-5.6c0.7-1.6-0.4-3.8,0.9-5.5
	c0.2-0.3,0-0.8,0-1.2c0.3-3.2,0.3-6.4,0.8-9.5c0.8-4.1,1.2-8.2,1.6-12.3c0.2-2.2,0.1-4.6,0.8-6.7c0.7-2.2,0.4-4.3,0.7-6.4
	c0.1-0.7,0.6-1.3,0.9-1.9c4.4-2.2,8.7-4.6,13.3-6.4c4.5-1.8,8.7-4.3,13.2-5.8c3.6-1.2,5.7-4.1,7.7-7.1c0.8-1.2,1.6-2.5,2.1-3.3
	c-0.5-4.5-1-8.6-1.5-13c-0.5-0.5-1.3-1.2-1.9-1.8c-0.4-2.2-0.8-4.1-1.3-6.2c-0.5,0-1.2,0-1.6,0c-2.3-3.1-3.1-6.8-5.1-9.9
	c0-1.6,0-3.2,0-4.9c0.4-0.1,0.8-0.2,1.4-0.3c0.4-4.3-1.1-8.5-0.8-12.8c0.3-4.4,0.1-8.9,0.1-13.2c1-1,1.9-1.9,2.8-2.9
	c0.7,0,1.5,0,2.5,0c0.3-0.6,0.6-1.2,0.9-1.9c1.9-3.7,5.7-5.8,10-5.9c4.9-0.1,9.7,0.4,14,3.1c1.2,0.8,2.6,1.4,3.7,2.3
	c3.6,3.1,7.1,6.3,10.7,9.6c0,1.5-0.1,2.9,0,4.3c0.3,4.7,0.6,9.4,0.9,14.1c0.4,0.2,0.9,0.3,1.4,0.6c0,2.1,0.2,4.2-0.1,6.2
	c-0.3,2.4-0.9,4.8-1.6,7.2c-0.2,0.7-1.3,1.1-2.2,1.8c0,1.2,0,2.7,0,4.3c-2.7,3.1-1.3,6.9-1.7,10.5c0.7,0.5,1.4,1.1,2.1,1.7
	c0.2-0.1,0.6-0.3,1-0.6c0.3,0.1,0.5,0.1,0.7,0.2c3,2.2,5.9,4.6,9,6.6c1.5,1,3.4,1.3,5.1,1.8c5,1.4,10.2,2.5,15.3,3.7
	c4.8,1.1,9.5,2.2,14.3,3.4c0.5,0.1,1,0,1.5,0c1.1,1.3,1.6,2.7,2,4.3c0.8,2.7,1.7,5.3,2.4,8c1.2,4.5,2.6,8.8,3.8,13.3
	c1.5,5.5,3,11,4.7,16.4c1.4,4.4,2.7,8.8,3.8,13.3c1.3,4.8,3,9.5,4.2,14.3c1.1,4.6,3.5,8.9,3.6,13.8c0,0.4,0.1,0.7,0.3,1.1
	c1.7,3,1.7,6.1,0.6,9.4c-0.7,2-0.4,4.2-0.9,6.3c-0.7,3.2-1,6.6-2.1,9.7c-0.5,1.4-0.1,2.9-0.8,4.4c-0.9,1.8-0.6,4.2-0.9,6.3
	c-0.1,0.7-0.5,1.4-0.7,2.1c-0.3,1.8-0.6,3.7-0.9,5.5c-0.3,1.8-0.7,3.7-1,5.4c-5.2,8.6-10.4,17.2-15.7,25.8c-0.7-0.7-1.1-1.1-1.7-1.7
	c-1.1,1.2-2.1,2.4-3.6,4c0,2,0,4.7,0,7.5c-0.8,0.5-1.6,0.9-2.4,1.4c0,4-0.5,8.1,0.1,12.1c1.3,8.5-0.2,17.1,0.8,25.5
	c1,8-0.2,16.1,0.8,24c1.1,9.5-0.2,18.9,0.8,28.3c1,8.9-0.2,17.9,0.8,26.7c1,9.2-0.2,18.4,0.8,27.5c1.1,9.8-0.2,19.7,0.8,29.5
	c1,9.6-0.1,19.2,0.8,28.7c0.5,5,0.5,10,0.6,15c0.1,2.8-1.5,5.5-0.7,8.3c1.3,4.2,0.4,8.4,0.8,12.9c-4.7,3.4-9.5,6.9-14.2,10.3
	c-2.6-1.1-5.4,0-7.9-0.7c-2.5-0.7-5-0.5-7.4-0.7c-0.5-0.5-0.8-0.9-1.1-1.2c0.7-3.6,1.4-7.1,1.7-10.8c0.2-2.3,0.9-4.8,2.2-6.9
	c1-1.7,2.1-3.3,3.1-5c0-1.7,0.2-3.4-0.7-5.2c-0.7-1.5,0.6-3.6-0.8-5.1c-0.2-0.2,0-0.8,0-1.2c0-1.6,0-3.2-0.7-4.8
	c-0.6-1.3-0.1-2.9-0.7-4.4c-0.7-1.8-0.6-3.9-0.8-5.9c-0.4-4.3-2-8.3-1.7-12.7c-1-1.7-0.3-3.8-0.9-5.5c-0.6-1.9-0.3-3.8-0.7-5.6
	c-0.9-3.8-1-7.7-1.6-11.5c-0.3-2-0.3-4.1-0.8-5.9c-0.6-1.9-0.2-3.8-0.7-5.6c-0.9-3-1.2-6.1-1.6-9.2c-0.5-3.4-0.8-6.9-1.6-10.3
	c-0.4-1.9-0.1-3.9-0.8-5.5c-0.7-1.8-0.2-3.6-0.8-5.2c-0.7-2-0.1-4.2-0.8-5.9c-0.8-2.1-0.3-4.1-0.7-6c-0.8-3.4-1.2-6.9-1.7-10.3
	c-0.2-1.7-0.3-3.5-0.7-5.2c-0.4-1.6-0.4-3.3-0.8-4.8c-0.6-1.9-0.2-3.8-0.8-5.6c-0.6-1.9-0.5-3.7-0.7-5.6c-0.2-1.7-0.8-3.3-1.2-4.9
	C341.7,401.1,341.5,401.1,341.4,401.1z M385.8,257c-0.9-2.4-1.9-5-2.9-7.6c-0.9-2.4-1.2-5.1-3.1-7.5c-0.2,2.1-0.1,4-0.8,5.8
	c-0.7,1.8-0.3,3.9-0.7,5.9c-0.8,3.8-0.7,7.8-1,11.8c-0.1,1.1-0.4,2.2-0.6,3.6c1,2.2,2.2,4.7,3.6,8C382.3,270,384,263.5,385.8,257z"
	/>
<path class="st2" d="M385.8,257c-1.8,6.5-3.5,13-5.4,20.1c-1.5-3.2-2.6-5.8-3.6-8c0.3-1.4,0.6-2.5,0.6-3.6c0.3-3.9,0.1-8,1-11.8
	c0.4-2,0-4.1,0.7-5.9c0.7-1.9,0.5-3.7,0.8-5.8c1.8,2.4,2.1,5.1,3.1,7.5C383.9,252,384.9,254.6,385.8,257z"/>
</svg>
