<?xml version="1.0" encoding="utf-8"?>
<!-- Generator: Adobe Illustrator 27.1.1, SVG Export Plug-In . SVG Version: 6.00 Build 0)  -->
<svg version="1.1" id="Layer_1" xmlns="http://www.w3.org/2000/svg" xmlns:xlink="http://www.w3.org/1999/xlink" x="0px" y="0px"
	 viewBox="0 0 800 800" style="enable-background:new 0 0 800 800;" xml:space="preserve">
<style type="text/css">
	.st0{fill:#6CFF00;}
</style>
<path class="st0" d="M571,0c-31.1,0.3-62,4.7-91.9,13.4l-2.1,0.7c-18.8-3.3-37.9-5.1-56.9-5.5c-39.3-0.7-73.1,8.8-100.3,24.7
	c-26.8-9.2-82.4-25.4-141-22.1c-40.7,2.2-85.3,14.6-118.4,49.5c-32.8,34.8-50.2,88.7-46.6,162.1c1,20.2,6.8,53.1,16.4,95.9
	c9.5,42.7,22.9,92.7,39.7,138.4c16.8,45.6,35.1,86.6,63.8,114.4c14.3,13.9,34.1,25.8,57.4,24.8c16.3-0.7,31-7.8,43.8-18.4
	c6.2,8.2,12.9,11.7,18.9,15c7.7,4.2,15,7,22.7,8.9c13.8,3.5,37.4,8.1,65,3.4c9.4-1.6,19.3-4.7,29.2-9c0.4,10.9,0.8,21.7,1.2,32.7
	c1.4,34.5,2.4,66.4,12.6,94.4c1.7,4.6,6.3,28,24.2,48.8c18.1,20.8,53.2,33.7,93.5,25.1c28.3-6,64.3-16.9,88.3-51
	c23.7-33.6,34.4-81.9,36.5-160.3c0.5-4.3,1.2-7.8,1.8-11.2l5.6,0.5h0.7c30.2,1.3,63-3,90.5-15.8c24.2-11.2,42.6-22.5,56-42.7
	c3.3-5,7-11.1,8-21.5c1-10.3-5-26.6-14.9-34.1c-19.8-15.1-32.3-9.4-45.7-6.5c-13.1,2.9-26.6,4.4-40,4.8
	c38.5-64.8,66.1-133.8,81.9-194.8c9.4-36.1,14.6-69.3,15-98.3c0.5-29-1.9-54.7-19.3-76.9C712,20,635.6,0.7,576.5,0.1
	c-1.8,0-3.6,0-5.5,0L571,0z M569.4,21.4c55.9-0.5,127.3,15.1,178.6,80.7c11.6,14.7,15,36.2,14.6,62.8s-5.3,58.2-14.3,93
	C731,325.3,698,403.6,651.8,474.1c1.6,1.2,3.4,2.2,5.2,2.9c9.6,4,31.6,7.4,75.6-1.6c11.1-2.4,19.2-3.9,27.6,2.5
	c4.2,3.5,6.4,8.7,6.1,14.2c-0.5,4-1.9,7.9-4.4,11.2c-8.5,12.7-25.2,24.9-46.7,34.9c-19,8.8-46.4,13.4-70.4,13.7
	c-12.2,0.1-23.4-0.8-33-3.8l-0.5-0.1c-3.7,35.3-12.1,105.1-17.6,136.8c-4.4,25.6-12.1,46.1-26.8,61.3
	c-14.7,15.4-35.4,24.5-63.4,30.5c-34.6,7.4-59.8-0.5-76-14.2c-16.2-13.7-23.7-31.9-28.1-43c-3.1-7.7-4.7-17.6-6.2-30.9
	c-1.6-13.3-2.6-29.4-3.4-47.8c-1-28-1.4-56-1-84.1c-14.4,13.3-32.4,22-51.7,25.4c-23,3.9-43.5,0-55.7-3c-6-1.6-11.9-3.8-17.3-6.8
	c-5.7-3-11.1-6.4-14.7-13.2c-2.1-3.9-2.7-8.4-1.8-12.7c1-4.4,3.6-8.2,7.2-11.1c6.6-5.4,15.4-8.3,28.5-11.1c24-5,32.4-8.3,37.5-12.4
	c4.3-3.4,9.3-10.4,17.8-20.7c0-0.4,0-0.9-0.1-1.3c-15.5-0.5-30.6-4.5-44.3-12c-4.9,5.2-30.6,32.3-61.7,69.8
	c-13,15.6-27.5,24.6-42.8,25.3c-15.2,0.6-29.1-7-40.8-18.4c-23.4-22.8-42.2-62-58.5-106.3s-29.4-93.6-38.9-135.5
	c-9.4-42.1-15-75.9-15.8-92.2c-3.5-69.4,12.8-116.1,40.6-145.7s66-40.6,103.3-42.8c66.8-3.8,130.3,19.5,143.1,24.5
	c24.7-16.8,56.6-27.2,96.5-26.6c18.9,0.3,37.6,2.7,56,7.3l0.7-0.4c8.1-2.7,16.3-5.2,24.6-7C523,24.4,546.1,21.7,569.4,21.4
	L569.4,21.4z M574.5,43.6h-4.9c-19,0.2-38.2,2.5-56.8,6.5c41.5,18.4,72.9,46.6,95,75c15.4,19.5,28,41,37.6,63.9
	c3.8,8.9,6.3,16.3,7.6,22c0.8,2.9,1.2,5.3,1.4,7.8c0,1.3,0.1,2.6-0.5,4.8c0,0.1-0.1,0.4-0.1,0.5c1.1,29.2-6.2,48.9-7.2,76.8
	c-0.6,20.2,4.6,43.9,5.9,69.8c1.2,24.3-1.8,51-17.6,77.3c1.3,1.6,2.5,3.1,3.8,4.8c41.8-65.9,72-138.7,88-200.8
	c8.6-33.5,13.1-63.8,13.5-87.7c0.4-24-4-41.4-9.8-48.7C685.6,58.6,625.1,44,574.5,43.6L574.5,43.6z M414.7,52.2
	c-39.3,0.1-67.6,12-89,29.8c-22.2,18.5-37,43.6-46.6,69.5c-11.6,30.6-15.6,60.3-17.2,80.5l0.5-0.3c11.9-6.6,27.5-13.4,44.3-17.2
	c16.7-3.9,34.8-5.1,51,1.3c16.4,6.2,29.8,21.2,34.8,43.7c23.5,108.6-7.3,149-18.6,179.4c-4.3,11.1-8.1,22.3-11.1,33.7
	c1.4-0.3,2.9-0.7,4.3-0.8c8.1-0.6,14.3,2,18,3.5c11.5,4.8,19.3,14.7,23.6,26c1,3,1.8,6.1,2.3,9.5c0.4,1.3,0.7,2.7,0.7,4.2
	c-1.3,41.5-1.2,83.1,0.4,124.6c0.8,18,2,33.7,3.4,46.2c1.4,12.4,3.4,21.9,4.7,25.1c4.3,10.7,10.5,24.6,21.9,34.1
	c11.2,9.5,27.3,15.8,56.9,9.5c25.6-5.6,41.4-13.2,51.9-24.1c10.6-11.1,16.8-26.3,20.8-49.6c6.1-35,18.2-136.6,19.7-155.6
	c-0.6-14.5,1.4-25.5,6.1-34c4.7-8.6,12-13.9,18.4-16.8c3.1-1.4,6.1-2.3,8.6-3.1c-2.6-3.6-5.3-7.3-8.1-10.8
	c-9.1-11.1-16.7-23.4-22.3-36.6c-2.6-5.5-5.5-11-8.6-16.2c-4.4-7.9-10-18-15.9-29.3c-11.7-22.4-24.5-49.7-31.1-76.3
	c-6.6-26.6-7.5-54,9.4-73.3c15-17.2,41.4-24.3,80.8-20.3c-1.2-3.5-1.8-6.5-3.8-11.1c-9-21.1-20.7-40.9-34.8-58.9
	C556.6,96,502.3,53.5,418.6,52.1L414.7,52.2z M193.4,53.9c-4.2,0-8.5,0.1-12.6,0.4c-33.7,2-65.5,11.7-88.3,35.8
	c-22.8,24.2-37.7,63.7-34.5,129.2c0.7,12.5,6,47.1,15.2,88.4c9.3,41.3,22.4,89.9,38.2,132.8c15.7,42.8,34.8,80.2,53,97.9
	c9.1,8.7,17,12.4,24.2,12.1c7.2-0.4,15.9-4.6,26.6-17.3c19.4-23.4,39.5-46.1,60.3-68.2c-30-26.2-44.7-65.7-38.8-105.1
	c3.4-24.6,3.9-47.7,3.4-65.9c-0.4-17.7-1.6-29.4-1.6-36.8c0-0.3,0-0.4,0-0.7v-0.1l-0.1-0.2c0-38.4,6.8-76.4,19.8-112.5
	c9.4-24.9,23.2-50,44-70.5c-20.4-6.8-56.8-16.9-96.1-18.9C201.8,54,197.5,53.9,193.4,53.9L193.4,53.9z M606.6,229.9
	c-22.6,0.4-35.3,6.3-42,13.8c-9.4,10.8-10.3,29.8-4.4,53.3c5.8,23.4,18,49.6,29.3,71.4c5.6,10.9,11.1,20.7,15.5,28.6
	c4.6,8.1,7.8,13.7,9.8,18.6c1.8,4.4,3.9,8.3,6,12c8.7-18.5,10.3-36.6,9.4-55.6c-1.2-23.4-6.6-47.4-5.7-71.6
	c0.9-28.4,6.5-46.9,6.9-68.8C623.2,230.6,614.9,229.9,606.6,229.9L606.6,229.9z M332.2,233.9c-6.9,0-13.8,0.9-20.6,2.5
	c-13.4,3.3-26.3,8.2-38.4,15c-4,2.2-7.9,4.7-11.6,7.6l-0.8,0.6c0.3,5,1.2,16.7,1.6,34.1c0.4,19,0,43.2-3.6,69.4
	c-8.1,57,33.3,104.2,81.9,104.3c2.9-11.7,7.5-23.6,12.2-36.1c13.5-36.5,40.1-63,17.7-166.9c-3.6-16.9-10.9-23.8-21-27.7
	C344,234.6,338.2,233.7,332.2,233.9L332.2,233.9z M596.1,240.6h1.7c2.1,0.1,4.2,0.3,6,0.8c1.7,0.4,3.3,0.9,4.6,1.8
	c1.3,0.8,2.2,2.1,2.5,3.6v0.3c0,1.6-0.4,3.1-1.2,4.6c-1,1.8-2.2,3.5-3.6,4.9c-3.4,3.8-8,6.3-12.9,7c-4.8,0.7-9.6-0.6-13.7-3.4
	c-1.6-1.2-3.1-2.5-4.3-3.9c-1.2-1.2-1.8-2.7-2.1-4.3c-0.1-1.5,0.3-3.1,1.3-4.3c1.2-1.2,2.5-2.2,3.9-3c3.2-1.8,7.5-3.1,12.5-3.8
	c1.8-0.2,3.6-0.4,5.3-0.5V240.6z M335.4,246.2c1.7,0,3.7,0.1,5.5,0.4c5.2,0.8,9.6,2.1,13.1,4.2c1.7,0.8,3.3,2.1,4.4,3.5
	c1.3,1.6,1.9,3.5,1.8,5.6c-0.4,1.9-1.2,3.8-2.5,5.2c-1.4,1.7-3,3.1-4.8,4.3c-4.3,3.1-9.6,4.4-15,3.8c-5.4-0.9-10.3-3.5-13.9-7.5
	c-1.6-1.7-2.9-3.5-3.9-5.5c-1.2-1.8-1.7-3.9-1.4-6c0.5-3.5,3.5-5.5,6.4-6.5c3.3-1.1,6.8-1.4,10.3-1.3L335.4,246.2z M637.4,491h-0.1
	c-4.8,1.8-8.8,2.5-12.2,4.1c-3.5,1.3-6.3,3.9-7.9,7.1c-2.2,3.8-3.9,10.6-3.4,22.1c1.4,1.1,3.1,1.8,5,2.4c5.6,1.7,15.2,2.9,25.9,2.7
	c21.2-0.3,47.4-5.2,61.3-11.7c11.3-5.2,22-12.2,31.4-20.4c-46.5,9.5-72.6,7-88.8,0.4C644.6,496,640.8,493.8,637.4,491L637.4,491z
	 M369.7,494.1H369c-1.8,0.1-4.3,0.8-9.4,6.3c-11.6,13-15.6,21.2-25.1,28.8c-9.6,7.7-22,11.7-46.9,16.8c-7.8,1.6-12.4,3.4-15.4,4.8
	c0.9,0.8,0.9,1.1,2.3,1.7c3.7,2.1,8.3,3.8,12.1,4.8c10.7,2.6,28.1,5.7,46.5,2.6c18.2-3.1,37.2-11.9,53.5-34.6
	c2.9-3.9,3.1-9.8,0.8-16c-2.3-6.1-7.4-11.6-10.9-13C374.3,495.2,372,494.5,369.7,494.1L369.7,494.1z"/>
</svg>
